<?xml version="1.0" encoding="UTF-8" standalone="no"?>
<!-- Created with Inkscape (http://www.inkscape.org/) -->

<svg
   xmlns:dc="http://purl.org/dc/elements/1.1/"
   xmlns:cc="http://creativecommons.org/ns#"
   xmlns:rdf="http://www.w3.org/1999/02/22-rdf-syntax-ns#"
   xmlns:svg="http://www.w3.org/2000/svg"
   xmlns="http://www.w3.org/2000/svg"
   xmlns:sodipodi="http://sodipodi.sourceforge.net/DTD/sodipodi-0.dtd"
   xmlns:inkscape="http://www.inkscape.org/namespaces/inkscape"
   width="139.12859mm"
   height="197.62688mm"
   viewBox="0 0 139.12859 197.62689"
   version="1.1"
   id="svg8"
   inkscape:version="0.92.5 (2060ec1f9f, 2020-04-08)"
   sodipodi:docname="bglogo_vert.svg">
  <defs
     id="defs2" />
  <sodipodi:namedview
     id="base"
     pagecolor="#ffffff"
     bordercolor="#666666"
     borderopacity="1.0"
     inkscape:pageopacity="0.0"
     inkscape:pageshadow="2"
     inkscape:zoom="0.49497475"
     inkscape:cx="97.611769"
     inkscape:cy="453.6739"
     inkscape:document-units="mm"
     inkscape:current-layer="layer1"
     showgrid="false"
     inkscape:window-width="1920"
     inkscape:window-height="1016"
     inkscape:window-x="0"
     inkscape:window-y="0"
     inkscape:window-maximized="1"
     units="mm"
     fit-margin-top="0"
     fit-margin-left="0"
     fit-margin-right="0"
     fit-margin-bottom="0" />
  <metadata
     id="metadata5">
    <rdf:RDF>
      <cc:Work
         rdf:about="">
        <dc:format>image/svg+xml</dc:format>
        <dc:type
           rdf:resource="http://purl.org/dc/dcmitype/StillImage" />
        <dc:title></dc:title>
      </cc:Work>
    </rdf:RDF>
  </metadata>
  <g
     inkscape:label="Livello 1"
     inkscape:groupmode="layer"
     id="layer1"
     transform="translate(-36.387619,-126.50141)">
    <path
       style="fill:#ff9c00;fill-opacity:0.31932774;stroke-width:0.06152054"
       d="m 68.250296,298.87236 c 0.0017,-0.0193 -0.383667,-0.49757 -0.856541,-1.06257 -0.472874,-0.56499 -0.950264,-1.14465 -1.060903,-1.28808 -0.11023,-0.14384 -0.416182,-0.53091 -0.678928,-0.86109 -0.262747,-0.33019 -0.534834,-0.68175 -0.604568,-0.78133 -0.06973,-0.0996 -0.24198,-0.3393 -0.382634,-0.53286 -0.140729,-0.19349 -0.279968,-0.4005 -0.309376,-0.46008 -0.02952,-0.0595 -0.08056,-0.15906 -0.113516,-0.22124 -0.31428,-0.59483 -0.332941,-0.63312 -0.337939,-0.6937 -0.0026,-0.0318 -0.02568,-0.0974 -0.05125,-0.146 -0.06433,-0.12258 -0.407989,-1.20876 -0.458442,-1.44911 -0.02281,-0.10843 -0.02819,-0.25336 -0.01207,-0.32211 0.0161,-0.0688 0.0139,-0.14214 -0.0049,-0.16306 -0.0702,-0.0781 -0.01714,-0.77514 0.114421,-1.50336 0.07474,-0.41377 0.248538,-1.37647 0.386198,-2.13931 0.4154,-2.30182 0.894941,-5.591 0.87788,-6.02123 -0.01772,-0.44652 -0.16161,-1.25461 -0.269158,-1.51153 -0.0094,-0.0223 -0.01953,-0.0553 -0.02285,-0.0731 -0.0028,-0.0183 -0.01344,-0.0507 -0.02267,-0.0733 -0.0094,-0.0222 -0.02758,-0.0817 -0.04069,-0.1319 -0.03679,-0.1412 -0.421183,-1.04826 -0.514193,-1.21372 -0.228402,-0.4062 -0.650636,-1.19662 -0.870346,-1.62914 -0.135552,-0.2667 -0.3153,-0.58859 -0.399559,-0.71524 -0.08421,-0.12667 -0.177441,-0.27519 -0.206994,-0.33021 -0.02965,-0.0549 -0.114024,-0.19547 -0.187575,-0.3123 -0.07355,-0.11683 -0.163497,-0.26912 -0.199849,-0.33845 -0.03636,-0.0694 -0.142454,-0.25735 -0.235607,-0.41794 -0.236218,-0.40697 -0.283737,-0.49438 -0.717216,-1.31993 -0.21107,-0.40192 -0.505606,-0.93766 -0.654598,-1.19048 -0.148994,-0.25281 -0.299544,-0.51745 -0.334629,-0.58804 -0.03507,-0.0706 -0.09059,-0.17933 -0.123537,-0.2415 -0.03291,-0.0623 -0.08969,-0.16973 -0.126121,-0.23899 -0.03644,-0.0692 -0.09623,-0.18241 -0.13283,-0.25151 -0.03644,-0.0692 -0.09333,-0.17665 -0.126114,-0.23898 -0.09555,-0.18064 -0.17322,-0.338 -0.347359,-0.70332 -0.08982,-0.1881 -0.445744,-0.88964 -0.791108,-1.55879 -0.345387,-0.66913 -0.650132,-1.26359 -0.677215,-1.32102 -0.02707,-0.0574 -0.0784,-0.16171 -0.113865,-0.23191 -0.113928,-0.2244 -0.163402,-0.32926 -0.258729,-0.54798 -0.05129,-0.11769 -0.122714,-0.27097 -0.158663,-0.3407 -0.03596,-0.0698 -0.112274,-0.24398 -0.169474,-0.38738 -0.05714,-0.14344 -0.114682,-0.25021 -0.127893,-0.23724 -0.01321,0.0133 -0.03213,-0.0324 -0.04245,-0.1006 -0.01019,-0.0682 -0.06112,-0.19867 -0.1131,-0.28996 -0.05205,-0.0912 -0.131696,-0.24975 -0.177071,-0.35224 -0.04539,-0.10252 -0.12685,-0.26309 -0.181316,-0.35664 -0.05442,-0.0937 -0.114022,-0.20695 -0.132501,-0.25182 -0.15076,-0.36569 -0.619605,-1.06784 -1.028122,-1.53989 -0.627911,-0.72564 -0.968809,-0.95131 -1.562138,-1.03474 -0.205925,-0.0289 -0.457419,-0.0742 -0.558935,-0.10056 -0.192329,-0.0499 -1.282701,-0.20812 -1.427937,-0.2071 -0.04582,2.7e-4 -0.15187,-0.0159 -0.235564,-0.0361 -0.08371,-0.0201 -0.379791,-0.0632 -0.657893,-0.0956 -0.278096,-0.0324 -0.520356,-0.0753 -0.538353,-0.0953 -0.01801,-0.0201 -0.05629,-0.0247 -0.0853,-0.0102 -0.04671,0.0233 -1.179016,-0.0819 -2.278633,-0.21159 -0.55203,-0.0651 -0.917241,-0.29031 -1.470871,-0.90695 -0.250596,-0.27911 -0.484868,-0.56469 -0.520495,-0.63473 -0.03571,-0.07 -0.117209,-0.21337 -0.181304,-0.31849 -0.394634,-0.64818 -0.657369,-1.32151 -1.497648,-3.83799 -0.195452,-0.58528 -0.406475,-1.23735 -0.468966,-1.44905 -0.0625,-0.2117 -0.124896,-0.40822 -0.138676,-0.43669 -0.01439,-0.0279 -0.04958,-0.14684 -0.07964,-0.26293 -0.03003,-0.11613 -0.07443,-0.24438 -0.0986,-0.28509 -0.02512,-0.0398 -0.04696,-0.10544 -0.05049,-0.14397 -0.0035,-0.0385 -0.159659,-0.55548 -0.346929,-1.14878 -0.187277,-0.59328 -0.372738,-1.2189 -0.412158,-1.39024 -0.03936,-0.17139 -0.108536,-0.41281 -0.153597,-0.53661 -0.148667,-0.40846 -0.391531,-1.58109 -0.420644,-2.03109 -0.0077,-0.11845 -0.02336,-0.25774 -0.03488,-0.30945 -0.01158,-0.0517 -0.0118,-0.37869 -6.35e-4,-0.72664 0.035,-1.09154 0.225797,-1.65234 0.77746,-2.28511 0.271562,-0.31148 0.870546,-1.03445 1.029044,-1.24203 0.03559,-0.0461 0.153469,-0.19509 0.262488,-0.33064 0.360318,-0.44789 2.460843,-3.22215 2.60918,-3.44601 0.358124,-0.5404 0.580466,-1.85578 0.475077,-2.81036 -0.0083,-0.0756 -0.02122,-0.26916 -0.02862,-0.43043 -0.01414,-0.30828 -0.111754,-0.88137 -0.627174,-3.68226 -0.173506,-0.94286 -0.353481,-1.98628 -0.399957,-2.31871 -0.04645,-0.33247 -0.103395,-0.70618 -0.126523,-0.8305 -0.02313,-0.12431 -0.03758,-0.29057 -0.03212,-0.36944 0.0054,-0.0788 -0.0075,-0.12629 -0.02868,-0.10549 -0.02119,0.0208 -0.03547,-0.0204 -0.031,-0.0923 0.0088,-0.15367 0.0035,-0.19747 -0.121008,-0.99716 -0.08866,-0.56913 -0.12916,-0.89345 -0.155613,-1.24642 -0.0058,-0.0768 -0.03069,-0.25721 -0.05542,-0.40095 -0.02479,-0.14371 -0.04783,-0.3101 -0.05135,-0.36968 -0.01841,-0.31284 -0.130838,-1.18281 -0.156544,-1.21143 -0.01635,-0.0182 -0.01494,-0.10911 0.003,-0.20187 0.01804,-0.0928 0.01004,-0.17235 -0.01783,-0.17663 -0.02776,-0.004 -0.03755,-0.0631 -0.02175,-0.13054 0.01583,-0.0674 0.01563,-0.137 -3.26e-4,-0.15477 -0.01594,-0.0178 -0.05304,-0.26066 -0.08249,-0.53977 -0.02943,-0.27913 -0.06257,-0.55015 -0.07368,-0.60227 -0.01103,-0.0521 -0.02528,-0.19285 -0.03155,-0.31271 -0.0062,-0.11995 -0.0194,-0.26249 -0.02923,-0.31691 -0.0098,-0.0545 -0.04831,-0.38984 -0.08555,-0.74534 -0.104368,-0.99648 -0.131509,-1.30715 -0.153646,-1.75846 -0.02001,-0.40835 -0.276642,-1.86366 -0.368718,-2.09104 -0.006,-0.0151 -0.03786,-0.13851 -0.07051,-0.27448 -0.160123,-0.66568 -0.726167,-1.74887 -1.059986,-2.02834 -0.08818,-0.0739 -0.378372,-0.34993 -0.644709,-0.61358 -0.266424,-0.26357 -0.593681,-0.57817 -0.727432,-0.69891 -0.133676,-0.12083 -0.670454,-0.62502 -1.19262,-1.12063 -0.522294,-0.49549 -1.016836,-0.9552 -1.099164,-1.02141 -0.08218,-0.0664 -0.360641,-0.30857 -0.618687,-0.53835 -0.257971,-0.22986 -0.61774,-0.54691 -0.799281,-0.70477 -0.820185,-0.71247 -1.336738,-1.51151 -1.5483,-2.39515 -0.03046,-0.12724 -0.06191,-0.24213 -0.06982,-0.25537 -0.0084,-0.0127 -0.01725,-0.0643 -0.02063,-0.11342 -0.0035,-0.049 -0.01778,-0.078 -0.03171,-0.0643 -0.04438,0.0435 -0.186295,-0.97986 -0.2087,-1.50528 -0.01185,-0.27786 -0.02562,-0.55647 -0.03061,-0.61915 -0.005,-0.0627 0.0012,-0.43422 0.01378,-0.8257 0.01258,-0.3915 0.01488,-0.78609 0.0051,-0.87687 -0.02493,-0.23083 0.197242,-5.08504 0.290578,-6.34832 0.127232,-1.72215 0.467951,-2.85899 1.052811,-3.51266 0.351259,-0.39257 0.490507,-0.46904 0.986933,-0.5438 0.238855,-0.0358 0.543773,-0.0868 0.677617,-0.11312 0.1338,-0.0259 0.550491,-0.0917 0.925929,-0.14508 0.793367,-0.11298 0.794434,-0.11315 2.085663,-0.37701 0.541629,-0.11068 1.203248,-0.24267 1.470258,-0.29332 0.60416,-0.11456 0.838228,-0.20695 1.050065,-0.41427 0.204607,-0.20021 0.566743,-0.75343 0.728778,-1.11322 0.09805,-0.21778 0.386051,-1.19058 0.407169,-1.37542 0.02494,-0.21834 0.255006,-1.05051 0.426295,-1.54195 0.115789,-0.3322 0.219211,-0.64105 0.22981,-0.68633 0.05115,-0.21849 1.063936,-2.96179 1.493954,-4.04661 0.266949,-0.67346 0.532515,-1.35563 0.59014,-1.51593 0.117634,-0.32719 1.19014,-2.70134 1.593551,-3.52757 0.297277,-0.60885 1.208239,-2.3614 1.555248,-2.99206 1.16478,-2.11688 3.143227,-5.14292 4.421687,-6.76297 0.382254,-0.48432 0.849282,-1.08253 1.037925,-1.32931 1.544803,-2.02086 5.48826,-5.89455 7.377901,-7.24791 0.220315,-0.15777 0.703366,-0.51032 1.073414,-0.78349 2.027036,-1.49636 5.057943,-3.19381 7.382417,-4.13447 1.173001,-0.47469 3.752966,-1.35204 3.964164,-1.34806 0.02614,5.8e-4 0.150921,-0.0361 0.277383,-0.0804 0.126531,-0.0447 0.242836,-0.0667 0.258563,-0.0495 0.0157,0.0175 0.06022,6.9e-4 0.09872,-0.0371 0.03858,-0.0379 0.08998,-0.0625 0.114083,-0.0547 0.02415,0.008 0.21251,-0.0315 0.418634,-0.0875 0.335464,-0.0915 0.569588,-0.14205 0.849782,-0.18365 0.05048,-0.007 0.229875,-0.0465 0.398639,-0.0874 0.16875,-0.0405 0.398658,-0.088 0.51091,-0.10593 0.209417,-0.0332 0.434613,-0.075 0.823231,-0.15292 1.159597,-0.23254 3.707421,-0.44779 5.294955,-0.44741 0.302606,9e-5 0.574623,-0.0124 0.60449,-0.0277 0.02984,-0.0153 0.07587,-0.004 0.102106,0.0253 0.02625,0.0292 0.08919,0.0317 0.140089,0.005 0.05075,-0.0264 0.225235,-0.0307 0.387677,-0.01 0.162404,0.0212 0.386357,0.0347 0.497597,0.0301 0.111195,-0.005 0.216528,0.007 0.233956,0.0269 0.01742,0.0194 0.110069,0.0319 0.20578,0.0279 0.617177,-0.0262 0.822114,-0.0244 0.850943,0.007 0.01798,0.0197 0.08103,0.0266 0.140084,0.0153 0.106492,-0.0202 1.93033,0.19439 2.300258,0.27096 0.106067,0.0219 0.40598,0.0712 0.666555,0.1095 1.012118,0.14869 1.878085,0.31987 3.08391,0.60958 0.399309,0.0959 0.780102,0.18617 0.846194,0.20047 1.092773,0.23662 4.439873,1.39046 5.895943,2.03247 0.31008,0.13671 0.72195,0.3167 0.91531,0.39996 0.19332,0.0833 0.46997,0.20698 0.61471,0.27494 0.86583,0.40657 1.44977,0.69057 1.69095,0.82242 0.1512,0.0826 0.3782,0.20351 0.50448,0.26858 0.59414,0.30608 1.30486,0.69721 1.5705,0.86428 0.10429,0.0656 0.42116,0.25298 0.70405,0.41637 0.28287,0.16342 0.64301,0.37701 0.80025,0.47469 0.15728,0.0977 0.38517,0.23484 0.50663,0.30466 0.30398,0.17494 0.26734,0.15083 1.60514,1.0594 0.65763,0.44665 1.2736,0.87311 1.36881,0.94767 0.19063,0.1493 0.2953,0.22468 0.4714,0.33924 0.0643,0.0419 0.33281,0.24232 0.59659,0.44549 0.26381,0.20312 0.51382,0.38732 0.55564,0.40927 0.0419,0.022 0.18028,0.12665 0.30771,0.2326 0.12744,0.10595 0.27094,0.22286 0.31893,0.25977 0.0748,0.0576 0.8345,0.68195 1.4611,1.20077 0.10449,0.0865 0.33309,0.27451 0.50812,0.41776 0.17494,0.14333 0.446,0.37561 0.60222,0.51631 0.15623,0.14071 0.36744,0.32863 0.46943,0.41755 0.25955,0.22621 0.62355,0.55473 0.95254,0.85983 0.15413,0.14276 0.43434,0.40043 0.62265,0.57265 0.1884,0.17213 0.45549,0.42549 0.59372,0.56286 0.13855,0.13705 0.41022,0.40309 0.60477,0.59019 0.493,0.4745 2.44595,2.51972 2.99275,3.13424 1.23995,1.39244 1.56336,1.77971 1.47362,1.7613 -0.053,-0.0109 -0.30053,-0.21481 -0.55004,-0.45297 -0.24959,-0.23809 -0.52015,-0.48804 -0.60129,-0.55543 -0.0811,-0.0674 -0.24948,-0.21147 -0.3741,-0.32018 -0.24058,-0.21 -0.5645,-0.48106 -0.7771,-0.65016 -0.0709,-0.0565 -0.25723,-0.21722 -0.41393,-0.35745 -0.15679,-0.14016 -0.42987,-0.37046 -0.60683,-0.5118 -0.17704,-0.14127 -0.41513,-0.33719 -0.52924,-0.43522 -0.1141,-0.098 -0.31858,-0.25818 -0.45439,-0.35592 -0.13573,-0.0978 -0.33281,-0.24804 -0.4377,-0.33412 -0.43762,-0.35868 -1.16022,-0.86551 -2.51863,-1.76663 -0.23194,-0.15397 -0.54369,-0.34635 -0.83587,-0.51611 -0.17471,-0.10155 -0.58747,-0.34941 -0.91717,-0.55088 -0.32973,-0.20142 -0.72429,-0.43278 -0.87684,-0.51408 -0.15257,-0.0813 -0.53434,-0.29081 -0.84843,-0.46559 -0.31406,-0.17479 -0.63982,-0.3534 -0.72382,-0.39696 -0.084,-0.0435 -0.26647,-0.13942 -0.40547,-0.21301 -0.13899,-0.0736 -0.35235,-0.1691 -0.47413,-0.21222 -0.12178,-0.0432 -0.24645,-0.10633 -0.27708,-0.14044 -0.0547,-0.0609 -0.58938,-0.29295 -1.41514,-0.61414 -0.2298,-0.0895 -0.64808,-0.26318 -0.92934,-0.38617 -0.61027,-0.26685 -2.18253,-0.81123 -2.5884,-0.89622 -0.15878,-0.0332 -0.49395,-0.13381 -0.74497,-0.22346 -0.41829,-0.14942 -1.47379,-0.45659 -1.71047,-0.49779 -0.0545,-0.01 -0.3434,-0.0655 -0.64197,-0.12446 -0.29855,-0.059 -0.65085,-0.12558 -0.78289,-0.14804 -0.13202,-0.0224 -0.32242,-0.0653 -0.42309,-0.0951 -0.21048,-0.0625 -1.35974,-0.21459 -1.52611,-0.20201 -0.0612,0.005 -0.12404,-0.006 -0.1396,-0.0232 -0.0155,-0.0173 -0.1021,-0.032 -0.19241,-0.0326 -0.22638,-0.002 -0.84191,-0.0494 -1.359602,-0.10565 -0.685174,-0.0745 -1.686344,-0.10464 -2.461475,-0.0741 -0.222886,0.009 -0.479908,0.0167 -0.571177,0.0176 -0.316766,0.003 -2.82966,0.24712 -3.161493,0.30699 -0.316834,0.0572 -0.90036,0.15759 -1.373751,0.23634 -0.295063,0.0491 -1.503034,0.35898 -1.787021,0.45841 -0.12682,0.0444 -0.243403,0.0668 -0.25913,0.0488 -0.0157,-0.0174 -0.05176,-0.009 -0.0802,0.0189 -0.02843,0.0279 -0.360478,0.13694 -0.737975,0.24246 -1.079591,0.30166 -3.552144,1.27806 -4.255506,1.68048 -0.216178,0.12366 -0.481943,0.26607 -0.590582,0.31639 -0.360891,0.16714 -1.923819,1.06891 -2.180265,1.25795 -0.138825,0.10234 -0.5176,0.35626 -0.841646,0.56427 -1.714183,1.10031 -3.757464,2.84235 -5.594855,4.77002 -0.895002,0.93894 -2.091702,2.29193 -2.248417,2.54199 -0.03186,0.0507 -0.258942,0.35857 -0.50471,0.68384 -1.096104,1.45096 -1.365294,1.83082 -2.059686,2.9065 -0.779479,1.20747 -1.048857,1.66951 -2.12514,3.64518 -0.513075,0.94182 -1.85941,3.78195 -2.093803,4.4169 -0.06723,0.18207 -0.21221,0.55791 -0.322212,0.83514 -0.298725,0.75283 -0.978964,2.55356 -1.174463,3.10902 -0.607508,1.72615 -1.887497,6.43902 -2.153209,7.92804 -0.034,0.19054 -0.102883,0.51094 -0.153098,0.71201 -0.101406,0.40614 -0.369924,1.65807 -0.386435,1.80181 -0.0058,0.0506 -0.06337,0.31357 -0.127876,0.58433 -0.119615,0.50197 -0.162765,0.73399 -0.557353,2.99605 -0.222137,1.27346 -0.551966,3.54976 -0.683707,4.71862 -0.151734,1.34618 -0.449359,4.37362 -0.48717,4.9555 -0.02223,0.34205 -0.07614,1.16825 -0.119809,1.83601 -0.093,1.42233 -0.163706,2.95328 -0.173099,3.74762 -0.02046,1.73452 -0.02573,2.85631 -0.01456,3.09833 0.0069,0.15052 0.0084,0.41368 0.0031,0.58489 -0.01029,0.337 -0.0024,0.7436 0.03547,1.83278 0.01342,0.38589 0.02166,0.84176 0.01832,1.01307 -0.0034,0.17133 -0.0018,0.36298 0.0035,0.42592 0.0053,0.063 0.0236,0.4688 0.04074,0.90187 0.01714,0.43305 0.03976,0.79695 0.05027,0.80866 0.01049,0.0116 0.01501,0.15053 0.0099,0.30861 -0.0052,0.15813 0.01073,0.46758 0.03508,0.68791 0.02435,0.22032 0.04988,0.45355 0.05675,0.51829 0.0069,0.0647 0.01161,0.23834 0.01054,0.38574 -0.0011,0.14744 0.008,0.30982 0.02012,0.36092 0.01214,0.0511 0.02753,0.19064 0.03422,0.3101 0.0067,0.1194 0.02514,0.33799 0.04096,0.48568 0.0158,0.1477 0.0327,0.32015 0.03751,0.38323 0.0048,0.0631 0.02216,0.29259 0.03849,0.51005 0.01632,0.21747 0.03446,0.45743 0.04024,0.5333 0.0057,0.0759 0.04006,0.40902 0.07617,0.74032 0.03612,0.33129 0.0556,0.62977 0.0433,0.66332 -0.0123,0.0335 0.0019,0.21786 0.03158,0.40964 0.07754,0.5014 0.09722,0.65924 0.112552,0.90213 0.0076,0.1186 0.02124,0.25982 0.03054,0.31371 0.0093,0.0538 0.03977,0.3102 0.06765,0.56965 0.0483,0.44947 0.101326,0.91028 0.14745,1.28133 0.03625,0.29161 0.211781,1.5087 0.347372,2.40851 0.03579,0.2379 0.08329,0.58651 0.105456,0.77478 0.0222,0.18824 0.05826,0.41061 0.0802,0.4941 0.02194,0.0835 0.04349,0.19979 0.04798,0.25839 0.01077,0.14142 0.673391,3.77804 0.873563,4.79426 0.167112,0.84838 0.25775,1.28063 0.385144,1.83681 0.04318,0.18865 0.114193,0.51419 0.157732,0.72349 0.04354,0.2093 0.08438,0.39259 0.09074,0.40736 0.03394,0.0788 0.186513,0.70167 0.279002,1.13908 0.03678,0.17392 0.119584,0.52226 0.183981,0.77409 0.06439,0.25184 0.143788,0.57736 0.176388,0.72343 0.03256,0.14611 0.07098,0.28024 0.08534,0.29811 0.01448,0.0178 0.04857,0.14792 0.07611,0.2889 0.02761,0.14094 0.06012,0.2692 0.07248,0.28483 0.01247,0.0155 0.06708,0.23686 0.121548,0.49169 0.05452,0.25477 0.157967,0.64604 0.229912,0.86948 0.07196,0.2234 0.151965,0.48855 0.177851,0.58917 0.02592,0.10058 0.0516,0.19566 0.05703,0.21133 0.0052,0.0159 0.03111,0.11075 0.05711,0.21124 0.04903,0.19011 0.140666,0.50593 0.42244,1.45654 0.09163,0.30911 0.185384,0.65187 0.208351,0.76171 0.02299,0.1098 0.06523,0.22586 0.09395,0.25784 0.02874,0.032 0.04784,0.0882 0.04234,0.1251 -0.0055,0.0368 -3.04e-4,0.0805 0.01148,0.097 0.01178,0.0165 0.04725,0.138 0.07887,0.27008 0.0317,0.13198 0.08582,0.29065 0.120219,0.35263 0.03449,0.0618 0.07225,0.17713 0.08408,0.25596 0.01173,0.0788 0.04443,0.186 0.07242,0.23826 0.02798,0.0522 0.07053,0.1904 0.0943,0.30723 0.02362,0.11693 0.06584,0.25725 0.09349,0.31204 0.02767,0.0548 0.213286,0.59261 0.412499,1.19519 0.36144,1.09323 0.632532,1.87361 0.702363,2.02189 0.02003,0.0434 0.03653,0.0874 0.03607,0.0982 5e-4,0.0107 0.0077,0.0373 0.01818,0.0583 0.01108,0.0208 0.07647,0.20563 0.146694,0.40973 0.07015,0.20418 0.140443,0.39296 0.156218,0.41948 0.016,0.0263 0.0499,0.13049 0.0759,0.231 0.02598,0.10047 0.05883,0.20573 0.07292,0.23392 0.03386,0.0676 0.04887,0.10622 0.183539,0.46903 0.06283,0.16936 0.120516,0.30176 0.128169,0.29425 0.0082,-0.008 0.03881,0.0822 0.06904,0.19956 0.03042,0.11723 0.06394,0.23032 0.07478,0.25118 0.01096,0.0206 0.0223,0.0439 0.02487,0.0518 0.0037,0.007 0.02157,0.0493 0.0413,0.0931 0.01987,0.0436 0.19997,0.50255 0.400367,1.01996 0.535831,1.38355 0.92316,2.35233 0.997776,2.49568 0.0362,0.0695 0.100538,0.19294 0.143008,0.27431 0.04245,0.0814 0.07928,0.17402 0.08196,0.20569 0.0025,0.0317 0.03159,0.1074 0.06436,0.16818 0.03281,0.0606 0.187956,0.41552 0.344859,0.78831 0.156927,0.37276 0.315788,0.73376 0.353056,0.8022 0.03724,0.0685 0.258984,0.55535 0.492764,1.082 0.233758,0.52666 0.474822,1.05399 0.535694,1.17185 0.06086,0.11789 0.16362,0.34352 0.228334,0.50144 0.0647,0.15794 0.162504,0.36341 0.217199,0.45676 0.05474,0.0933 0.114493,0.20647 0.132979,0.25134 0.0185,0.045 0.0781,0.15818 0.132818,0.2515 0.05466,0.0934 0.114418,0.20655 0.132898,0.25143 0.01858,0.0448 0.06484,0.13683 0.103135,0.20427 0.190454,0.33661 0.295925,0.54981 0.330594,0.66837 0.01431,0.049 0.07183,0.16435 0.127743,0.25648 0.05594,0.0922 0.29516,0.54469 0.531567,1.00574 0.236399,0.46104 0.479012,0.92123 0.539114,1.02264 0.06005,0.10146 0.195316,0.34675 0.300504,0.54516 0.105251,0.19836 0.248143,0.45958 0.317554,0.58047 0.06945,0.12087 0.132141,0.23118 0.139423,0.24501 0.01892,0.0383 0.18836,0.36027 0.264304,0.50433 0.03644,0.0692 0.142616,0.25718 0.236091,0.41745 0.0934,0.16037 0.195089,0.33974 0.226141,0.39845 0.03109,0.0587 0.09961,0.18043 0.152421,0.27046 0.05286,0.0899 0.241185,0.41638 0.418443,0.72547 0.177419,0.30892 0.461036,0.76947 0.630431,1.02326 0.16933,0.25384 0.361777,0.5633 0.427389,0.68791 0.06574,0.1245 0.181163,0.32052 0.256654,0.43546 0.07549,0.11493 0.162546,0.25625 0.193335,0.31416 0.03088,0.0578 0.130628,0.21768 0.221787,0.35512 0.219136,0.3304 0.390009,0.59727 0.478026,0.74528 0.09356,0.1575 1.405088,2.11431 1.65193,2.4646 0.105075,0.14889 0.255496,0.3621 0.334531,0.47357 0.07895,0.11152 0.213778,0.30569 0.299289,0.43178 0.08559,0.12603 0.258769,0.36847 0.384621,0.53897 0.125939,0.17043 0.285367,0.39199 0.35445,0.4922 0.06901,0.10029 0.307727,0.41589 0.53069,0.7011 0.222802,0.28538 0.470775,0.60906 0.550932,0.71941 0.08016,0.11035 0.337218,0.4423 0.571173,0.73774 0.233962,0.29544 0.507581,0.64549 0.608118,0.77786 1.315653,1.73229 5.003939,5.83942 6.780246,7.5505 0.525471,0.5061 1.025034,0.97916 1.267496,1.19988 0.372927,0.33981 1.209152,1.08701 1.405128,1.25572 0.09116,0.0785 0.266496,0.23294 0.389588,0.34316 0.638084,0.57176 1.111946,0.97412 1.209959,1.02722 0.0413,0.0225 0.195154,0.14643 0.341912,0.27541 0.299196,0.26327 0.402726,0.34834 0.656174,0.53974 0.09679,0.073 0.287907,0.2291 0.424564,0.34701 0.136818,0.11774 0.333651,0.26822 0.437533,0.33428 0.103962,0.0659 0.302412,0.21488 0.441169,0.33073 0.138664,0.11592 0.268352,0.21357 0.287991,0.21722 0.02,0.003 0.13837,0.0933 0.263765,0.19936 0.125396,0.10603 0.331295,0.26324 0.457646,0.34925 0.12635,0.086 0.281205,0.19177 0.343977,0.23517 0.06294,0.0432 0.278068,0.18811 0.478093,0.32188 0.200017,0.13377 0.424213,0.29177 0.498159,0.35115 0.07392,0.0593 0.38963,0.26694 0.70163,0.46115 0.31202,0.19421 0.75773,0.47847 0.99049,0.63166 0.40341,0.26547 1.09139,0.69036 1.46083,0.90211 0.0946,0.0542 0.44629,0.25886 0.78163,0.4548 0.3353,0.19595 0.8649,0.50097 1.17683,0.67786 0.31199,0.17685 0.60964,0.34867 0.66157,0.38169 0.052,0.033 0.4624,0.2316 0.91216,0.44126 0.44974,0.20961 0.88606,0.41716 0.9696,0.4612 0.1357,0.0716 0.46283,0.21501 1.98982,0.87276 0.2379,0.10254 0.55896,0.22858 0.71335,0.28021 0.15449,0.0515 0.46454,0.17679 0.68921,0.27816 0.54755,0.24712 2.39322,0.90041 2.63998,0.93448 0.0564,0.008 0.58074,0.146 1.16545,0.30716 0.58471,0.1612 1.34829,0.35683 1.6968,0.43481 0.34853,0.078 0.74571,0.16928 0.88262,0.20292 0.13692,0.0336 0.33005,0.0787 0.4292,0.10004 0.32408,0.0699 0.17294,0.15494 -0.32154,0.1809 -0.50977,0.0267 -0.6199,0.0269 -1.71829,0.002 -0.37632,-0.009 -0.75412,-0.0159 -0.83953,-0.0161 -0.0854,-2e-4 -0.37249,-0.0105 -0.63791,-0.0231 -0.26544,-0.0125 -0.52555,-0.0224 -0.57802,-0.0219 -0.28097,0.002 -0.32998,-8.7e-4 -0.35003,-0.0231 -0.0412,-0.046 -1.23338,-0.0862 -1.4857,-0.0502 -0.13859,0.0197 -0.43465,0.11287 -0.65792,0.20687 -0.66056,0.2781 -1.04579,0.71448 -1.26848,1.43696 -0.0597,0.1936 -0.22623,0.66479 -0.3701,1.04703 -0.14388,0.38226 -0.3316,0.89739 -0.41714,1.14476 -0.0856,0.24734 -0.24733,0.69789 -0.35953,1.00124 -0.19996,0.54067 -0.39651,1.12277 -0.66148,1.95899 -0.59496,1.87765 -0.69611,2.14687 -0.92222,2.45419 -0.3706,0.50371 -0.92752,0.77803 -1.70763,0.84106 -0.65321,0.0528 -0.53986,0.0728 -1.91691,-0.33832 -1.51591,-0.45255 -1.53522,-0.45889 -2.71125,-0.8902 -2.032606,-0.74548 -2.170294,-0.80508 -3.104811,-1.34401 -0.601746,-0.34704 -1.273016,-1.12133 -1.734906,-2.00126 -0.05822,-0.11089 -0.111975,-0.21277 -0.119349,-0.22655 -0.09264,-0.16981 -0.166578,-0.51492 -0.632137,-2.94736 -0.347216,-1.81405 -0.466615,-2.41806 -0.484092,-2.44882 -0.01286,-0.0227 -0.04946,-0.19227 -0.244561,-1.13469 -0.0398,-0.19196 -0.0791,-0.35961 -0.08742,-0.37243 -0.0085,-0.0128 -0.07122,-0.31199 -0.139728,-0.66481 -0.06851,-0.35279 -0.13902,-0.69601 -0.156678,-0.76269 -0.01764,-0.0668 -0.07262,-0.30487 -0.122096,-0.52933 -0.173691,-0.78789 -0.232365,-1.03211 -0.244971,-1.01974 -0.0072,0.007 -0.03933,-0.0902 -0.07178,-0.21594 -0.03249,-0.12562 -0.06848,-0.21918 -0.08007,-0.2078 -0.01152,0.0108 -0.04236,-0.0505 -0.06818,-0.13767 -0.158927,-0.53308 -1.354967,-1.83742 -2.081286,-2.27 -0.48882,-0.29097 -0.931607,-0.58288 -2.180791,-1.43769 -1.475564,-1.00972 -2.358176,-1.63571 -2.687695,-1.9062 -0.0702,-0.057 -0.24198,-0.18067 -0.382372,-0.27387 -0.140399,-0.0932 -0.322918,-0.22336 -0.405422,-0.28941 -0.199501,-0.15936 -0.43261,-0.33352 -0.574398,-0.42907 -0.0635,-0.0427 -0.202176,-0.14715 -0.308196,-0.23212 -0.106088,-0.0849 -0.382485,-0.29475 -0.614293,-0.46627 -0.231887,-0.17146 -0.495721,-0.37645 -0.586583,-0.4553 -0.09076,-0.0789 -0.233207,-0.19689 -0.316429,-0.26221 -0.08326,-0.0653 -0.279891,-0.23318 -0.436998,-0.37301 -0.390416,-0.3478 -1.03606,-0.90381 -1.243321,-1.07085 -0.09398,-0.0758 -0.255657,-0.20922 -0.359167,-0.29663 -0.161324,-0.13609 -0.495701,-0.41491 -0.715189,-0.59639 -0.03494,-0.0288 -0.237008,-0.13818 -0.449373,-0.24293 -0.920023,-0.45404 -1.417841,-0.48658 -1.994339,-0.13037 -0.584945,0.36145 -3.000109,2.17617 -4.212583,3.1653 -0.479572,0.39126 -0.94305,0.7395 -1.029909,0.77389 -0.539936,0.21376 -1.440335,-0.0376 -2.296611,-0.64103 -0.172458,-0.12148 -2.389469,-2.49619 -2.384317,-2.55373 z M 87.6672,294.02431 c 0.0023,-0.0226 -0.596122,-0.74071 -1.330216,-1.59538 -0.734014,-0.85475 -1.383338,-1.62651 -1.44304,-1.71493 -0.05966,-0.0885 -0.339915,-0.44919 -0.622795,-0.80162 -0.505372,-0.62987 -0.717362,-0.90507 -1.105293,-1.43548 -0.107336,-0.14668 -0.313641,-0.42533 -0.458735,-0.61895 -0.298106,-0.39825 -0.891511,-1.23058 -1.116356,-1.56567 -0.08236,-0.12275 -0.209536,-0.30721 -0.282828,-0.40975 -0.153536,-0.21534 -0.247316,-0.35536 -1.10134,-1.64198 -0.34603,-0.52148 -0.660146,-1.00363 -0.697942,-1.07154 -0.117538,-0.21102 -0.328881,-0.53604 -0.530741,-0.81561 -0.10645,-0.14756 -0.208785,-0.30487 -0.22742,-0.34958 -0.01866,-0.0447 -0.108021,-0.1942 -0.198772,-0.33203 -0.09074,-0.13782 -0.189925,-0.29686 -0.220398,-0.35341 -0.03045,-0.0565 -0.109085,-0.18896 -0.17463,-0.29434 -0.06553,-0.10537 -0.134593,-0.22799 -0.153309,-0.27263 -0.01891,-0.0446 -0.150388,-0.25908 -0.292546,-0.47661 -0.142157,-0.21751 -0.282911,-0.44022 -0.313023,-0.49467 -0.03005,-0.0545 -0.118329,-0.20297 -0.196296,-0.32978 -0.0778,-0.12695 -0.167343,-0.27964 -0.198962,-0.33932 -0.03156,-0.0597 -0.133734,-0.23986 -0.227134,-0.40023 -0.173377,-0.29768 -0.253757,-0.44387 -0.368273,-0.66958 -0.113675,-0.22377 -0.19443,-0.37089 -0.367966,-0.66988 -0.233944,-0.40292 -0.301053,-0.52461 -0.533066,-0.96607 -0.03636,-0.0694 -0.364957,-0.69193 -0.730094,-1.38367 -0.365148,-0.69176 -0.722702,-1.38903 -0.794582,-1.5495 -0.07194,-0.16042 -0.174747,-0.36883 -0.22855,-0.46304 -0.05378,-0.0943 -0.256616,-0.51377 -0.450666,-0.9324 -0.193979,-0.41867 -0.371091,-0.79549 -0.393451,-0.83746 -0.04133,-0.0772 -0.435009,-0.94841 -1.039803,-2.3 -0.182863,-0.4086 -0.379119,-0.86037 -0.436201,-1.00387 -0.05705,-0.14352 -0.114527,-0.25038 -0.127657,-0.23749 -0.01305,0.0132 -0.03189,-0.0322 -0.04219,-0.0994 -0.01013,-0.0676 -0.04655,-0.1779 -0.08116,-0.24496 -0.03448,-0.0671 -0.09721,-0.18805 -0.139261,-0.26879 -0.04206,-0.0808 -0.08469,-0.20214 -0.09479,-0.26975 -0.01013,-0.0676 -0.02971,-0.11172 -0.04364,-0.098 -0.01385,0.0136 -0.04671,-0.0486 -0.07278,-0.13859 -0.02617,-0.0899 -0.07136,-0.20872 -0.100667,-0.26396 -0.04975,-0.0942 -0.227965,-0.52813 -0.346537,-0.84365 -0.02887,-0.0767 -0.09337,-0.23678 -0.14334,-0.35575 -0.208623,-0.49612 -0.891109,-2.28198 -1.167388,-3.05475 -0.05555,-0.1555 -0.106404,-0.29461 -0.113009,-0.30913 -0.0069,-0.0144 -0.02349,-0.0668 -0.03758,-0.11593 -0.02403,-0.0838 -0.295161,-0.8489 -0.321233,-0.90668 -0.0069,-0.0144 -0.02424,-0.0659 -0.0391,-0.11443 -0.08116,-0.26298 -0.275239,-0.82023 -0.31265,-0.89766 -0.06605,-0.137 -1.003342,-2.97539 -1.12804,-3.41631 -0.01391,-0.0494 -0.115612,-0.37914 -0.225908,-0.73295 -0.11029,-0.35382 -0.211555,-0.70119 -0.225031,-0.77198 -0.01345,-0.0709 -0.101341,-0.37977 -0.195254,-0.68664 -0.09396,-0.30685 -0.18117,-0.5993 -0.193874,-0.64985 -0.0127,-0.0506 -0.02753,-0.10473 -0.03283,-0.12059 -0.0052,-0.016 -0.03098,-0.11094 -0.05686,-0.21147 -0.02592,-0.10058 -0.105589,-0.36606 -0.177132,-0.58989 -0.07156,-0.22379 -0.130606,-0.44079 -0.131248,-0.48217 -6.16e-4,-0.0414 -0.04301,-0.206 -0.09432,-0.36567 -0.05128,-0.15969 -0.113418,-0.37365 -0.138216,-0.47533 -0.02479,-0.10168 -0.09782,-0.39087 -0.162285,-0.64264 -0.06449,-0.25175 -0.140218,-0.55547 -0.168359,-0.67486 -0.02813,-0.11941 -0.07124,-0.3005 -0.09578,-0.40242 -0.02455,-0.10193 -0.08201,-0.34727 -0.127706,-0.54519 -0.04572,-0.1979 -0.08968,-0.36716 -0.09772,-0.3761 -0.0081,-0.009 -0.05777,-0.20828 -0.110556,-0.44293 -0.05275,-0.2347 -0.119315,-0.52404 -0.147875,-0.64302 -0.02862,-0.11894 -0.08253,-0.35815 -0.11988,-0.53152 -0.03742,-0.1733 -0.116902,-0.54208 -0.176754,-0.81938 -0.191809,-0.8887 -0.781309,-3.88615 -0.906475,-4.60919 -0.258818,-1.49498 -0.413039,-2.47085 -0.527723,-3.33892 -0.02699,-0.20455 -0.105718,-0.72872 -0.174884,-1.1649 -0.06917,-0.43617 -0.135052,-0.90421 -0.146413,-1.04009 -0.01137,-0.13585 -0.02928,-0.29012 -0.03984,-0.34276 -0.01061,-0.0527 -0.02572,-0.1596 -0.0337,-0.23766 -0.008,-0.078 -0.07108,-0.69538 -0.140157,-1.37186 -0.06909,-0.67648 -0.131784,-1.28359 -0.139323,-1.34912 -0.04259,-0.36982 -0.149501,-1.43828 -0.160409,-1.60288 -0.007,-0.10613 -0.02468,-0.28415 -0.03922,-0.3959 -0.01456,-0.11173 -0.04067,-0.42978 -0.05802,-0.7068 -0.01736,-0.27699 -0.04376,-0.68068 -0.05864,-0.8971 -0.07829,-1.13699 -0.245966,-4.49416 -0.261803,-5.24198 -0.01881,-0.8886 -0.02146,-1.18541 -0.01587,-1.78111 0.0032,-0.34022 0.0017,-0.83335 -0.0033,-1.09585 -0.01168,-0.6146 0.02659,-1.94192 0.05685,-1.97162 0.03681,-0.0362 0.0645,0.2205 0.08874,0.82272 0.01238,0.30658 0.02857,0.61087 0.03598,0.67625 0.0074,0.0653 0.04575,0.47452 0.08515,0.90928 0.269618,2.97393 0.372568,3.83514 0.749835,6.27292 0.212019,1.36999 1.054041,5.87361 1.122059,6.00145 0.0068,0.0143 0.04611,0.18196 0.08618,0.37366 0.04012,0.19166 0.101238,0.47535 0.13598,0.63026 0.03481,0.15487 0.110157,0.49608 0.167628,0.75809 0.05745,0.262 0.127663,0.53678 0.156013,0.6106 0.02831,0.0738 0.08105,0.25992 0.117138,0.41353 0.132,0.56191 0.155846,0.65946 0.270884,1.10885 0.06449,0.25176 0.137136,0.5465 0.161515,0.65494 0.02443,0.10838 0.05373,0.2075 0.06515,0.2202 0.01144,0.0128 0.05468,0.17125 0.09591,0.35256 0.04134,0.1812 0.116072,0.46113 0.16606,0.6221 0.05007,0.16088 0.103305,0.3664 0.118472,0.45653 0.01517,0.0902 0.04549,0.18397 0.06723,0.20868 0.02199,0.0245 0.0561,0.12846 0.07614,0.23076 0.03737,0.19062 1.239942,4.02979 1.306483,4.17102 0.01997,0.0433 0.235848,0.65637 0.478982,1.36285 0.243157,0.70646 0.458704,1.31974 0.479005,1.36282 0.02003,0.0434 0.1592,0.40508 0.308688,0.80443 0.149471,0.39936 0.2879,0.76184 0.30759,0.80552 0.01979,0.0436 0.05727,0.15285 0.08333,0.2428 0.02611,0.0898 0.05595,0.15511 0.06618,0.14507 0.01023,-0.0105 0.06375,0.10068 0.118871,0.2461 0.05504,0.1455 0.123658,0.31014 0.152448,0.36589 0.02876,0.0558 0.191283,0.44615 0.361162,0.86749 0.301398,0.74757 0.386427,0.94819 0.868753,2.0495 0.128652,0.29378 0.262681,0.60902 0.297809,0.70055 0.03518,0.0915 0.10486,0.23742 0.154914,0.3242 0.05007,0.0868 0.230174,0.45179 0.40021,0.81115 0.170055,0.35937 0.350186,0.72436 0.400232,0.81115 0.05007,0.0868 0.119088,0.23335 0.153464,0.32563 0.03427,0.0923 0.185878,0.3989 0.336652,0.68138 0.150793,0.28249 0.321712,0.61305 0.379772,0.73466 0.163579,0.34263 1.299107,2.44959 1.689338,3.13448 0.08434,0.14824 0.177487,0.31457 0.206638,0.36998 0.4545,0.8594 1.308339,2.28578 1.699069,2.83835 0.228852,0.32367 0.317609,0.46199 0.435885,0.67959 0.03724,0.0684 0.146526,0.24078 0.242925,0.38288 0.09639,0.1421 0.197842,0.30028 0.225487,0.35148 0.02732,0.0515 0.158157,0.24496 0.290089,0.43049 0.131938,0.18556 0.272305,0.39147 0.311953,0.45755 0.077,0.12826 0.965153,1.4317 1.153816,1.69334 0.10663,0.14792 0.516893,0.70007 0.918693,1.23676 0.09972,0.13314 0.526358,0.67669 0.948339,1.20763 0.421733,0.53118 0.904663,1.13977 1.072796,1.3528 0.414862,0.52538 3.299742,3.74127 3.625714,4.04044 0.143467,0.13223 0.579968,0.56831 0.96994,0.96911 0.390063,0.40073 0.756318,0.76297 0.813984,0.8049 0.162907,0.11845 0.472708,0.38796 1.066253,0.92737 0.300084,0.27254 0.774,0.68378 1.053268,0.91373 0.279269,0.22995 0.592362,0.48972 0.695645,0.57736 0.440631,0.37384 0.686431,0.57343 1.298664,1.05473 0.356424,0.28025 0.699854,0.55099 0.763115,0.60172 0.06297,0.051 0.233897,0.17538 0.378989,0.2772 0.145168,0.10172 0.322869,0.23023 0.394615,0.28581 0.153705,0.11867 1.749061,1.17866 2.538184,1.6865 0.588049,0.37844 1.242815,0.7574 2.094896,1.21246 0.679063,0.36264 1.339564,0.72053 1.779805,0.96432 0.984716,0.54531 4.265056,1.79351 6.308216,2.40033 0.44355,0.13171 0.87108,0.26197 0.95008,0.28944 0.0791,0.0274 0.33592,0.0884 0.57092,0.13537 0.6965,0.13932 1.87603,0.36088 2.04792,0.38465 0.0878,0.012 0.35953,0.0613 0.60378,0.10911 0.24424,0.0478 0.69517,0.10611 1.00207,0.12949 0.3069,0.0233 0.71966,0.059 0.91727,0.0791 0.40456,0.0413 1.96148,0.12661 2.10278,0.11523 0.0506,-0.004 0.23403,-0.005 0.40761,-0.003 0.72111,0.0105 1.63584,-0.0306 2.65826,-0.11933 0.47575,-0.0413 1.10801,-0.0906 1.40506,-0.10957 0.95931,-0.0612 2.88684,-0.31599 3.84848,-0.50863 1.43511,-0.28748 2.54214,-0.54629 2.98235,-0.69723 0.15685,-0.0538 0.30677,-0.097 0.3332,-0.0962 0.0265,4.8e-4 0.23047,-0.0597 0.45344,-0.1355 0.22301,-0.0754 0.66046,-0.219 0.97214,-0.31914 1.39723,-0.4487 3.24056,-1.18682 4.06883,-1.62927 0.22527,-0.12029 0.74302,-0.38475 1.15058,-0.5876 1.92824,-0.95974 3.45011,-1.93194 6.1618,-3.93629 1.51331,-1.11856 3.72624,-3.15821 5.53491,-5.10149 2.65431,-2.8519 5.62386,-7.01288 7.53452,-10.55758 1.50629,-2.79449 3.37865,-6.83132 4.00072,-8.62568 0.093,-0.26814 0.25084,-0.7001 0.35085,-0.95988 0.92221,-2.39598 2.52759,-7.82385 2.91091,-9.8419 0.0147,-0.0775 0.12429,-0.56307 0.2435,-1.07913 0.11922,-0.51608 0.22806,-1.00096 0.24186,-1.07753 0.0138,-0.0766 0.0999,-0.52055 0.19139,-0.98668 0.26788,-1.36538 0.79608,-4.59737 0.95924,-5.86958 0.0585,-0.45579 0.12423,-0.94995 0.14616,-1.09814 0.022,-0.14817 0.0671,-0.53678 0.10047,-0.86353 0.0333,-0.32676 0.0827,-0.80799 0.10969,-1.06942 0.027,-0.26141 0.0803,-0.86097 0.11852,-1.33235 0.0382,-0.47139 0.0909,-1.06984 0.11716,-1.32992 0.0807,-0.7996 0.30643,-5.90555 0.29342,-6.63753 -0.007,-0.40594 0.002,-1.33668 0.0182,-1.9237 0.007,-0.23821 6.5e-4,-0.5071 -0.0136,-0.59765 -0.0143,-0.0905 -0.0185,-0.32648 -0.01,-0.52419 0.0165,-0.36456 0.005,-0.83263 -0.0307,-1.21757 -0.0108,-0.11635 -0.0117,-0.36271 -0.002,-0.54744 0.01,-0.18481 0.004,-0.35109 -0.013,-0.36961 -0.0167,-0.0186 -0.0218,-0.11317 -0.0112,-0.21027 0.0106,-0.0971 0.009,-0.27354 -0.003,-0.3923 -0.012,-0.11876 -0.0278,-0.41255 -0.0351,-0.65293 -0.0201,-0.66422 -0.048,-1.27406 -0.0784,-1.70966 -0.0151,-0.21625 -0.0431,-0.63548 -0.0624,-0.93162 -0.0758,-1.16589 -0.13125,-1.9465 -0.16471,-2.31942 -0.0447,-0.4975 -0.0519,-0.55861 -0.0822,-0.69582 -0.0164,-0.0743 -0.0163,-0.17232 4.9e-4,-0.21794 0.0168,-0.0455 0.0162,-0.14285 -0.001,-0.21622 -0.0352,-0.14767 -0.0881,-0.58244 -0.18947,-1.55359 -0.0371,-0.35533 -0.0755,-0.6906 -0.0853,-0.74503 -0.01,-0.0543 -0.0229,-0.19709 -0.0292,-0.31691 -0.006,-0.12005 -0.0205,-0.26059 -0.0316,-0.3127 -0.0111,-0.0522 -0.0436,-0.31236 -0.0722,-0.5783 -0.0286,-0.26594 -0.0702,-0.58598 -0.0924,-0.71122 -0.0222,-0.12529 -0.047,-0.32426 -0.0551,-0.44231 -0.008,-0.11804 -0.0453,-0.39089 -0.0825,-0.60636 -0.0372,-0.21551 -0.0866,-0.54508 -0.10965,-0.73249 -0.12832,-1.0442 -0.98949,-6.01701 -1.03438,-5.97296 -0.0159,0.0156 -0.023,-0.0374 -0.0142,-0.1197 0.008,-0.0816 0.004,-0.16333 -0.009,-0.18202 -0.0134,-0.0183 -0.0934,-0.38665 -0.17841,-0.81778 -0.17394,-0.88183 -0.36229,-1.7642 -0.38103,-1.78506 -0.0131,-0.0147 -0.17075,-0.70495 -0.40118,-1.75742 -0.0393,-0.17927 -0.0792,-0.33469 -0.0887,-0.34529 -0.01,-0.0105 -0.0619,-0.2324 -0.11632,-0.4929 -0.0544,-0.26053 -0.10862,-0.48432 -0.12036,-0.49739 -0.0189,-0.0211 -0.0927,-0.32022 -0.23183,-0.94068 -0.0244,-0.10845 -0.0537,-0.20757 -0.0651,-0.22027 -0.0115,-0.0128 -0.0547,-0.17765 -0.0961,-0.36657 -0.0414,-0.18891 -0.0841,-0.35322 -0.0949,-0.36514 -0.0171,-0.019 -0.13619,-0.49999 -0.21444,-0.86591 -0.0149,-0.0694 -0.10386,-0.3773 -0.19779,-0.68415 -0.094,-0.30684 -0.18116,-0.59931 -0.19386,-0.64984 -0.0127,-0.0506 -0.0275,-0.10474 -0.0328,-0.12059 -0.0105,-0.0307 -0.0796,-0.29827 -0.14159,-0.5484 -0.021,-0.0844 -0.0457,-0.17186 -0.0551,-0.19415 -0.009,-0.0223 -0.0195,-0.0553 -0.0229,-0.0731 -0.003,-0.0183 -0.0181,-0.0519 -0.0331,-0.0757 -0.0151,-0.0236 -0.0228,-0.0735 -0.0173,-0.11025 0.005,-0.0367 -0.016,-0.096 -0.0476,-0.13149 -0.0317,-0.0356 -0.071,-0.14965 -0.0878,-0.25351 -0.0167,-0.10387 -0.0439,-0.2039 -0.0603,-0.22223 -0.0165,-0.0184 -0.0501,-0.11027 -0.0748,-0.20427 -0.0247,-0.0939 -0.0499,-0.18325 -0.0558,-0.19838 -0.006,-0.0152 -0.0363,-0.13289 -0.0673,-0.26177 -0.0309,-0.12893 -0.16118,-0.53822 -0.28949,-0.90951 -0.12833,-0.37125 -0.35975,-1.07921 -0.51429,-1.57319 -0.15454,-0.49399 -0.29193,-0.92179 -0.3053,-0.95068 -0.0128,-0.0294 -0.0358,-0.0927 -0.0498,-0.14203 -0.0351,-0.12332 -0.63674,-1.83898 -0.66745,-1.90341 -0.0144,-0.0279 -0.0366,-0.0919 -0.0511,-0.14079 -0.0291,-0.0979 -0.3963,-1.07765 -0.41847,-1.11673 -0.0176,-0.0297 -0.4391,-1.13807 -0.50819,-1.33416 -0.0276,-0.0779 -0.0959,-0.25145 -0.15202,-0.38542 -0.15706,-0.3748 -0.23526,-0.60784 -0.20489,-0.61068 0.0158,-0.002 0.21123,0.34656 0.43552,0.77349 0.22438,0.42683 0.43888,0.83164 0.4767,0.89953 0.0378,0.0679 0.0839,0.16013 0.10241,0.20498 0.0186,0.0448 0.0733,0.15048 0.12174,0.23478 0.0485,0.0843 0.20366,0.39593 0.34473,0.69269 0.14113,0.29671 0.28624,0.59629 0.32249,0.66575 0.21334,0.40911 0.51385,1.03813 0.7699,1.61189 0.46084,1.03269 1.14893,2.43748 1.31712,2.68898 0.0956,0.14288 0.20226,0.31312 0.23712,0.37826 0.1671,0.31212 0.73567,0.9766 1.06095,1.23954 0.40451,0.32721 0.68684,0.42045 1.69219,0.55887 1.2466,0.17162 3.98727,0.4911 4.62058,0.53863 0.92729,0.0696 1.18262,0.17476 1.72647,0.71119 0.41948,0.41391 0.85541,1.03818 1.04403,1.49559 0.0186,0.0448 0.0761,0.15546 0.12803,0.24582 0.15769,0.27447 0.41885,0.92253 0.57969,1.43845 0.0838,0.26859 0.16975,0.52279 0.19112,0.56482 0.021,0.0424 0.0354,0.0797 0.0312,0.0838 -0.004,0.004 0.009,0.0431 0.0284,0.0867 0.1607,0.35384 1.90079,5.83083 1.99398,6.27621 0.024,0.11516 0.0909,0.34843 0.14847,0.51849 0.10976,0.32403 0.16165,0.53542 0.28729,1.16913 0.0844,0.42578 0.0913,0.48519 0.12448,1.07983 0.0128,0.22855 0.0377,0.43164 0.0553,0.45135 0.0177,0.0196 -0.009,0.38215 -0.0587,0.80531 -0.10915,0.9248 -0.26474,1.33069 -0.71885,1.87535 -0.82795,0.99292 -2.0891,2.62562 -3.20507,4.14927 -0.76351,1.04242 -0.82452,1.13732 -0.9678,1.50544 -0.11664,0.29966 -0.3474,1.85773 -0.28538,1.92678 0.0167,0.0186 0.0396,0.2264 0.0509,0.46162 0.0113,0.23524 0.0389,0.5579 0.0613,0.71705 0.0223,0.15921 0.0575,0.43399 0.0781,0.61074 0.0456,0.39271 0.12417,0.82041 0.16266,0.88573 0.016,0.0263 0.0219,0.11511 0.0139,0.19643 -0.008,0.0816 -1.9e-4,0.13378 0.0178,0.11614 0.0416,-0.0408 0.69448,3.75396 0.80376,4.67184 0.0224,0.18807 0.0591,0.46133 0.0816,0.6073 0.0224,0.14599 0.0473,0.32804 0.0553,0.40459 0.008,0.0765 0.0472,0.38175 0.0872,0.67816 0.04,0.29642 0.0862,0.64608 0.10254,0.77705 0.0163,0.13107 0.044,0.34439 0.0615,0.47424 0.0175,0.12995 0.0395,0.33167 0.0488,0.44851 0.009,0.11692 0.034,0.33322 0.0548,0.48085 0.0207,0.14766 0.0595,0.43613 0.086,0.64115 0.0265,0.20502 0.0586,0.44844 0.0714,0.54091 0.0128,0.0925 0.0293,0.26526 0.0368,0.38392 0.008,0.11848 0.0228,0.25829 0.0341,0.31021 0.0166,0.0764 0.16756,1.53663 0.21859,2.11486 0.007,0.0773 0.0215,0.20035 0.0326,0.27346 0.0112,0.0731 0.0281,0.27986 0.0376,0.45954 0.01,0.17952 0.0304,0.38395 0.0464,0.45401 0.016,0.0701 0.0151,0.18684 -0.002,0.2595 -0.017,0.0727 -0.0149,0.14979 0.005,0.1714 0.0196,0.0218 0.0368,0.14621 0.0385,0.27646 0.002,0.1302 0.0205,0.35768 0.0419,0.50525 0.0555,0.38276 0.18347,1.11232 0.2001,1.14115 0.008,0.0129 0.0472,0.18084 0.0879,0.372 0.0625,0.2947 0.11843,0.4723 0.2662,0.84613 0.0118,0.0304 0.0309,0.0633 0.042,0.0734 0.0109,0.0104 0.0298,0.0816 0.0413,0.15901 0.0413,0.27682 0.41815,0.88004 0.77508,1.24057 0.39968,0.40369 1.14314,1.11843 1.31221,1.26157 0.0763,0.0638 0.31571,0.28588 0.53313,0.49254 0.21742,0.20665 0.48726,0.45733 0.59984,0.55685 0.11266,0.0995 0.43245,0.38702 0.71079,0.63888 0.74961,0.67821 0.9787,0.88138 1.1448,1.01481 0.0823,0.0663 0.25101,0.20996 0.37466,0.31962 0.12373,0.10959 0.42061,0.36809 0.65965,0.57451 0.23905,0.20643 0.51955,0.49818 0.62335,0.64835 0.56841,0.8223 1.00876,2.50453 1.05954,4.04784 0.0262,0.79686 -0.10171,4.59269 -0.18999,5.63731 -0.031,0.36702 -0.0836,1.08926 -0.1168,1.60492 -0.12919,2.00508 -0.17399,2.31355 -0.45109,3.10605 -0.29974,0.85731 -0.66271,1.3831 -1.13869,1.6495 -0.11597,0.0649 -0.61849,0.17818 -1.11663,0.25157 -0.49813,0.0735 -0.95797,0.14386 -1.02185,0.15637 -0.064,0.0127 -0.24646,0.0476 -0.40572,0.078 -0.15928,0.0302 -0.40904,0.0808 -0.55506,0.11228 -0.14607,0.0309 -0.34392,0.0711 -0.43977,0.0879 -0.24355,0.0431 -0.39517,0.0736 -0.96293,0.19388 -0.2729,0.0581 -0.62805,0.13143 -0.7892,0.16365 -0.16113,0.0326 -0.48846,0.11311 -0.72734,0.1793 -0.41491,0.11542 -0.4512,0.13745 -0.81092,0.49312 -0.31628,0.31168 -0.40371,0.43413 -0.54499,0.75573 -0.19149,0.43595 -0.51226,1.38858 -0.59442,1.76525 -0.0712,0.32636 -0.37314,1.82849 -0.40357,2.00764 -0.0128,0.0756 -0.069,0.34082 -0.1248,0.58934 -0.0558,0.24852 -0.16828,0.75416 -0.24997,1.12366 -0.0817,0.3695 -0.2136,0.94188 -0.29312,1.27196 -0.0795,0.33009 -0.18281,0.77125 -0.22951,0.98033 -0.39967,1.78898 -1.21931,4.74636 -1.91785,6.91974 -0.68807,2.1409 -0.84654,3.39841 -0.58385,4.63302 0.0545,0.25601 0.92487,2.43563 1.15459,2.89126 0.0326,0.0647 0.10075,0.21462 0.15116,0.33317 0.0506,0.11839 0.13532,0.31015 0.18831,0.42615 0.0531,0.11593 0.28374,0.64802 0.51264,1.18236 0.22889,0.53435 0.4462,1.02561 0.48291,1.09169 0.0367,0.066 0.17218,0.36029 0.30101,0.65391 0.12889,0.29354 0.25853,0.57871 0.28819,0.63361 0.0296,0.0549 0.11794,0.2432 0.19602,0.4186 0.0781,0.17539 0.17215,0.37521 0.20903,0.44401 0.72025,1.34598 0.83244,2.82251 0.33822,4.45176 -0.23196,0.76462 -1.59347,3.54505 -2.55038,5.20829 -0.21341,0.37092 -0.48203,0.855 -0.59692,1.07573 -0.28916,0.55549 -0.82382,1.30645 -1.17837,1.65502 -0.22608,0.22191 -0.39353,0.33401 -0.69935,0.46713 -0.75468,0.3284 -1.08774,0.26547 -2.19292,-0.41532 -0.83845,-0.51637 -2.99037,-1.77891 -3.65254,-2.14297 -0.27429,-0.15082 -0.73275,-0.40537 -1.01876,-0.56568 -0.80838,-0.45315 -1.099,-0.54884 -1.5015,-0.49453 -0.37787,0.051 -0.94415,0.31626 -1.35255,0.63354 -0.30903,0.24002 -1.30133,1.35429 -1.81149,2.03436 -0.23711,0.31603 -1.99289,2.14593 -3.15449,3.28774 -1.30469,1.28185 -2.41302,2.27773 -3.26783,2.93477 -0.65548,0.50372 -0.84067,0.68753 -1.20744,1.19782 -0.69547,0.96862 -0.90059,1.73977 -0.83521,3.14017 0.0197,0.42121 0.0411,0.78769 0.0475,0.81439 0.007,0.0265 0.0285,0.41327 0.0489,0.85902 0.0204,0.44576 0.0433,0.81737 0.0509,0.82579 0.008,0.008 0.0212,0.23391 0.0304,0.50102 0.009,0.26716 0.0239,0.49384 0.0329,0.50377 0.009,0.01 0.0324,0.28548 0.0522,0.61223 0.0198,0.32677 0.0569,0.86568 0.0826,1.19754 0.0256,0.33189 0.0538,0.7167 0.0625,0.85518 0.0432,0.68709 0.16486,1.99472 0.18802,2.0205 0.0695,0.0773 -0.1234,1.23054 -0.26853,1.6054 -0.21315,0.5506 -0.64934,1.16548 -1.07626,1.51719 -0.29254,0.24096 -1.51345,0.90564 -2.4423,1.32956 -0.1819,0.0829 -0.55307,0.25365 -0.82491,0.37921 -0.27181,0.12564 -1.03837,0.44006 -1.70339,0.69884 -1.59133,0.61923 -2.0858,0.66074 -3.01121,0.25282 -0.4274,-0.1884 -1.03233,-0.74274 -1.21644,-1.11467 -0.056,-0.11309 -0.17701,-0.32078 -0.26892,-0.4616 -0.0919,-0.14081 -0.16876,-0.27161 -0.17089,-0.29051 -0.002,-0.0192 -0.0818,-0.15155 -0.17718,-0.29465 -0.0954,-0.14305 -0.2016,-0.31239 -0.23589,-0.3764 -0.0343,-0.0641 -0.10997,-0.1913 -0.16807,-0.28298 -0.058,-0.0917 -0.29917,-0.47505 -0.53618,-0.85149 -0.75567,-1.20086 -1.11234,-1.76207 -1.27041,-1.99895 -0.1805,-0.27067 -0.32889,-0.50374 -0.44839,-0.70549 -0.0472,-0.0797 -0.15643,-0.24743 -0.24275,-0.37273 -0.0863,-0.1253 -0.19572,-0.29286 -0.24324,-0.37225 -0.0852,-0.14243 -0.2354,-0.36455 -0.69841,-1.0329 -0.29935,-0.43202 -0.55384,-0.66122 -0.97924,-0.88154 -0.5162,-0.26751 -1.13692,-0.40407 -1.7143,-0.37718 -0.80234,0.0373 -3.10523,-0.15958 -3.89387,-0.33295 -0.10484,-0.023 -0.23584,-0.0492 -0.29099,-0.0581 -0.19224,-0.0309 -1.31259,-0.25529 -1.80952,-0.36236 -0.81633,-0.17589 -1.17593,-0.26488 -2.64113,-0.65354 -2.31962,-0.61531 -3.41176,-1.01523 -6.88529,-2.52125 -0.19292,-0.0837 -0.54696,-0.2517 -0.78669,-0.37345 -0.2397,-0.12178 -0.70543,-0.35202 -1.03489,-0.51171 -0.32941,-0.15971 -0.95043,-0.49532 -1.37994,-0.74583 -0.42951,-0.25051 -0.93825,-0.54163 -1.13053,-0.64693 -0.37923,-0.20765 -0.65179,-0.37632 -1.6942,-1.04836 -0.37452,-0.24149 -0.81041,-0.5182 -0.96861,-0.61495 -0.50504,-0.30888 -2.625177,-1.7989 -3.015369,-2.11917 -0.317161,-0.26032 -0.635313,-0.50535 -0.937275,-0.72208 -0.19778,-0.14192 -0.479682,-0.36356 -0.626357,-0.49263 -0.146677,-0.12907 -0.486998,-0.41366 -0.756149,-0.63254 -0.269168,-0.21888 -0.601048,-0.49457 -0.737425,-0.61274 -0.136415,-0.11813 -0.297119,-0.25252 -0.35732,-0.29845 -0.0602,-0.0459 -0.262718,-0.22519 -0.450231,-0.39821 -0.187502,-0.17299 -0.525069,-0.47748 -0.750141,-0.67661 -0.559789,-0.49505 -1.375691,-1.26581 -2.121369,-2.00383 -1.163732,-1.15182 -3.61749,-3.72639 -3.610959,-3.78881 z M 84.988173,270.6699 c 3.06e-4,-0.0115 -0.484328,-0.59311 -1.078146,-1.29142 -1.294048,-1.5217 -1.488955,-1.76419 -2.487906,-3.09515 -0.473019,-0.63013 -1.027273,-1.3929 -1.182431,-1.62706 -0.104309,-0.15748 -0.40409,-0.58899 -0.630766,-0.90836 -0.122326,-0.17231 -0.390805,-0.57048 -0.557856,-0.82718 -0.222242,-0.34178 -1.104209,-1.71242 -1.174637,-1.82564 -0.04006,-0.0657 -0.141747,-0.22364 -0.224842,-0.35211 -0.08309,-0.12847 -0.181655,-0.28951 -0.218887,-0.35797 -0.03732,-0.0684 -0.09229,-0.16907 -0.122249,-0.2237 -0.02997,-0.0546 -0.114587,-0.19492 -0.188145,-0.31175 -0.07355,-0.11683 -0.163329,-0.26927 -0.199767,-0.33853 -0.03628,-0.0694 -0.120432,-0.21021 -0.187018,-0.31287 -0.06667,-0.10258 -0.147129,-0.23841 -0.178715,-0.30193 -0.03164,-0.0634 -0.08349,-0.16722 -0.115079,-0.23073 -0.03148,-0.0636 -0.118392,-0.2103 -0.192984,-0.32609 -0.156993,-0.24383 -0.537077,-0.93937 -1.100274,-2.0132 -0.218183,-0.41593 -0.420535,-0.80158 -0.449744,-0.85692 -0.05626,-0.10668 -0.229116,-0.43632 -0.251095,-0.47909 -0.0069,-0.0144 -0.06725,-0.12686 -0.133463,-0.25088 -0.06623,-0.12402 -0.125375,-0.23781 -0.131615,-0.25269 -0.006,-0.0151 -0.04435,-0.0978 -0.08474,-0.18414 -0.04039,-0.0863 -0.132486,-0.28808 -0.204509,-0.44843 -0.0721,-0.16027 -0.161367,-0.34759 -0.198321,-0.41634 -0.03702,-0.0686 -0.167577,-0.33577 -0.290037,-0.59363 -0.122455,-0.25785 -0.273546,-0.57352 -0.3357,-0.70154 -0.06212,-0.12807 -0.200088,-0.43943 -0.306523,-0.692 -0.106392,-0.25263 -0.236173,-0.53477 -0.288295,-0.62709 -0.05208,-0.0924 -0.09699,-0.19422 -0.09962,-0.22652 -0.0027,-0.0322 -0.0306,-0.11086 -0.06208,-0.17461 -0.09834,-0.19894 -0.130716,-0.27295 -0.122903,-0.28062 0.004,-0.004 -0.0116,-0.0486 -0.03526,-0.099 -0.02356,-0.0504 -0.06206,-0.13289 -0.08563,-0.18325 -0.02356,-0.0504 -0.03937,-0.095 -0.03526,-0.099 0.0091,-0.009 -0.03615,-0.10943 -0.13354,-0.29872 -0.0538,-0.10463 -0.314731,-0.75275 -0.449037,-1.11517 -0.01093,-0.0312 -0.05353,-0.12694 -0.09363,-0.21361 -0.04001,-0.0868 -0.09593,-0.22088 -0.124141,-0.2982 -0.02824,-0.0772 -0.09665,-0.25073 -0.151896,-0.38552 -0.05527,-0.13478 -0.193196,-0.49775 -0.306431,-0.80666 -0.265176,-0.72329 -0.637561,-1.73083 -0.652503,-1.76533 -0.006,-0.0151 -0.02311,-0.0671 -0.03731,-0.11613 -0.01407,-0.0492 -0.07902,-0.22603 -0.14413,-0.39315 -0.06517,-0.16706 -0.129983,-0.34403 -0.144123,-0.39315 -0.01401,-0.0491 -0.0347,-0.10344 -0.04564,-0.12069 -0.01172,-0.0164 -0.01568,-0.0613 -0.01013,-0.0982 0.0055,-0.037 -0.0109,-0.0901 -0.03637,-0.11845 -0.02542,-0.0284 -0.06672,-0.12813 -0.09167,-0.22189 -0.02506,-0.0937 -0.05644,-0.19397 -0.06989,-0.22278 -0.01278,-0.0294 -0.08996,-0.26302 -0.170249,-0.52025 -0.08018,-0.25736 -0.153735,-0.48552 -0.163422,-0.50708 -0.01,-0.0212 -0.02985,-0.0809 -0.04481,-0.13156 -0.01502,-0.0508 -0.193603,-0.64052 -0.396998,-1.31045 -0.203394,-0.66994 -0.425709,-1.42097 -0.494019,-1.66898 -0.06831,-0.24799 -0.165661,-0.59922 -0.21634,-0.78051 -0.05075,-0.18122 -0.117822,-0.44189 -0.149221,-0.5791 -0.03139,-0.13721 -0.08019,-0.30971 -0.108446,-0.38332 -0.02822,-0.0736 -0.0752,-0.23376 -0.104346,-0.35584 -0.02915,-0.12207 -0.05874,-0.23348 -0.06572,-0.24764 -0.0068,-0.0143 -0.04322,-0.1676 -0.08076,-0.34079 -0.09978,-0.46209 -0.143947,-0.64728 -0.250868,-1.05212 -0.05288,-0.20014 -0.137457,-0.5639 -0.187975,-0.80837 -0.05055,-0.24442 -0.09818,-0.45543 -0.1059,-0.46885 -0.0084,-0.0127 -0.05324,-0.21792 -0.101168,-0.45441 -0.160614,-0.7929 -0.259077,-1.25127 -0.277559,-1.29204 -0.05022,-0.11095 -0.779518,-4.40268 -0.892759,-5.25395 -0.02721,-0.20433 -0.07485,-0.53562 -0.10594,-0.73613 -0.0311,-0.20051 -0.06308,-0.46125 -0.07111,-0.5794 -0.008,-0.11813 -0.02333,-0.25777 -0.03401,-0.31029 -0.01069,-0.0526 -0.04254,-0.31338 -0.07074,-0.57975 -0.02821,-0.26635 -0.06037,-0.52692 -0.07146,-0.57904 -0.01103,-0.0521 -0.0252,-0.19292 -0.03152,-0.31274 -0.0062,-0.11994 -0.02078,-0.26028 -0.03229,-0.31199 -0.01152,-0.0517 -0.03292,-0.25409 -0.04757,-0.44975 -0.01467,-0.19562 -0.03499,-0.39908 -0.04521,-0.45204 -0.0228,-0.11838 -0.03465,-0.26249 -0.06491,-0.79183 -0.01296,-0.2268 -0.0314,-0.42107 -0.04097,-0.43173 -0.0096,-0.0106 -0.027,-0.21693 -0.03872,-0.4584 -0.01172,-0.24146 -0.03598,-0.45533 -0.05389,-0.47528 -0.0179,-0.0199 -0.01764,-0.11313 5.79e-4,-0.20705 0.01821,-0.094 0.01821,-0.18745 -7e-5,-0.2078 -0.01831,-0.0204 -0.03127,-0.15159 -0.02885,-0.29164 0.0024,-0.14007 -0.0094,-0.27003 -0.02626,-0.2888 -0.01683,-0.0188 -0.02208,-0.11352 -0.01151,-0.21062 0.01054,-0.0971 0.0096,-0.27328 -0.0021,-0.39164 -0.02989,-0.30319 -0.07907,-1.63391 -0.06923,-1.87271 0.0046,-0.10951 -0.0049,-0.2147 -0.021,-0.23385 -0.01606,-0.0191 -0.02121,-0.1895 -0.01148,-0.37847 0.0098,-0.18904 0.008,-0.35446 -0.0039,-0.36773 -0.02264,-0.0252 -0.02987,-0.78409 -0.01379,-1.45285 0.0052,-0.2151 0.0019,-0.48683 -0.0073,-0.60383 -0.0092,-0.11702 0.0029,-0.73032 0.02687,-1.36293 0.02395,-0.63258 0.03687,-1.24669 0.02868,-1.36468 -0.01754,-0.25338 0.02401,-1.13595 0.06032,-1.2812 0.01396,-0.0556 0.05415,-0.62788 0.08942,-1.27157 0.0654,-1.19407 0.07452,-1.30068 0.270767,-3.1631 0.178467,-1.69366 0.497101,-4.03774 0.641699,-4.72077 0.02203,-0.10401 0.346267,-1.79325 0.388349,-2.02322 0.04803,-0.26247 0.147837,-0.71781 0.319887,-1.45944 0.09458,-0.40779 0.174348,-0.7622 0.177234,-0.78754 0.003,-0.0254 0.05164,-0.22793 0.108371,-0.45021 0.05671,-0.22227 0.111896,-0.4545 0.122631,-0.51607 0.04643,-0.26622 0.895397,-3.19637 1.073815,-3.70617 0.107849,-0.30817 0.196382,-0.58333 0.196752,-0.61149 0.0012,-0.0912 0.871816,-2.47929 1.144151,-3.13835 0.748779,-1.81205 1.63308,-3.79439 1.739013,-3.89836 0.01232,-0.012 0.123938,0.11892 0.249549,0.28966 0.247736,0.34133 0.550415,0.75158 0.882254,1.19615 0.117517,0.15768 0.309117,0.41642 0.425507,0.5752 0.116476,0.15872 0.338223,0.45659 0.492946,0.66177 0.154724,0.20518 0.337794,0.4551 0.406964,0.55523 0.06916,0.10013 0.292239,0.39459 0.49593,0.65412 0.38753,0.49394 0.488226,0.74798 0.448216,1.13045 -0.05931,0.5664 -0.101702,1.41818 -0.379658,7.62819 -0.3191,7.12926 -0.851853,18.96895 -1.474151,32.76038 -0.211203,4.68093 -0.401627,8.96771 -0.423151,9.52618 l -0.03912,1.01541 0.423587,0.4784 c 0.233138,0.26296 0.47328,0.54992 0.534035,0.63731 0.06107,0.0871 0.523675,0.64689 1.028958,1.24307 0.505209,0.59627 1.022409,1.22278 1.149148,1.39242 0.126905,0.16948 0.587732,0.73103 1.024132,1.24782 0.436393,0.51679 0.90736,1.08557 1.046541,1.264 0.139262,0.17834 0.633792,0.77555 1.099056,1.32702 0.465345,0.55138 0.942816,1.13095 1.061145,1.28784 0.118404,0.15682 0.602558,0.74704 1.076151,1.31131 0.473605,0.5643 0.929211,1.11378 1.01267,1.22089 0.178394,0.22883 0.244518,0.25504 0.264559,0.10369 0.0081,-0.0607 0.116261,-2.37539 0.240585,-5.14378 l 0.226033,-5.03343 -0.275822,-0.60757 c -0.151723,-0.33414 -0.30872,-0.68699 -0.348907,-0.78407 -0.04021,-0.0971 -0.106386,-0.25548 -0.147152,-0.35198 -0.102423,-0.24248 -0.725637,-1.88056 -0.777471,-2.04364 -0.08984,-0.2825 -0.279317,-0.83191 -0.303232,-0.87926 -0.01623,-0.0299 -0.04942,-0.13788 -0.07542,-0.23838 -0.026,-0.1005 -0.05972,-0.20487 -0.07486,-0.23202 -0.0152,-0.0271 -0.03087,-0.0804 -0.03473,-0.11866 -0.0062,-0.0603 -0.142963,-0.47942 -0.179261,-0.5496 -0.0068,-0.0143 -0.03642,-0.12273 -0.06483,-0.24186 -0.02837,-0.11917 -0.08859,-0.31782 -0.133688,-0.44159 -0.04516,-0.12369 -0.08208,-0.2593 -0.08222,-0.30117 -5.2e-5,-0.0419 -0.03114,-0.14199 -0.06904,-0.22234 -0.03783,-0.0804 -0.102479,-0.31953 -0.143628,-0.5314 -0.04114,-0.21187 -0.108204,-0.47946 -0.149096,-0.5946 -0.04085,-0.11518 -0.120908,-0.42139 -0.17783,-0.68055 -0.05695,-0.25914 -0.126557,-0.56889 -0.154728,-0.68826 -0.06028,-0.25568 -0.562106,-3.00548 -0.5853,-3.20751 -0.0087,-0.0763 -0.06572,-0.53584 -0.126593,-1.02134 -0.06088,-0.48551 -0.117396,-0.97926 -0.125593,-1.09724 -0.0082,-0.11797 -0.02664,-0.32326 -0.04098,-0.45621 -0.04611,-0.42739 -0.08914,-1.2151 -0.07445,-1.3632 0.0078,-0.079 0.0027,-0.21824 -0.0114,-0.3093 -0.0751,-0.48459 0.03555,-3.48702 0.164364,-4.45986 0.05615,-0.4241 0.10183,-0.79656 0.101476,-0.82763 -3.32e-4,-0.0311 0.07838,-0.43575 0.174933,-0.89924 0.228468,-1.09666 0.278205,-1.31611 0.304086,-1.34152 0.01184,-0.0119 0.09062,-0.24245 0.175222,-0.51311 0.243095,-0.77763 0.617533,-1.60521 1.061709,-2.34654 0.358501,-0.59833 0.472281,-0.74641 0.902819,-1.17495 0.270946,-0.26967 0.636758,-0.58677 0.812923,-0.70469 0.371329,-0.2484 1.196881,-0.63988 1.242456,-0.58914 0.01707,0.019 0.06368,0.003 0.103548,-0.0366 0.08328,-0.0818 1.098885,-0.19631 1.538474,-0.17353 0.46227,0.0239 0.94846,0.14086 1.649984,0.39682 0.355694,0.12977 0.681245,0.25701 0.723443,0.28278 0.04221,0.0257 0.201687,0.11318 0.354537,0.19419 0.307073,0.16303 1.076171,0.67911 1.409552,0.94588 0.117812,0.0944 0.264289,0.20837 0.325209,0.2536 0.554767,0.4102 2.647509,2.66449 3.190443,3.43663 0.148521,0.21128 0.335443,0.47459 0.415364,0.58518 0.07983,0.11066 0.192626,0.27489 0.250319,0.36529 0.05785,0.0902 0.243311,0.37217 0.412406,0.62626 0.28847,0.43393 0.739695,1.1749 0.887742,1.45805 0.03628,0.0694 0.149441,0.26765 0.251499,0.44052 0.101977,0.17295 0.222609,0.39822 0.268123,0.50057 0.04536,0.10249 0.112381,0.24293 0.148813,0.31218 0.03644,0.0692 0.10217,0.19375 0.145971,0.27678 0.103468,0.19604 0.462187,0.88772 0.511817,0.98693 0.0434,0.0866 0.852223,1.90319 0.958417,2.15242 0.03792,0.0888 0.176416,0.4512 0.307913,0.80521 0.131531,0.35394 0.267068,0.6988 0.301294,0.76621 0.03424,0.0673 0.07162,0.18539 0.08305,0.26217 0.01143,0.0767 0.02604,0.13446 0.0324,0.12821 0.01482,-0.0145 0.04761,0.0721 0.199339,0.52302 0.06802,0.20246 0.136334,0.39318 0.151806,0.4238 0.01623,0.0299 0.04942,0.13788 0.07541,0.23838 0.026,0.10049 0.05972,0.20487 0.07486,0.23202 0.0152,0.0271 0.03087,0.0804 0.03483,0.11861 0.0059,0.0566 0.132751,0.44929 0.177995,0.55085 0.006,0.0152 0.0215,0.0686 0.03322,0.12019 0.01182,0.0515 0.11247,0.3994 0.223781,0.77321 0.189111,0.63509 0.487526,1.73364 0.548707,2.01997 0.0149,0.0694 0.06111,0.2646 0.10276,0.43375 0.138749,0.56308 0.642468,3.33882 0.632332,3.48446 -0.0055,0.0789 0.0073,0.12643 0.02849,0.10563 0.02119,-0.0208 0.03535,0.0161 0.03171,0.0817 -0.0039,0.0658 0.01818,0.27619 0.04884,0.46758 0.07629,0.47632 0.116726,0.81354 0.182766,1.52455 0.0464,0.4993 0.0849,1.08339 0.11258,1.70641 0.0175,0.39559 0.0364,0.77093 0.0419,0.83413 0.0116,0.13185 0.007,1.26347 -0.008,2.00962 -0.006,0.27858 -0.0253,0.64158 -0.044,0.80693 -0.0186,0.16534 -0.047,0.46809 -0.063,0.6728 -0.0506,0.64918 -0.146903,1.34106 -0.299725,2.15441 -0.191791,1.02082 -0.22073,1.13547 -0.513681,2.0356 -0.662191,2.03456 -1.610045,3.48382 -2.802549,4.28504 -0.33463,0.22491 -0.998169,0.52848 -1.486422,0.6802 -0.196007,0.0609 -0.200872,0.0668 -0.228047,0.27896 -0.01523,0.11923 -0.162376,3.23107 -0.326863,6.91529 -0.183865,4.11818 -0.270527,6.76283 -0.224979,6.86537 0.04082,0.0917 0.451585,0.62111 0.913063,1.17629 0.461398,0.55526 0.916359,1.10538 1.011053,1.22246 0.09461,0.11716 0.483551,0.5946 0.864266,1.06104 0.380715,0.46643 0.807529,0.99263 0.948321,1.16948 0.141282,0.17638 0.538823,0.66256 0.884352,1.07952 0.345604,0.41688 0.797304,0.97029 1.003973,1.22959 0.206748,0.25923 0.617638,0.76669 0.913398,1.12738 0.29567,0.36079 0.6446,0.79149 0.77546,0.95711 0.13125,0.1652 0.34593,0.42465 0.47786,0.57577 l 0.23949,0.27512 -0.13178,2.97961 c -0.0725,1.6388 -0.14606,3.0051 -0.16356,3.03627 -0.0175,0.0312 -0.0545,0.0313 -0.0824,1.6e-4 -0.0279,-0.031 -0.2776,-0.14085 -0.55516,-0.24391 -0.27747,-0.10315 -0.53604,-0.20829 -0.57462,-0.23367 -0.0384,-0.0255 -0.23938,-0.12056 -0.44628,-0.21151 -0.20682,-0.0911 -0.514512,-0.23583 -0.683559,-0.32193 -0.169038,-0.0861 -0.428283,-0.20972 -0.576076,-0.27469 -0.250446,-0.11003 -0.711116,-0.34897 -0.724517,-0.37576 -0.0033,-0.005 -0.08205,-0.0495 -0.175205,-0.0953 -0.404738,-0.19976 -1.779117,-0.99118 -2.391637,-1.37716 -0.03921,-0.0246 -0.231044,-0.14554 -0.426553,-0.2687 -0.195487,-0.12316 -0.414843,-0.26871 -0.487431,-0.3235 -0.07261,-0.0546 -0.28903,-0.20318 -0.481126,-0.32968 -0.192023,-0.12656 -0.398015,-0.26805 -0.457781,-0.31441 -0.0602,-0.0459 -0.282774,-0.2055 -0.495648,-0.35362 -0.212801,-0.14817 -0.446071,-0.31443 -0.518282,-0.36958 -0.176372,-0.13478 -0.499681,-0.38211 -0.633968,-0.48516 -0.158701,-0.12169 -0.824741,-0.64725 -0.949013,-0.74874 -0.05835,-0.0478 -0.229912,-0.18865 -0.381187,-0.31322 -0.151349,-0.12447 -0.304094,-0.24949 -0.339898,-0.27738 -0.0637,-0.0498 -0.443503,-0.37349 -0.770873,-0.65628 -0.09099,-0.0787 -0.310166,-0.27599 -0.486687,-0.43878 -0.17667,-0.16263 -0.404774,-0.36835 -0.507002,-0.45704 -0.551722,-0.47846 -1.335078,-1.25578 -2.57316,-2.55322 -0.538222,-0.56386 -1.046008,-1.0874 -1.128625,-1.16318 -0.0831,-0.0754 -0.149608,-0.14751 -0.149043,-0.1592 z m 19.653747,12.27784 c 0.0249,-0.54493 0.0357,-1.05389 0.0241,-1.13107 -0.0117,-0.0771 0.0155,-0.94127 0.0602,-1.92021 0.0691,-1.5113 0.10028,-1.79098 0.20672,-1.85324 0.11917,-0.0698 0.6849,-0.33153 1.48756,-0.68842 0.58971,-0.26223 1.66351,-0.76465 1.90389,-0.89086 0.12198,-0.0641 0.44913,-0.21336 0.72702,-0.33183 0.27791,-0.11844 0.75242,-0.33759 1.05453,-0.48694 0.30212,-0.14929 0.58488,-0.27872 0.6284,-0.2875 0.0435,-0.009 0.23701,-0.097 0.42996,-0.19612 0.19297,-0.099 0.60151,-0.29101 0.90788,-0.42654 0.30637,-0.13553 0.56918,-0.25837 0.58401,-0.27292 0.0148,-0.0145 0.30985,-0.14949 0.6556,-0.29982 0.34574,-0.15031 0.65724,-0.30143 0.6922,-0.33575 0.035,-0.0343 0.0993,-0.067 0.14289,-0.0727 0.0436,-0.006 0.43291,-0.17725 0.86511,-0.38119 0.4322,-0.20398 0.9729,-0.45494 1.20157,-0.55771 0.22867,-0.10273 0.67423,-0.30744 0.99015,-0.45481 0.31591,-0.14738 0.80373,-0.36923 1.08408,-0.49306 0.28028,-0.12382 0.52586,-0.241 0.54564,-0.26041 0.0198,-0.0195 0.25064,-0.12983 0.51297,-0.24541 0.26235,-0.11551 0.8924,-0.40162 1.40013,-0.63569 0.50773,-0.23407 1.10204,-0.50669 1.32073,-0.60582 0.21869,-0.0991 0.54562,-0.25595 0.72656,-0.34849 0.18094,-0.0926 0.54991,-0.2657 0.81991,-0.38481 0.85101,-0.37539 2.24876,-1.01313 2.27325,-1.03717 0.013,-0.0132 0.21431,-0.1073 0.44755,-0.21016 0.23325,-0.10285 0.438,-0.2008 0.45508,-0.21755 0.0171,-0.0168 0.25193,-0.12444 0.52193,-0.23937 0.27001,-0.11489 0.75411,-0.33621 1.07584,-0.49189 0.32173,-0.15561 0.91241,-0.43234 1.31263,-0.61482 0.40021,-0.18251 1.00881,-0.46257 1.35246,-0.6224 1.52581,-0.70964 1.7713,-0.82287 2.24161,-1.03392 0.72967,-0.32742 1.39194,-0.63179 1.40403,-0.64524 0.0405,-0.046 0.83602,-0.41379 1.79283,-0.8304 0.80547,-0.3507 0.8987,-0.4093 0.93306,-0.58644 0.0168,-0.0866 0.0159,-0.1738 -0.002,-0.19374 -0.0507,-0.0565 0.14076,-4.06625 0.21875,-4.58162 0.0382,-0.25253 0.14792,-2.16862 0.24375,-4.25798 0.0958,-2.08934 0.22338,-4.85217 0.28341,-6.13963 0.06,-1.28741 0.0864,-2.36614 0.0586,-2.3971 -0.0278,-0.031 -0.0987,-0.0282 -0.15764,0.006 -0.15926,0.0929 -0.74716,0.36641 -1.46323,0.68072 -0.34944,0.15342 -0.91625,0.40991 -1.25959,0.57008 -0.34333,0.16012 -0.78926,0.36444 -0.99092,0.45395 -0.20163,0.0896 -0.64998,0.2911 -0.99626,0.44798 -0.34628,0.15685 -0.68451,0.30523 -0.75162,0.32966 -0.0671,0.0245 -0.14325,0.0652 -0.1692,0.0907 -0.0754,0.074 -0.76358,2.20447 -0.84666,2.62086 -0.0164,0.0818 -0.0438,0.16243 -0.0611,0.17937 -0.0172,0.0169 -0.19233,0.51109 -0.38907,1.09812 -0.69479,2.07314 -1.19956,3.10078 -2.45984,5.00775 -1.22075,1.84714 -3.09498,3.62753 -4.79499,4.55491 -0.45835,0.25003 -1.61875,0.76117 -1.71475,0.75532 -0.029,-0.002 -0.18581,0.0355 -0.34843,0.0827 -0.1626,0.047 -0.45098,0.10689 -0.64074,0.13325 -0.18979,0.026 -0.43182,0.0601 -0.53786,0.076 -0.10609,0.0159 -0.33366,0.0261 -0.50575,0.023 -0.17215,-0.003 -0.42147,-5.3e-4 -0.55415,0.006 -0.29674,0.0144 -0.45769,-0.002 -0.64434,-0.0664 -0.079,-0.0272 -0.24285,-0.0555 -0.36391,-0.0629 -0.34835,-0.0212 -1.60506,-0.45972 -1.9233,-0.67105 -0.0895,-0.0593 -0.19164,-0.11298 -0.22713,-0.11941 -0.0358,-0.006 -0.0935,-0.0353 -0.1286,-0.0647 -0.0353,-0.0291 -0.25652,-0.19063 -0.49217,-0.35838 -0.23559,-0.16781 -0.5878,-0.44075 -0.78273,-0.60646 -0.35458,-0.30131 -1.48527,-1.59404 -1.70755,-1.95172 -0.50025,-0.80577 -0.69672,-1.15433 -0.88685,-1.57351 -0.23896,-0.52682 -0.27346,-0.60166 -0.35145,-0.76247 -0.0345,-0.0711 -0.18329,-0.49218 -0.33062,-0.93566 -0.14732,-0.44348 -0.27852,-0.83022 -0.29156,-0.85943 -0.0128,-0.0294 -0.0519,-0.18683 -0.0865,-0.35008 -0.0346,-0.16325 -0.073,-0.30831 -0.0854,-0.32221 -0.0125,-0.0139 -0.0772,-0.30453 -0.14382,-0.64588 -0.0666,-0.34135 -0.13227,-0.613 -0.14589,-0.60368 -0.014,0.008 -0.0215,-0.0412 -0.0172,-0.11252 0.004,-0.0713 -0.036,-0.38938 -0.0891,-0.70707 -0.0532,-0.31769 -0.0852,-0.6091 -0.0713,-0.64756 0.014,-0.0385 -0.006,-0.11315 -0.0453,-0.16555 -0.0393,-0.0521 -0.0527,-0.11323 -0.0308,-0.13474 0.0219,-0.0215 0.0196,-0.13952 -0.005,-0.26234 -0.0247,-0.12284 -0.0294,-0.23841 -0.0105,-0.25699 0.0189,-0.0186 0.0103,-0.12184 -0.0189,-0.22964 -0.0293,-0.10778 -0.0473,-0.21895 -0.04,-0.24717 0.0237,-0.0913 -0.0339,-1.22482 -0.0641,-1.26068 -0.0161,-0.019 -0.0138,-0.09 0.005,-0.1578 0.019,-0.0677 0.0298,-0.27321 0.0242,-0.45678 -0.008,-0.27126 0.0403,-1.36141 0.11355,-2.55074 0.0436,-0.70857 0.28442,-2.45341 0.37555,-2.72148 0.0315,-0.0928 0.0305,-0.17296 -0.002,-0.17828 -0.0328,-0.005 -0.0293,-0.0393 0.009,-0.0766 0.0375,-0.0368 0.0758,-0.15177 0.085,-0.25528 0.009,-0.10345 0.066,-0.40845 0.12623,-0.67761 0.0603,-0.26919 0.12467,-0.58001 0.14314,-0.69075 0.0185,-0.11066 0.0443,-0.18945 0.0573,-0.17492 0.0131,0.0146 0.0463,-0.10018 0.0739,-0.25512 0.0276,-0.15483 0.14429,-0.60754 0.2593,-1.00597 0.11501,-0.39844 0.17858,-0.72925 0.14125,-0.7351 -0.0386,-0.006 -0.0313,-0.023 0.0156,-0.0378 0.0458,-0.0153 0.12953,-0.17432 0.18581,-0.35417 0.26542,-0.84717 0.68682,-1.92125 1.22598,-3.12487 0.88354,-1.97235 2.00336,-3.81648 3.1782,-5.2339 0.61403,-0.74079 2.04683,-2.10601 2.72295,-2.59448 1.1087,-0.80096 2.44863,-1.41947 3.59934,-1.66145 0.17201,-0.0363 0.33594,-0.0886 0.36424,-0.11626 0.0283,-0.0278 0.0984,-0.0282 0.15592,-2.4e-4 0.0573,0.0278 0.13633,0.019 0.17539,-0.0193 0.0391,-0.0383 0.0854,-0.0537 0.10304,-0.0343 0.0567,0.0631 0.9498,-0.006 1.02453,-0.0798 0.042,-0.0412 0.0827,-0.0357 0.0969,0.0133 0.0136,0.0463 0.10344,0.0824 0.19959,0.0805 0.0961,-0.002 0.22061,0.0186 0.27668,0.0456 0.0622,0.0299 0.12222,0.0126 0.15395,-0.0448 0.0286,-0.0515 0.054,-0.0642 0.0575,-0.0271 0.006,0.0756 0.37319,0.21959 0.5557,0.21799 0.13786,-0.001 0.86933,0.2761 1.30454,0.4946 0.1615,0.0811 0.30072,0.12817 0.3094,0.10457 0.008,-0.0237 0.0613,0.004 0.11702,0.0604 0.12214,0.12419 0.50662,0.40109 0.77008,0.55429 0.0133,0.008 0.19751,0.17082 0.40901,0.36227 0.65121,0.58925 1.08834,1.07665 1.38451,1.54327 0.15601,0.24594 0.34436,0.54223 0.41857,0.6584 0.0741,0.11628 0.1524,0.24564 0.17411,0.28736 0.0219,0.0416 0.10457,0.18377 0.18428,0.31556 0.0797,0.13178 0.17729,0.29375 0.21679,0.36001 0.11362,0.19098 0.39328,0.60775 0.52266,0.77935 0.14108,0.18695 0.0992,0.19568 1.2163,-0.25178 0.47145,-0.18882 1.11069,-0.43364 1.42052,-0.54409 0.30983,-0.11048 0.58989,-0.22685 0.62235,-0.25871 0.0324,-0.0318 0.0805,-0.0494 0.10685,-0.0394 0.0574,0.0224 0.96258,-0.32309 1.03638,-0.39555 0.0284,-0.0279 0.16571,-0.0768 0.30516,-0.10864 0.13944,-0.0323 0.26864,-0.073 0.28705,-0.0908 0.0184,-0.018 0.15505,-0.0717 0.30366,-0.11927 0.61098,-0.19543 1.7664,-0.68269 1.77212,-0.74735 0.003,-0.038 0.16902,-3.73487 0.36809,-8.21486 0.19909,-4.48 0.37055,-8.29809 0.38104,-8.48464 0.0169,-0.30017 0.0359,-0.34546 0.16464,-0.39342 0.08,-0.0298 0.158,-0.0637 0.17324,-0.0753 0.0284,-0.0217 0.43577,-0.19015 2.06604,-0.85437 0.5214,-0.21241 0.97333,-0.41004 1.00428,-0.43907 0.031,-0.0291 0.12039,-0.0678 0.19882,-0.0859 0.13811,-0.032 0.1459,-0.0226 0.24945,0.30643 0.0588,0.18675 0.12027,0.39507 0.13659,0.46307 0.0814,0.33895 0.14706,0.57744 0.23179,0.84173 0.0513,0.15969 0.0938,0.32416 0.0946,0.36538 7.8e-4,0.0412 0.0258,0.13699 0.0553,0.21298 0.0296,0.076 0.0804,0.2495 0.113,0.38553 0.0326,0.13603 0.10076,0.39562 0.15162,0.57675 0.0922,0.32848 0.13696,0.50544 0.23202,0.91787 0.0277,0.11985 0.0744,0.31457 0.10387,0.43266 0.0295,0.11809 0.0975,0.41221 0.15106,0.65365 0.10498,0.47293 0.16707,0.72992 0.18644,0.77169 0.0188,0.04 0.22253,1.02415 0.23983,1.1574 0.008,0.0648 0.0335,0.13785 0.0557,0.16264 0.0223,0.0248 0.042,0.1433 0.0438,0.2635 0.002,0.12012 0.0195,0.2027 0.0394,0.1832 0.0197,-0.0193 0.028,0.0413 0.019,0.13412 -0.009,0.093 -6.9e-4,0.15348 0.0189,0.13426 0.0196,-0.0192 0.0525,0.0775 0.0732,0.21459 0.0207,0.13724 0.1318,0.75733 0.24712,1.37785 0.11532,0.62052 0.20697,1.17497 0.20367,1.23211 -0.003,0.057 0.0114,0.0869 0.0325,0.0661 0.0212,-0.0208 0.0359,0.0248 0.0326,0.10161 -0.009,0.22131 0.0287,0.43731 0.0885,0.50396 0.0303,0.0337 0.033,0.0833 0.006,0.11004 -0.0272,0.0267 -0.0181,0.0836 0.0204,0.1263 0.0384,0.0428 0.0575,0.10143 0.0423,0.13032 -0.0151,0.0288 0.0124,0.32257 0.0613,0.65269 0.19028,1.28726 0.21493,1.47169 0.20701,1.54959 -0.004,0.0442 0.02,0.11194 0.0544,0.15024 0.0345,0.0384 0.0514,0.0921 0.0375,0.11974 -0.0138,0.0276 -0.002,0.19094 0.0253,0.36342 0.0276,0.17246 0.0349,0.32852 0.016,0.34704 -0.0188,0.0185 2.9e-4,0.10276 0.0425,0.1874 0.0422,0.0846 0.0593,0.17095 0.0379,0.19191 -0.0213,0.0208 -0.0145,0.17661 0.0151,0.34599 0.0297,0.16934 0.0481,0.35992 0.041,0.42345 -0.007,0.0636 0.003,0.13263 0.0216,0.15379 0.0189,0.0211 0.0471,0.20579 0.0625,0.41053 0.0324,0.4283 0.0443,0.55951 0.081,0.89311 0.0146,0.13273 0.032,0.33895 0.0388,0.45836 0.007,0.11939 0.0215,0.25959 0.0328,0.31147 0.0115,0.0518 0.0236,0.19452 0.0271,0.3171 0.0103,0.35484 0.0239,0.49565 0.0675,0.699 0.0225,0.1049 0.0251,0.27193 0.006,0.37133 -0.0194,0.0995 -0.002,0.1937 0.0378,0.2096 0.0401,0.0157 0.0527,0.0485 0.0279,0.0729 -0.0392,0.0385 -6e-4,1.43985 0.0442,1.59866 0.009,0.0329 0.013,0.18889 0.008,0.34665 -0.005,0.15783 0.003,0.29925 0.0164,0.3147 0.0138,0.0154 0.0181,0.17805 0.01,0.36133 -0.009,0.18359 0.005,0.38605 0.0295,0.4504 0.0248,0.0643 0.0269,0.28265 0.005,0.48522 -0.022,0.20261 -0.01,0.40189 0.0268,0.44281 0.0367,0.0409 0.0452,0.0956 0.0189,0.12143 -0.0498,0.0488 -0.0276,0.90692 0.025,0.96556 0.0165,0.0184 0.008,0.0728 -0.0186,0.12105 -0.0527,0.0951 -0.0454,1.05365 0.008,1.11374 0.0181,0.0202 0.0127,0.16993 -0.0119,0.33262 -0.0247,0.1628 -0.0468,0.50027 -0.0491,0.74998 -0.002,0.24964 -0.005,0.54447 -0.006,0.65505 -0.004,0.46818 -0.11333,2.72069 -0.15784,3.25642 -0.0266,0.32014 -0.0452,0.69003 -0.0413,0.82197 0.004,0.13191 -0.0318,0.46981 -0.0794,0.75083 -0.0476,0.28103 -0.0656,0.59036 -0.0402,0.68747 0.0254,0.0972 0.0166,0.22468 -0.0198,0.28362 -0.0364,0.059 -0.0715,0.2578 -0.0782,0.44206 -0.007,0.18435 -0.045,0.49906 -0.0852,0.69962 -0.0402,0.20053 -0.0517,0.38834 -0.0257,0.41738 0.0261,0.029 0.02,0.133 -0.0134,0.23106 -0.0857,0.25112 -0.20139,1.24809 -0.14811,1.27611 0.0248,0.0124 0.0156,0.0514 -0.0192,0.0855 -0.0349,0.0343 -0.13007,0.54008 -0.21152,1.1241 -0.0815,0.58403 -0.16673,1.08015 -0.18954,1.10253 -0.0228,0.0224 -0.0228,0.0912 4e-5,0.15276 0.0229,0.0616 0.0154,0.13849 -0.0164,0.17058 -0.0317,0.0321 -0.10848,0.35665 -0.17049,0.72106 -0.14536,0.85408 -0.22111,1.22896 -0.35293,1.7464 -0.10539,0.41362 -0.15768,0.66724 -0.25959,1.25878 -0.0282,0.16425 -0.0632,0.3102 -0.0774,0.3242 -0.0652,0.064 -0.22219,0.72498 -0.18334,0.77185 0.0243,0.0287 0.0175,0.0783 -0.0144,0.10963 -0.10064,0.0987 -0.46515,1.54036 -0.39237,1.55179 0.0388,0.006 0.035,0.0218 -0.0103,0.0369 -0.0708,0.0234 -0.14587,0.24411 -0.44047,1.2956 -0.0428,0.15235 -0.15577,0.50529 -0.25129,0.78434 -0.0955,0.27907 -0.16041,0.52219 -0.14417,0.54027 0.0162,0.0181 0.003,0.0587 -0.0286,0.09 -0.0319,0.0313 -0.21218,0.49647 -0.40045,1.03353 -1.13306,3.23213 -2.35712,5.89504 -4.20075,9.13853 -0.18147,0.31917 -1.0511,1.67023 -1.53764,2.38876 -0.51268,0.75713 -1.70613,2.35418 -2.1193,2.83599 -0.13662,0.15931 -0.4302,0.50767 -0.65235,0.77423 -0.55043,0.66031 -3.18586,3.24784 -3.83999,3.77032 -0.28369,0.22657 -0.6365,0.51116 -0.78403,0.63239 -0.68419,0.56219 -2.71492,1.93802 -3.47808,2.35644 -1.84698,1.0126 -3.32677,1.68148 -5.00706,2.26321 -1.01584,0.35167 -3.06553,0.87052 -3.95041,0.99997 -0.2493,0.0365 -0.46747,0.0846 -0.48481,0.10701 -0.0175,0.0222 -0.11148,0.0334 -0.20913,0.0241 -0.23358,-0.0219 -1.00399,0.0822 -1.0506,0.14194 -0.02,0.0258 -0.11373,0.028 -0.20812,0.005 -0.0944,-0.0229 -0.2044,-0.009 -0.24441,0.0299 -0.04,0.0392 -0.0935,0.0482 -0.11908,0.0203 -0.0255,-0.0283 -0.26712,-0.0288 -0.53697,-9.1e-4 -0.26981,0.0279 -0.58678,0.0476 -0.70434,0.0438 -0.42258,-0.0136 -0.73968,0.0129 -0.79408,0.0663 -0.0305,0.0299 -0.0631,0.0341 -0.0726,0.009 -0.0165,-0.0435 -0.27131,-0.0664 -0.71229,-0.0641 -0.11584,5.8e-4 -0.3137,-0.009 -0.43947,-0.0221 -0.12585,-0.0127 -0.25666,0.004 -0.29085,0.0372 -0.0341,0.0335 -0.0719,0.0442 -0.0836,0.0246 -0.0587,-0.0991 -0.13144,-0.11917 -0.19717,-0.0547 -0.0441,0.0433 -0.083,0.0367 -0.0987,-0.0169 -0.0149,-0.0504 -0.0696,-0.0657 -0.12796,-0.0353 -0.0561,0.0292 -0.12374,0.0284 -0.15059,-10e-4 -0.0268,-0.0298 -0.12475,-0.0337 -0.21766,-0.009 -0.0929,0.0249 -0.17826,0.0294 -0.18957,0.01 -0.0353,-0.0608 -1.15228,-0.18499 -1.20436,-0.13386 -0.0271,0.0267 -0.0589,0.0321 -0.0708,0.0124 -0.0516,-0.087 -0.123,-0.11013 -0.30748,-0.0996 -0.10823,0.006 -0.22428,-0.01 -0.25779,-0.0353 -0.0336,-0.0255 -0.12465,-0.044 -0.20249,-0.0407 -0.0778,0.003 -0.15873,-0.0133 -0.17975,-0.0366 -0.021,-0.0234 -0.0948,-0.032 -0.16428,-0.0189 -0.0691,0.013 -0.255,-0.006 -0.41274,-0.0434 -0.15777,-0.0368 -0.33093,-0.0752 -0.38484,-0.0853 -0.054,-0.0101 -0.17182,-0.0404 -0.262,-0.0674 -0.0902,-0.027 -0.18876,-0.0248 -0.21908,0.005 -0.0304,0.0298 -0.0963,0.0177 -0.1467,-0.0278 -0.13068,-0.11698 -0.57457,-0.21873 -0.64735,-0.14828 -0.034,0.0326 -0.0891,0.0159 -0.12284,-0.0384 -0.0333,-0.0543 -0.29474,-0.14592 -0.58,-0.2046 -0.28526,-0.0587 -0.54098,-0.13141 -0.56826,-0.16158 -0.0272,-0.0303 -0.14786,-0.071 -0.26794,-0.0906 -0.12008,-0.0196 -0.23812,-0.0585 -0.2624,-0.0861 -0.0242,-0.028 -0.0237,-0.49621 0.001,-1.04109 z m 26.23755,0.66583 c 0.0949,-0.0921 0.27681,-0.2383 0.40439,-0.32467 0.12749,-0.0865 0.58985,-0.43591 1.02748,-0.7766 0.6678,-0.51985 1.03071,-0.84993 2.25803,-2.05382 1.6014,-1.57085 2.34037,-2.37228 3.44816,-3.73939 1.01798,-1.25638 2.79934,-3.87027 3.62045,-5.3125 1.08006,-1.89709 2.35272,-4.41603 2.77704,-5.49659 0.10566,-0.26905 0.2969,-0.7203 0.42499,-1.00277 0.48527,-1.07008 1.3974,-3.62364 2.04594,-5.72768 0.73671,-2.39006 1.23585,-4.41888 1.80133,-7.32187 0.37927,-1.94701 0.86972,-5.3362 0.98678,-6.81895 0.0359,-0.45485 0.0952,-1.18304 0.13177,-1.61819 0.16386,-1.95001 0.3072,-4.54638 0.28528,-5.16758 -0.005,-0.14214 0.003,-0.52018 0.0175,-0.84009 0.0146,-0.31994 0.0217,-0.75846 0.0157,-0.97448 -0.006,-0.21605 -0.0106,-0.60265 -0.0102,-0.85916 3.8e-4,-0.25653 -0.004,-0.62803 -0.0105,-0.82538 -0.0138,-0.44141 -0.0554,-2.06459 -0.0608,-2.37241 -0.002,-0.1239 -0.0237,-0.49797 -0.0479,-0.83132 -0.0241,-0.33336 -0.0467,-0.70641 -0.0502,-0.82898 -0.0103,-0.36156 -0.0351,-0.72104 -0.0566,-0.82279 -0.011,-0.0523 -0.0321,-0.34081 -0.0468,-0.64143 -0.0147,-0.30061 -0.0467,-0.7451 -0.071,-0.9878 -0.0243,-0.24269 -0.05,-0.52679 -0.0571,-0.63134 -0.007,-0.10457 -0.0232,-0.27441 -0.0359,-0.37744 -0.0128,-0.10301 -0.0336,-0.27158 -0.0463,-0.37462 -0.0128,-0.10302 -0.0292,-0.28445 -0.0367,-0.40311 -0.008,-0.11847 -0.0226,-0.25853 -0.0336,-0.31073 -0.011,-0.0523 -0.0315,-0.26245 -0.0455,-0.46716 -0.0141,-0.20469 -0.0349,-0.38257 -0.0463,-0.39524 -0.0114,-0.0127 -0.0306,-0.15874 -0.0426,-0.32465 -0.012,-0.16591 -0.0328,-0.29416 -0.0462,-0.28506 -0.0138,0.008 -0.0207,-0.0442 -0.0165,-0.11817 0.009,-0.14987 -0.0139,-0.33166 -0.19072,-1.54218 -0.21526,-1.47327 -0.27968,-1.86113 -0.62714,-3.77595 -0.32201,-1.77462 -0.53123,-2.85802 -0.67577,-3.49912 -0.0349,-0.15476 -0.11201,-0.50315 -0.17134,-0.77419 -0.0593,-0.27106 -0.11655,-0.5024 -0.12711,-0.51416 -0.0105,-0.0117 -0.0637,-0.23449 -0.1182,-0.49497 -0.0544,-0.26053 -0.10664,-0.48211 -0.11598,-0.49252 -0.0156,-0.0174 -0.09,-0.3171 -0.19629,-0.79035 -0.0405,-0.18067 -0.12709,-0.51942 -0.14794,-0.5792 -0.005,-0.016 -0.0289,-0.10429 -0.0524,-0.19676 -0.0234,-0.0925 -0.0616,-0.24409 -0.0849,-0.3367 -0.0234,-0.0926 -0.05,-0.18671 -0.0595,-0.20896 -0.009,-0.0224 -0.0195,-0.0553 -0.0229,-0.0731 -0.003,-0.0183 -0.0139,-0.0503 -0.024,-0.0719 -0.0102,-0.0215 -0.0439,-0.14727 -0.0756,-0.27881 -0.0316,-0.1316 -0.0647,-0.24739 -0.0736,-0.25725 -0.009,-0.01 -0.0486,-0.16428 -0.0881,-0.34335 -0.0395,-0.17904 -0.0961,-0.38765 -0.12563,-0.46371 -0.0295,-0.076 -0.0793,-0.25053 -0.11069,-0.38777 -0.0766,-0.33473 -1.24982,-4.08785 -1.29287,-4.13578 -0.0186,-0.0207 -0.0539,-0.12647 -0.0782,-0.23496 -0.0244,-0.10845 -0.14327,-0.47808 -0.26435,-0.82131 -0.12111,-0.34319 -0.23191,-0.66403 -0.24632,-0.7129 -0.0144,-0.049 -0.0357,-0.11388 -0.0473,-0.1445 -0.0118,-0.0304 -0.14342,-0.38238 -0.29292,-0.78172 -0.14946,-0.39936 -0.2818,-0.75063 -0.29407,-0.78059 -0.0118,-0.0304 -0.0866,-0.2284 -0.16529,-0.44086 -0.18825,-0.50845 -1.73339,-4.20367 -1.83037,-4.37729 -0.0415,-0.0742 -0.0775,-0.16142 -0.0803,-0.19384 -0.003,-0.0325 -0.0395,-0.12583 -0.0817,-0.20745 -0.12378,-0.2389 -0.12701,-0.24739 -0.13428,-0.34019 -0.004,-0.0487 -0.0179,-0.0779 -0.0314,-0.0647 -0.0135,0.0133 -0.0936,-0.14041 -0.17811,-0.34142 -0.0845,-0.20102 -0.18303,-0.42218 -0.21902,-0.49148 -0.036,-0.0694 -0.0862,-0.17434 -0.1116,-0.23345 -0.0255,-0.059 -0.17925,-0.37203 -0.34207,-0.6953 -0.16275,-0.32331 -0.37553,-0.75028 -0.47285,-0.94879 -0.27181,-0.55433 -0.89271,-1.76608 -0.99927,-1.95016 -0.0524,-0.0904 -0.11655,-0.20791 -0.14283,-0.2608 -0.0262,-0.053 -0.069,-0.13974 -0.0951,-0.1928 -0.0261,-0.0531 -0.0977,-0.18043 -0.15887,-0.2832 -0.0612,-0.10276 -0.12614,-0.22382 -0.14437,-0.26893 -0.037,-0.0919 -0.0249,-0.0702 -0.65144,-1.19356 -0.24976,-0.44796 -0.48377,-0.87126 -0.52003,-0.94069 -0.0362,-0.0694 -0.18568,-0.33518 -0.33213,-0.5905 -0.2986,-0.52062 -0.34746,-0.60852 -0.43975,-0.79035 -0.13363,-0.26338 -0.20154,-0.38355 -0.31929,-0.56491 -0.0667,-0.10257 -0.15123,-0.24298 -0.18806,-0.31184 -0.084,-0.15711 -0.20371,-0.36131 -0.35535,-0.60589 -0.19809,-0.3198 -1.20845,-2.0118 -1.26508,-2.11873 -0.0293,-0.0553 -0.14354,-0.23526 -0.25381,-0.40005 -0.11035,-0.16474 -0.21928,-0.33276 -0.24219,-0.37329 -0.0229,-0.0406 -0.13175,-0.20863 -0.24218,-0.37327 -0.11036,-0.16473 -0.22467,-0.34466 -0.25414,-0.39975 -0.0295,-0.0551 -0.11612,-0.19343 -0.19273,-0.30725 -0.18187,-0.27017 -0.30336,-0.45371 -0.7818,-1.18017 -0.21845,-0.33166 -0.44525,-0.67613 -0.50408,-0.7654 -0.0923,-0.14024 -0.39849,-0.58108 -0.66221,-0.95388 -0.11835,-0.16739 -0.50154,-0.69935 -0.74123,-1.02905 -0.11575,-0.15943 -0.2825,-0.39099 -0.37035,-0.51479 -0.0879,-0.1238 -0.3026,-0.41136 -0.47705,-0.63919 -0.17445,-0.22781 -0.39001,-0.51458 -0.47883,-0.63744 -0.0888,-0.12286 -0.35407,-0.46394 -0.58956,-0.75787 -0.23549,-0.29393 -0.48499,-0.61611 -0.55448,-0.71593 -0.37074,-0.53177 -1.80825,-2.22402 -3.30806,-3.894 -2.52384,-2.81017 -4.68378,-4.99631 -6.16761,-6.24248 -0.0807,-0.0677 -0.27457,-0.23838 -0.43071,-0.37917 -0.54311,-0.48946 -0.73538,-0.6563 -1.05302,-0.91396 -0.17567,-0.14261 -0.44006,-0.36426 -0.58762,-0.49247 -0.30841,-0.26828 -1.06789,-0.88229 -1.51471,-1.22454 -0.16831,-0.12883 -0.37431,-0.28751 -0.45786,-0.35252 -0.28009,-0.21821 -0.76874,-0.5756 -1.24835,-0.91317 -0.26168,-0.18421 -0.56172,-0.40524 -0.66671,-0.49122 -0.26797,-0.21939 -1.11801,-0.80444 -1.60081,-1.10183 -0.22343,-0.13774 -0.54539,-0.33724 -0.7153,-0.44351 -0.16988,-0.1063 -0.50299,-0.31205 -0.74022,-0.45725 -0.23724,-0.14519 -0.58171,-0.35697 -0.76556,-0.47056 -0.18385,-0.11359 -0.45705,-0.27503 -0.60711,-0.35877 -0.15007,-0.0837 -0.34824,-0.19854 -0.44038,-0.25512 -0.23125,-0.1419 -1.10925,-0.63225 -1.38865,-0.77546 -0.12656,-0.0648 -0.33149,-0.17297 -0.45551,-0.24027 -0.72155,-0.39149 -2.78709,-1.35848 -3.37175,-1.57844 -0.2939,-0.11057 -0.59517,-0.23791 -0.6695,-0.28296 -0.14886,-0.0903 -1.90832,-0.74352 -2.381858,-0.88441 -0.164291,-0.0488 -0.579619,-0.19101 -0.923121,-0.3159 -0.343519,-0.12489 -1.079531,-0.34758 -1.635596,-0.49488 -0.997808,-0.26431 -3.063232,-0.73784 -3.153855,-0.72309 -0.02572,0.004 -0.124582,-0.009 -0.219846,-0.0295 -0.610855,-0.13092 -2.179918,-0.38617 -2.636436,-0.42891 -0.147993,-0.0139 -0.391671,-0.0425 -0.541368,-0.0636 -1.075802,-0.15156 -3.162656,-0.22877 -5.022302,-0.18583 -1.096062,0.0253 -4.193852,0.35092 -4.948917,0.52019 -0.04263,0.01 -0.186729,0.0359 -0.320088,0.0589 -0.133349,0.0228 -0.487148,0.0961 -0.786223,0.16272 -0.299062,0.0665 -0.72165,0.15675 -0.939074,0.20021 -0.326409,0.0652 -2.552101,0.69974 -3.334446,0.95063 -0.217986,0.0699 -0.488442,0.17411 -2.012017,0.77498 -0.819901,0.32336 -3.679938,1.7185 -4.087105,1.99373 -0.0958,0.0648 -0.504135,0.31076 -0.907559,0.54677 -1.090973,0.63828 -1.978694,1.24646 -3.342174,2.28977 -0.392072,0.30004 -0.736277,0.55313 -0.764861,0.56248 -0.02868,0.009 -0.47691,0.37909 -0.99629,0.82169 -1.71951,1.46527 -4.596945,4.36685 -5.620897,5.66803 -0.215548,0.27389 -0.599364,0.75754 -0.852936,1.07473 -1.423119,1.78021 -2.665613,3.5794 -4.093606,5.92769 -1.022603,1.68164 -2.401696,4.31172 -3.309782,6.31209 -0.493136,1.08632 -1.163935,2.66468 -1.25363,2.94976 -0.08117,0.25797 -0.188126,0.3778 -0.177826,0.19926 0.01052,-0.18278 0.435844,-1.86928 0.757548,-3.004 0.317213,-1.11888 0.399596,-1.39056 0.798409,-2.63265 0.74005,-2.30492 0.876854,-3.77215 0.471643,-5.0584 -0.123868,-0.39319 -1.347576,-3.34674 -1.493397,-3.60448 -0.05174,-0.0915 -0.102419,-0.22221 -0.112611,-0.29043 -0.01011,-0.0683 -0.03116,-0.11165 -0.04679,-0.0963 -0.01563,0.0153 -0.03616,-0.0284 -0.04679,-0.0963 -0.01011,-0.0683 -0.0608,-0.19899 -0.11253,-0.29051 -0.05174,-0.0915 -0.180274,-0.37392 -0.285789,-0.6274 -0.105425,-0.25357 -0.220499,-0.51868 -0.255626,-0.58921 -0.03523,-0.0704 -0.375586,-0.82148 -0.756605,-1.66872 -0.477616,-1.0627 -0.718151,-1.67982 -0.774949,-1.98895 -0.195703,-1.06502 -0.118878,-2.08889 0.239225,-3.18837 0.175097,-0.53761 1.095699,-2.49657 1.649246,-3.50946 0.164909,-0.30174 0.454772,-0.84633 0.644147,-1.21018 0.189396,-0.36386 0.404922,-0.75458 0.47896,-0.86827 0.07401,-0.1137 0.303036,-0.50972 0.508895,-0.88006 0.423672,-0.7622 0.630337,-1.04467 1.076578,-1.47147 0.566116,-0.54138 1.366034,-0.76986 1.897436,-0.54186 0.131066,0.0564 0.475271,0.24787 0.764732,0.42583 0.552042,0.33935 1.175436,0.72198 1.699541,1.04312 0.574612,0.35208 1.324345,0.79832 1.477338,0.87933 0.08336,0.0442 0.427874,0.23876 0.765483,0.43245 0.337632,0.19369 0.7164,0.40617 0.841714,0.47219 0.125271,0.0661 0.328385,0.17603 0.451331,0.24437 0.28639,0.15941 0.703947,0.27571 0.985782,0.27469 0.601442,-0.002 1.713893,-0.76913 2.286006,-1.57604 0.176678,-0.24914 1.116417,-1.33041 2.28921,-2.63388 0.936842,-1.04121 3.930292,-3.90989 4.760595,-4.5621 1.127268,-0.8855 1.636484,-1.48226 2.021544,-2.36904 0.226458,-0.52155 0.273931,-0.72192 0.303428,-1.28088 0.01748,-0.33136 -0.04018,-2.04633 -0.08308,-2.47077 -0.0103,-0.10175 -0.03987,-0.63936 -0.07356,-1.33654 -0.0056,-0.11556 -0.01411,-0.26188 -0.01896,-0.32507 -0.0048,-0.0632 -0.02257,-0.35916 -0.03941,-0.65768 -0.01684,-0.29851 -0.04286,-0.71975 -0.05782,-0.93611 -0.01495,-0.21635 -0.03441,-0.53406 -0.0432,-0.70606 -0.0088,-0.17199 -0.02444,-0.32219 -0.03479,-0.33374 -0.01037,-0.0115 -0.02079,-0.12845 -0.02326,-0.25974 -0.0024,-0.13133 -0.01056,-0.30148 -0.01807,-0.37814 -0.0075,-0.0767 -0.02921,-0.35767 -0.04825,-0.62448 -0.01905,-0.26682 -0.0405,-0.53838 -0.04767,-0.60347 -0.08193,-0.74316 -0.07118,-1.0166 0.06033,-1.53523 0.191486,-0.75521 0.67381,-1.49118 1.263868,-1.92854 0.477198,-0.35368 2.722954,-1.35898 4.019114,-1.79909 0.235797,-0.0801 0.507038,-0.18258 0.60276,-0.22782 0.327425,-0.15471 1.458276,-0.50143 1.751918,-0.5371 0.609867,-0.0741 1.144126,0.007 1.733859,0.26281 0.431755,0.18735 1.0974,0.85662 1.433494,1.44122 0.143242,0.24944 0.326708,0.56033 0.40741,0.69115 0.08076,0.13076 0.164999,0.27147 0.187339,0.31254 0.02189,0.0416 0.101602,0.1695 0.176362,0.28514 0.07485,0.11557 0.196958,0.30503 0.271718,0.42068 0.0746,0.11579 0.167604,0.26508 0.206453,0.33196 0.07373,0.12682 0.238892,0.37772 0.504285,0.7652 0.08599,0.12563 0.187288,0.28398 0.225009,0.35196 0.03773,0.068 0.148981,0.23406 0.247217,0.36909 0.170075,0.23375 0.65981,0.93059 1.060295,1.50911 0.977472,1.4117 1.032294,1.4809 1.457864,1.83964 0.513286,0.43263 1.595533,0.69676 2.625478,0.64068 0.142747,-0.008 0.600043,-0.0385 1.016255,-0.0684 0.876124,-0.0628 1.527783,-0.0775 2.64862,-0.0595 0.173778,0.003 0.385116,0.005 0.469536,0.004 0.08436,-7.4e-4 0.22281,0.006 0.307529,0.0145 0.08477,0.009 0.248677,0.0143 0.364345,0.0123 0.11562,-0.002 0.315848,0.0131 0.444837,0.0336 0.128895,0.0205 0.256582,0.0326 0.283524,0.0272 0.05954,-0.0116 1.767614,0.0913 1.921109,0.11616 0.06,0.01 0.434213,0.0526 0.831506,0.0953 0.397301,0.0427 0.744737,0.0855 0.772087,0.0952 0.06614,0.0233 0.943029,0.13262 1.062942,0.13241 0.05186,-1.5e-4 0.110668,0.0181 0.130791,0.0405 0.04367,0.0487 0.772603,0.0693 1.280585,0.0364 0.71986,-0.0467 1.30377,-0.33268 1.57318,-0.77069 0.17237,-0.28018 0.74104,-1.52252 1.06466,-2.32578 0.34874,-0.86563 0.9077,-2.54721 1.27167,-3.82557 0.39589,-1.39054 0.48023,-1.57218 0.94104,-2.02668 0.42755,-0.42214 0.81643,-0.59641 1.43448,-0.64404 0.39047,-0.0301 0.54734,0.003 1.9156,0.40909 0.884,0.2621 3.19346,1.07717 3.577,1.26242 0.11476,0.0554 0.4526,0.18775 0.75084,0.29407 0.29823,0.10633 0.59348,0.22896 0.6561,0.2725 0.0626,0.0436 0.19407,0.12074 0.29204,0.1716 0.29782,0.15441 1.16604,1.06133 1.4365,1.50025 0.46447,0.75423 0.64234,1.30082 0.86448,2.65667 0.21529,1.31382 0.53521,3.09162 0.6366,3.53756 0.0312,0.13737 0.11232,0.51485 0.1802,0.83883 0.0679,0.32399 0.13174,0.59834 0.1419,0.60965 0.0163,0.0181 0.26717,1.01541 0.38359,1.52481 0.11681,0.51114 0.50573,1.65325 0.63961,1.87832 0.1617,0.27184 0.74157,0.90837 1.14889,1.26201 0.33453,0.2898 0.84425,0.62466 1.39368,0.91541 0.25029,0.13239 0.49742,0.26788 0.54927,0.30099 0.0519,0.0331 0.18726,0.11502 0.30075,0.18214 0.11349,0.0671 0.28839,0.17041 0.38848,0.22968 0.10008,0.0593 0.22574,0.13357 0.27914,0.16518 0.22058,0.13034 1.08164,0.65363 1.27351,0.7739 0.0392,0.0245 0.2321,0.14452 0.42859,0.2667 0.19653,0.12213 0.49514,0.3102 0.66354,0.41794 0.16844,0.10771 0.3492,0.22242 0.40179,0.25481 0.0526,0.0324 0.35828,0.23068 0.67956,0.44041 0.74657,0.48771 0.74058,0.48391 0.84274,0.53456 0.0474,0.0237 0.17346,0.11196 0.28003,0.19637 0.1065,0.0845 0.23464,0.18212 0.28489,0.2168 0.0502,0.0348 0.15113,0.10753 0.22449,0.16154 0.0734,0.054 0.30828,0.21871 0.52218,0.36586 0.21388,0.14719 0.46583,0.32949 0.55983,0.40519 0.16447,0.13233 0.99959,0.76586 1.18493,0.89893 0.13943,0.10006 0.37448,0.28482 0.59155,0.46504 0.47195,0.39151 1.21289,0.91967 1.47899,1.05405 0.0989,0.05 0.41481,0.18359 0.702,0.29702 0.63508,0.25078 1.17892,0.24345 1.53935,-0.0207 0.12251,-0.0898 0.57619,-0.37713 1.00813,-0.63847 1.16005,-0.70193 1.9189,-1.22544 2.73463,-1.88655 1.20581,-0.97724 1.29909,-1.03507 1.72097,-1.0668 0.58173,-0.0437 1.2654,0.17836 1.86416,0.60565 0.14874,0.10604 0.33231,0.23517 0.40785,0.28704 0.17416,0.11934 3.38009,3.68866 4.2654,4.74912 1.25917,1.50834 1.58147,1.94568 1.97554,2.68157 0.15479,0.28913 0.31107,0.58011 0.34722,0.64669 0.0361,0.0666 0.068,0.1476 0.0707,0.18011 0.003,0.0325 0.0339,0.11138 0.0695,0.17521 0.0355,0.0639 0.0905,0.22414 0.12219,0.35615 0.0317,0.132 0.0637,0.25125 0.0711,0.26498 0.007,0.0143 0.0493,0.21319 0.0932,0.44314 0.0928,0.48673 0.0697,1.04681 -0.0727,1.76187 -0.34604,1.73766 -1.22309,7.34557 -1.25396,8.01782 -0.0133,0.28972 0.13887,1.52571 0.19088,1.55051 0.007,0.004 0.0399,0.10903 0.0723,0.23456 0.0324,0.12552 0.14518,0.43566 0.25059,0.68925 0.18005,0.43315 0.22598,0.53131 0.41018,0.87666 0.0404,0.0758 0.0884,0.17484 0.10652,0.22004 0.0181,0.0451 0.0832,0.16615 0.14438,0.26892 0.0612,0.10277 0.13275,0.23016 0.15887,0.28321 0.0262,0.0529 0.0736,0.14814 0.10553,0.21133 0.0319,0.0633 0.12774,0.26762 0.21288,0.45432 0.0852,0.18668 0.18006,0.3857 0.21073,0.44236 0.15184,0.27943 0.46447,0.9634 0.65244,1.4267 0.10644,0.2623 0.22315,0.51843 0.27048,0.59338 0.0119,0.0201 0.0417,0.10254 0.0654,0.18437 0.0236,0.0819 0.0736,0.20462 0.1109,0.27301 0.0793,0.14476 0.93385,2.19805 0.97035,2.33166 0.0136,0.0497 0.0542,0.14129 0.0902,0.20366 0.0359,0.0623 0.10289,0.24585 0.14874,0.40772 0.0458,0.16187 0.0949,0.28291 0.10912,0.26898 0.0142,-0.0139 0.0343,0.0298 0.0441,0.0976 0.0101,0.0676 0.0463,0.17814 0.0806,0.24549 0.0663,0.13064 0.52393,1.3134 0.91889,2.37488 0.13163,0.35386 0.24876,0.66851 0.26022,0.69926 0.0118,0.0304 0.0326,0.0959 0.0472,0.14464 0.0327,0.11049 0.24335,0.69527 0.26931,0.74762 0.0102,0.0214 0.0218,0.0531 0.0249,0.071 0.003,0.0183 0.0144,0.0498 0.0249,0.071 0.0102,0.0215 0.08,0.21933 0.15444,0.44031 0.0745,0.22094 0.14393,0.41913 0.15445,0.4403 0.0102,0.0214 0.0218,0.0531 0.0249,0.071 0.003,0.0183 0.0134,0.0507 0.0227,0.0733 0.009,0.0223 0.0308,0.0872 0.0477,0.1441 0.0708,0.23682 0.0952,0.31145 0.11805,0.36148 0.0128,0.0294 0.16377,0.49325 0.33453,1.03163 0.17075,0.53838 0.32546,0.99555 0.34378,1.01594 0.0183,0.0204 0.0674,0.18507 0.10909,0.36593 0.0417,0.18087 0.17757,0.64133 0.30199,1.02328 0.12441,0.38196 0.23865,0.73381 0.25384,0.78192 0.0153,0.048 0.032,0.1003 0.0375,0.116 0.005,0.0161 0.03,0.10558 0.0546,0.19957 0.0247,0.094 0.05,0.17667 0.0563,0.18364 0.006,0.007 0.0372,0.12045 0.0689,0.25201 0.0316,0.13159 0.063,0.2511 0.0697,0.26551 0.007,0.0144 0.038,0.13397 0.0697,0.26552 0.0316,0.1316 0.0626,0.24503 0.0689,0.252 0.006,0.007 0.0316,0.0896 0.0563,0.18365 0.0247,0.094 0.0499,0.18325 0.0559,0.19836 0.006,0.0151 0.037,0.13498 0.0685,0.26669 0.0316,0.13161 0.0647,0.2474 0.0736,0.25726 0.009,0.01 0.05,0.1725 0.0915,0.36138 0.0414,0.18893 0.082,0.35087 0.0902,0.3599 0.008,0.009 0.035,0.0933 0.0596,0.18742 0.0247,0.094 0.0492,0.18388 0.0548,0.19939 0.0205,0.0588 0.10713,0.39735 0.14815,0.579 0.0234,0.10366 0.0957,0.39412 0.16061,0.64543 0.14872,0.57559 0.155,0.60182 0.28644,1.19586 0.0598,0.27056 0.11701,0.50101 0.12703,0.51215 0.01,0.011 0.0565,0.20301 0.10327,0.42645 0.10097,0.48209 0.25422,1.17991 0.31613,1.43956 0.0244,0.10204 0.0763,0.32611 0.11534,0.49779 0.039,0.17172 0.0808,0.31978 0.0926,0.32914 0.0117,0.01 0.0145,0.0875 0.006,0.17396 -0.009,0.0864 -0.003,0.15837 0.0128,0.16009 0.0356,0.004 0.12676,0.41803 0.34419,1.56426 0.0939,0.49504 0.17634,0.91174 0.1832,0.92601 0.0438,0.0914 0.0759,0.28883 0.0668,0.41181 -0.006,0.0794 0.007,0.12645 0.0294,0.10477 0.0221,-0.0216 0.0326,0.0368 0.0235,0.12975 -0.009,0.093 6e-4,0.15222 0.0218,0.13142 0.0212,-0.0208 0.0356,0.0134 0.0319,0.076 -0.004,0.0626 0.0914,0.68246 0.21106,1.3776 0.29314,1.70241 0.31827,1.86545 0.30993,2.01016 -0.004,0.0686 0.0102,0.10783 0.0313,0.0871 0.0212,-0.0208 0.0335,0.0272 0.0288,0.10532 -0.005,0.0787 0.0192,0.30384 0.0546,0.50013 0.0353,0.1964 0.0826,0.51084 0.10494,0.69894 0.0223,0.18816 0.0584,0.44487 0.08,0.57062 0.0217,0.12577 0.0618,0.41284 0.0892,0.63799 0.0274,0.22514 0.0669,0.5472 0.0879,0.71566 0.021,0.16845 0.0466,0.40107 0.057,0.5169 0.0104,0.11574 0.0284,0.2528 0.04,0.30445 0.0117,0.0516 0.033,0.25398 0.0477,0.44961 0.0147,0.19563 0.0356,0.39848 0.0466,0.45069 0.011,0.0523 0.025,0.1931 0.0313,0.31294 0.006,0.12004 0.0203,0.26072 0.0313,0.31294 0.011,0.0523 0.0315,0.26245 0.0456,0.46714 0.0141,0.20467 0.0408,0.3891 0.0593,0.40977 0.0186,0.0206 0.0214,0.0904 0.006,0.15515 -0.0151,0.0646 -0.002,0.27097 0.0285,0.45867 0.0309,0.1876 0.0511,0.40032 0.0449,0.4727 -0.006,0.0724 -0.001,0.14248 0.0106,0.15601 0.0121,0.0134 0.0315,0.22193 0.0432,0.46338 0.0117,0.24148 0.0295,0.44812 0.0395,0.45925 0.01,0.0111 0.0252,0.16115 0.0336,0.33349 0.008,0.17248 0.0313,0.55549 0.0506,0.85156 0.1011,1.54859 0.19851,4.23992 0.22688,6.26911 0.0223,1.59357 0.0238,1.9083 0.0117,2.35279 -0.007,0.24939 -0.0109,0.59527 -0.009,0.76868 0.014,1.28107 -0.23192,5.71858 -0.42752,7.71506 -0.22994,2.34707 -0.31049,3.00493 -0.64926,5.30336 -0.99087,6.72267 -2.32429,12.00562 -4.50311,17.84102 -1.88925,5.0599 -4.87014,10.70949 -7.64005,14.47994 -1.06051,1.44357 -2.29897,3.0042 -3.23669,4.07869 -0.84652,0.96993 -3.41429,3.51222 -4.21983,4.17794 -1.20312,0.9942 -1.87566,1.52401 -2.73035,2.15083 -1.00718,0.73867 -3.60788,2.44781 -3.91134,2.57045 -0.10833,0.0437 -0.51088,0.25194 -0.89452,0.46255 -0.38363,0.2106 -0.75561,0.38838 -0.82663,0.395 -0.1148,0.0109 -0.10997,-0.006 0.0434,-0.15534 z M 75.481718,185.76972 c 0.0024,-0.0215 -0.210378,-0.30951 -0.472963,-0.63986 -0.262505,-0.33042 -0.534196,-0.68238 -0.603601,-0.78227 -0.06949,-0.0998 -0.3103,-0.41335 -0.535202,-0.69667 -0.224902,-0.28333 -0.511948,-0.65457 -0.637881,-0.825 -0.125933,-0.17043 -0.33078,-0.43952 -0.455289,-0.59791 -0.124832,-0.15806 -0.229135,-0.32093 -0.232467,-0.36126 -0.0075,-0.0904 1.229514,-2.13033 1.773276,-2.92442 2.491376,-3.63823 5.099734,-6.41792 8.164743,-8.70104 2.653539,-1.97661 5.446543,-3.40088 8.50556,-4.33736 0.422345,-0.12925 0.803486,-0.24217 0.84699,-0.25087 0.04346,-0.009 0.334837,-0.0814 0.647447,-0.1612 0.312588,-0.0799 0.589124,-0.14586 0.614498,-0.1461 0.02543,-2.5e-4 0.223238,-0.0369 0.439692,-0.0814 0.584411,-0.12011 0.729826,-0.14576 1.280345,-0.22553 1.077065,-0.15609 2.788338,-0.28555 3.751704,-0.28379 1.233108,0.002 1.263757,0.003 1.57115,0.028 0.13585,0.0112 0.28189,0.0205 0.32438,0.0208 0.17023,0.001 1.27251,0.0915 1.28484,0.10523 0.007,0.008 0.43674,0.0658 0.95441,0.12833 0.51766,0.0625 0.95164,0.12524 0.96438,0.13943 0.0127,0.0142 0.11188,0.0331 0.22026,0.0421 0.52652,0.0437 2.18005,0.46358 4.05292,1.0291 0.60935,0.18401 2.53089,0.89964 2.79219,1.03989 0.0692,0.0371 0.31202,0.14242 0.53959,0.2341 0.57725,0.2324 2.56998,1.21415 2.9012,1.42932 0.0644,0.0419 0.25135,0.15043 0.41544,0.2414 2.08585,1.15593 4.78128,3.03013 6.71803,4.67119 0.33302,0.28221 0.68072,0.57674 0.77246,0.65472 0.0918,0.0779 0.29538,0.25615 0.45249,0.39599 0.15703,0.1399 0.35915,0.31956 0.44926,0.39914 0.0903,0.0794 0.37482,0.35001 0.63267,0.601 0.25784,0.25099 0.49766,0.46991 0.53275,0.48671 0.0952,0.0456 2.09845,2.15658 3.14377,3.31292 0.85243,0.9424 2.04169,2.35821 2.49724,2.97143 0.1083,0.14574 0.34871,0.45967 0.53431,0.69754 0.1856,0.23789 0.42481,0.553 0.53158,0.70023 0.10677,0.14724 0.27408,0.37826 0.37188,0.5133 0.0977,0.13512 0.29589,0.40456 0.44027,0.59889 0.24117,0.3244 1.24057,1.78154 1.48705,2.16818 0.0576,0.0905 0.17498,0.2674 0.26058,0.39341 0.0857,0.12593 0.18013,0.27381 0.20992,0.32859 0.0298,0.0548 0.14442,0.23438 0.25469,0.39918 0.11036,0.16472 0.22507,0.34426 0.25478,0.39911 0.0632,0.11599 0.61044,1.00006 0.8087,1.30651 0.0748,0.11563 0.18955,0.31229 0.25497,0.43712 0.0654,0.1248 0.25515,0.45412 0.42154,0.73184 0.16638,0.27775 0.38666,0.663 0.48948,0.85611 0.10281,0.19312 0.23112,0.42806 0.28514,0.52206 0.26301,0.45738 1.61614,3.06243 1.65922,3.19419 0.0141,0.043 0.0589,0.14003 0.0997,0.2155 0.17924,0.33255 0.23851,0.45456 0.55883,1.15082 0.18638,0.40514 0.36253,0.78212 0.39145,0.83776 0.15814,0.30452 0.85446,1.93378 1.35657,3.17455 0.31632,0.78166 0.6025,1.47787 0.63594,1.54711 0.0335,0.0692 0.063,0.15182 0.0657,0.18348 0.003,0.0316 0.0287,0.10233 0.0581,0.15668 0.0293,0.0546 0.10403,0.24764 0.16604,0.42922 0.0619,0.18166 0.34433,0.97392 0.62743,1.76074 0.28311,0.7868 0.49594,1.46449 0.47296,1.506 -0.0229,0.0414 -0.85086,0.40821 -1.83975,0.81494 l -1.79797,0.73952 -0.39235,-0.4453 c -0.44,-0.50004 -1.81042,-2.1471 -2.25131,-2.70665 -0.41891,-0.53174 -1.10368,-1.37503 -1.74267,-2.14641 -0.30711,-0.37065 -0.75974,-0.92305 -1.0059,-1.22752 -0.24607,-0.30453 -0.63486,-0.78215 -0.86378,-1.06151 -0.22901,-0.27929 -0.65004,-0.79398 -0.93597,-1.14342 -0.28594,-0.34943 -0.75425,-0.9208 -1.04083,-1.26961 -0.28658,-0.34879 -0.66716,-0.81727 -0.84564,-1.04114 -0.17856,-0.22379 -0.62314,-0.76692 -0.988,-1.20691 -0.36485,-0.44 -0.78563,-0.95493 -0.93492,-1.14443 -0.14928,-0.18951 -0.56243,-0.69475 -0.91798,-1.12289 -0.35571,-0.42795 -0.8081,-0.9806 -1.00542,-1.22798 -0.19724,-0.24747 -0.61055,-0.75255 -0.91823,-1.12265 -0.30776,-0.37001 -0.7205,-0.87565 -0.91725,-1.12358 -0.19668,-0.24802 -0.62406,-0.77366 -0.94986,-1.16798 -0.32571,-0.39439 -0.73162,-0.88955 -0.90217,-1.10021 -0.17038,-0.21082 -0.59117,-0.72574 -0.93468,-1.14469 -0.34367,-0.41876 -0.79581,-0.97165 -1.00501,-1.22837 -0.20912,-0.25681 -0.63088,-0.7708 -0.93727,-1.14216 -0.30639,-0.37136 -0.73472,-0.89605 -0.95194,-1.16591 -0.57787,-0.71785 -1.25682,-1.55079 -1.85042,-2.26976 -0.2873,-0.34809 -0.71589,-0.87255 -0.95226,-1.16561 -0.23638,-0.29307 -0.65772,-0.80743 -0.93645,-1.14293 -0.27874,-0.33551 -0.68368,-0.83161 -0.89992,-1.10243 -0.21633,-0.27074 -0.63534,-0.78741 -0.93122,-1.14807 -0.29596,-0.3606 -0.71683,-0.87545 -0.93557,-1.14381 -0.21866,-0.26845 -0.64789,-0.79227 -0.95371,-1.16419 -0.30591,-0.37183 -0.75878,-0.924 -1.00655,-1.22687 -0.24777,-0.30289 -0.67901,-0.82997 -0.95839,-1.17125 l -0.50783,-0.62063 -0.5631,0.23976 c -0.3097,0.13185 -0.57764,0.25405 -0.59541,0.27149 -0.0178,0.0175 -0.59598,0.27566 -1.2849,0.57381 -0.68891,0.29815 -1.25914,0.54853 -1.26716,0.5564 -0.0226,0.0223 -0.96072,0.44214 -1.94675,0.87142 -0.4915,0.21396 -0.90226,0.39752 -0.91279,0.40786 -0.0105,0.0106 -0.40444,0.18695 -0.87534,0.39248 -1.173845,0.51231 -2.067348,0.90787 -2.420508,1.07158 -0.16295,0.0756 -0.486363,0.22089 -0.718743,0.32301 -0.23236,0.10214 -0.42567,0.20736 -0.42955,0.23383 -0.0038,0.0264 0.08022,0.16206 0.186838,0.30136 0.89176,1.16399 1.591904,2.0856 2.00446,2.63846 0.135718,0.18183 0.390273,0.51624 0.565693,0.74311 0.17542,0.22688 0.39331,0.51134 0.48399,0.63239 0.0911,0.12056 0.35713,0.46819 0.59202,0.77157 l 0.42698,0.55171 0.53335,0.0332 c 0.29333,0.0183 0.70302,0.0557 0.91043,0.0831 0.20742,0.0274 0.64029,0.0837 0.96197,0.125 2.28015,0.29278 4.61,1.10109 6.81256,2.36354 1.10932,0.63581 2.04867,1.29106 2.7746,1.93545 0.13489,0.11964 0.27612,0.23219 0.3142,0.24978 0.27468,0.1282 2.17593,2.16168 2.89303,3.094 1.57568,2.0488 2.84111,4.67513 3.46022,7.18149 0.13984,0.5661 0.40026,2.02625 0.42547,2.38547 0.0143,0.20448 0.0351,0.38179 0.0462,0.39412 0.0439,0.0488 0.0704,1.50246 0.0405,2.21436 -0.0387,0.9216 -0.14765,1.6878 -0.35349,2.48549 -0.74599,2.89094 -2.70894,5.26502 -5.31991,6.43419 -0.35503,0.159 -1.53001,0.56498 -1.69954,0.58726 -0.059,0.007 -0.22235,0.0419 -0.363,0.0757 -0.4684,0.11318 -1.57435,0.21547 -2.27891,0.21136 -0.80121,-0.005 -0.71739,-1.6e-4 -1.25394,-0.0676 -0.93212,-0.11711 -1.74576,-0.27647 -2.25043,-0.44081 -0.17052,-0.0556 -0.45724,-0.14551 -0.63715,-0.19995 -0.54885,-0.16611 -1.88588,-0.67795 -2.0367,-0.77966 -0.0478,-0.0322 -0.18582,-0.10295 -0.30663,-0.15727 -1.39084,-0.62431 -3.2195,-1.78264 -4.569107,-2.89424 -0.31418,-0.2587 -0.638276,-0.52485 -0.720201,-0.59146 -0.694583,-0.56398 -2.87858,-2.9203 -3.577009,-3.85912 -0.319223,-0.42902 -1.13921,-1.67571 -1.28218,-1.94922 -0.02908,-0.0555 -0.11647,-0.20478 -0.194438,-0.33159 -0.147976,-0.24104 -0.215275,-0.36036 -0.323278,-0.57318 -0.240051,-0.47289 -0.254362,-0.50263 -0.361994,-0.75239 -0.05073,-0.11808 -0.117116,-0.25901 -0.147227,-0.31345 -0.176712,-0.31877 -0.798303,-2.02511 -0.896462,-2.4607 -0.04078,-0.18091 -0.0973,-0.38921 -0.125638,-0.46286 -0.06477,-0.1683 -0.30502,-1.55163 -0.335288,-1.93042 -0.01246,-0.1558 -0.03113,-0.32519 -0.04149,-0.37641 -0.03011,-0.1488 -0.05442,-1.02553 -0.03924,-1.41552 0.03281,-0.84391 0.133176,-2.27378 0.201479,-2.87085 0.04059,-0.3549 0.05411,-0.69468 0.03004,-0.75505 -0.02409,-0.0604 -0.293908,-0.41416 -0.599493,-0.78631 -0.305665,-0.37207 -0.667743,-0.82434 -0.804749,-1.0049 -0.136926,-0.18064 -0.491769,-0.62283 -0.788294,-0.98286 -0.296611,-0.35996 -0.676864,-0.82875 -0.844916,-1.04186 -0.168047,-0.2131 -0.499327,-0.62685 -0.735947,-0.91968 -0.236695,-0.29274 -0.669374,-0.83037 -0.961468,-1.19475 -0.292262,-0.36423 -0.674782,-0.82626 -0.850186,-1.02663 l -0.31927,-0.36393 -1.254289,0.62786 c -0.689879,0.34533 -1.729851,0.86923 -2.311055,1.16423 -0.581213,0.29501 -1.391856,0.70052 -1.801424,0.90113 -0.409583,0.20062 -1.161567,0.57799 -1.671094,0.8386 -0.50953,0.26062 -0.986627,0.50025 -1.060219,0.53253 -0.07361,0.0323 -0.553803,0.26839 -1.067168,0.52477 l -0.933366,0.46609 -0.265087,-0.26512 c -0.14612,-0.14549 -0.26306,-0.28277 -0.260127,-0.30482 z"
       id="path3724"
       inkscape:connector-curvature="0" />
  </g>
</svg>
