<?xml version="1.0" encoding="UTF-8" standalone="no"?>
<!-- Created with Inkscape (http://www.inkscape.org/) -->

<svg
   xmlns:dc="http://purl.org/dc/elements/1.1/"
   xmlns:cc="http://creativecommons.org/ns#"
   xmlns:rdf="http://www.w3.org/1999/02/22-rdf-syntax-ns#"
   xmlns:svg="http://www.w3.org/2000/svg"
   xmlns="http://www.w3.org/2000/svg"
   xmlns:sodipodi="http://sodipodi.sourceforge.net/DTD/sodipodi-0.dtd"
   xmlns:inkscape="http://www.inkscape.org/namespaces/inkscape"
   width="210mm"
   height="148mm"
   viewBox="0 0 210 148.00001"
   version="1.1"
   id="svg8"
   inkscape:version="0.92.5 (2060ec1f9f, 2020-04-08)"
   sodipodi:docname="bglogo.svg">
  <defs
     id="defs2" />
  <sodipodi:namedview
     id="base"
     pagecolor="#ffffff"
     bordercolor="#666666"
     borderopacity="1.0"
     inkscape:pageopacity="0.0"
     inkscape:pageshadow="2"
     inkscape:zoom="0.49497475"
     inkscape:cx="-139.33665"
     inkscape:cy="682.47179"
     inkscape:document-units="mm"
     inkscape:current-layer="layer1"
     showgrid="false"
     inkscape:window-width="1920"
     inkscape:window-height="1016"
     inkscape:window-x="0"
     inkscape:window-y="0"
     inkscape:window-maximized="1"
     units="mm" />
  <metadata
     id="metadata5">
    <rdf:RDF>
      <cc:Work
         rdf:about="">
        <dc:format>image/svg+xml</dc:format>
        <dc:type
           rdf:resource="http://purl.org/dc/dcmitype/StillImage" />
        <dc:title></dc:title>
      </cc:Work>
    </rdf:RDF>
  </metadata>
  <g
     inkscape:label="Livello 1"
     inkscape:groupmode="layer"
     id="layer1"
     transform="translate(0,-148.99999)">
    <path
       style="fill:#ff9c00;fill-opacity:0.31932774;stroke-width:0.06152054"
       d="m 135.7834,293.42591 c -0.0142,-0.0126 -0.70414,-0.0417 -1.53313,-0.0645 -0.82899,-0.0228 -1.67335,-0.0513 -1.87637,-0.0633 -0.20301,-0.0125 -0.7567,-0.04 -1.23041,-0.0623 -0.47371,-0.0223 -0.97202,-0.0511 -1.10737,-0.0641 -0.13535,-0.013 -0.46463,-0.0414 -0.73176,-0.0633 -0.26712,-0.0218 -0.54396,-0.0526 -0.6152,-0.0685 -0.0713,-0.0158 -0.19182,-0.0411 -0.26796,-0.0562 -0.72763,-0.14512 -0.77323,-0.1555 -0.82598,-0.1881 -0.0276,-0.0171 -0.0988,-0.0408 -0.15812,-0.0527 -0.14961,-0.0302 -1.29625,-0.44709 -1.52975,-0.55623 -0.10538,-0.0492 -0.22637,-0.13153 -0.269,-0.18291 -0.0427,-0.0514 -0.10351,-0.0934 -0.13522,-0.0934 -0.11847,0 -0.63793,-0.44802 -1.12051,-0.96635 -0.27421,-0.29451 -0.91226,-0.97965 -1.4179,-1.52252 -1.52572,-1.63809 -3.79605,-3.90358 -4.1561,-4.14727 -0.37369,-0.25291 -1.13838,-0.63682 -1.43036,-0.7181 -0.0254,-0.007 -0.06,-0.0199 -0.0769,-0.0282 -0.017,-0.009 -0.0515,-0.0212 -0.077,-0.0285 -0.0253,-0.007 -0.0876,-0.0302 -0.13841,-0.0513 -0.14283,-0.0594 -1.1774,-0.34328 -1.38422,-0.37996 -0.50778,-0.09 -1.47831,-0.27979 -2.00043,-0.39113 -0.322,-0.0686 -0.72341,-0.14075 -0.89204,-0.1602 -0.16862,-0.0195 -0.36197,-0.046 -0.42965,-0.0591 -0.0677,-0.013 -0.24761,-0.0406 -0.39987,-0.0613 -0.15226,-0.0207 -0.34605,-0.0516 -0.43064,-0.0687 -0.0846,-0.0171 -0.31992,-0.0585 -0.52293,-0.0922 -0.51458,-0.0853 -0.62257,-0.10575 -1.63029,-0.30894 -0.49063,-0.0989 -1.15505,-0.22203 -1.4765,-0.27354 -0.32144,-0.0515 -0.65365,-0.10899 -0.73825,-0.12767 -0.0846,-0.0187 -0.21608,-0.0465 -0.29221,-0.0616 -0.0762,-0.0152 -0.20763,-0.0414 -0.29222,-0.0584 -0.0846,-0.017 -0.22302,-0.0446 -0.30762,-0.0614 -0.0846,-0.017 -0.21608,-0.0431 -0.29221,-0.0584 -0.22106,-0.044 -0.40922,-0.086 -0.84117,-0.18758 -0.22254,-0.0522 -1.06905,-0.23308 -1.88112,-0.40173 -0.81207,-0.16862 -1.53186,-0.31981 -1.59953,-0.33597 -0.0677,-0.0162 -0.19225,-0.0441 -0.27684,-0.0623 -0.27083,-0.0578 -0.39442,-0.0873 -0.64597,-0.15401 -0.13535,-0.0359 -0.31529,-0.0796 -0.39988,-0.0972 -0.0846,-0.0176 -0.2853,-0.0705 -0.446027,-0.11773 -0.160726,-0.0473 -0.29222,-0.0726 -0.29222,-0.0562 0,0.0164 -0.0515,0.002 -0.114608,-0.0316 -0.06298,-0.0337 -0.208352,-0.0774 -0.322986,-0.0972 -0.114608,-0.0197 -0.305301,-0.0611 -0.423738,-0.0919 -0.118474,-0.0308 -0.312211,-0.0722 -0.430634,-0.0917 -0.118475,-0.0196 -0.256852,-0.0474 -0.307609,-0.0618 -0.413774,-0.11723 -1.350049,-0.22396 -2.053284,-0.23414 -1.080966,-0.0157 -1.532274,0.0755 -2.068591,0.41754 -0.1861,0.11874 -0.421417,0.25785 -0.522926,0.3092 -0.192294,0.0973 -1.181803,0.72301 -1.295806,0.81944 -0.03597,0.0304 -0.132861,0.0908 -0.215322,0.13404 -0.08245,0.0433 -0.351171,0.21315 -0.597137,0.37745 -0.245966,0.1643 -0.472053,0.29873 -0.50242,0.29873 -0.03036,0 -0.06442,0.0225 -0.07571,0.0502 -0.01825,0.0446 -0.998146,0.7294 -1.972035,1.37807 -0.488916,0.32564 -0.959063,0.43317 -1.893503,0.43305 -0.422954,-5e-5 -0.838219,-0.0147 -0.922809,-0.0327 -0.0846,-0.0179 -0.264538,-0.0491 -0.399884,-0.0691 -0.834144,-0.12372 -1.584245,-0.34936 -4.275677,-1.28615 -0.625971,-0.21786 -1.318077,-0.46503 -1.538013,-0.54925 -0.219936,-0.0842 -0.427568,-0.15949 -0.461404,-0.16727 -0.03383,-0.007 -0.157475,-0.0543 -0.274758,-0.10326 -0.117276,-0.049 -0.255697,-0.0957 -0.307602,-0.10388 -0.0519,-0.007 -0.122054,-0.0315 -0.155888,-0.052 -0.03383,-0.0205 -0.573678,-0.22382 -1.19965,-0.45183 -0.625971,-0.228 -1.27655,-0.47636 -1.445733,-0.55188 -0.169181,-0.0756 -0.418339,-0.17301 -0.553684,-0.21664 -0.446565,-0.14395 -1.583157,-0.67858 -1.968657,-0.92603 -0.10151,-0.0651 -0.226088,-0.13732 -0.276844,-0.16036 -0.05076,-0.023 -0.314375,-0.21662 -0.585821,-0.43017 -0.85158,-0.66991 -1.15246,-1.12812 -1.225995,-1.86707 -0.0362,-0.36376 -0.144967,-1.18738 -0.186869,-1.41497 -0.0093,-0.0508 -0.03579,-0.21686 -0.05877,-0.36912 -0.07593,-0.50315 -0.64984,-3.53305 -0.712863,-3.76357 -0.152153,-0.55652 -1.03592,-1.48269 -1.888188,-1.97882 -0.06738,-0.0393 -0.233575,-0.14549 -0.369333,-0.23617 -0.259512,-0.17335 -0.798315,-0.44854 -3.461994,-1.76821 -0.896662,-0.44423 -1.879452,-0.94379 -2.183979,-1.11012 -0.304526,-0.16636 -0.65058,-0.35024 -0.769008,-0.40865 -0.118424,-0.0584 -0.263768,-0.14739 -0.322981,-0.19772 -0.05921,-0.0503 -0.107663,-0.0699 -0.107663,-0.0436 0,0.0263 -0.04449,0.0113 -0.09885,-0.0342 -0.116804,-0.0969 -0.156286,-0.11934 -0.898901,-0.51105 -0.528542,-0.27875 -0.821805,-0.44422 -1.127047,-0.63593 -0.06639,-0.0417 -0.231447,-0.13216 -0.366792,-0.20103 -0.135346,-0.0688 -0.287609,-0.1522 -0.338364,-0.18518 -0.266562,-0.17324 -1.05622,-0.61458 -1.099605,-0.61458 -0.02763,0 -0.09973,-0.0548 -0.160253,-0.12159 -0.06052,-0.0669 -0.130885,-0.10875 -0.156366,-0.0929 -0.02547,0.0157 -0.08054,-0.0126 -0.122352,-0.063 -0.04182,-0.0504 -0.09803,-0.0915 -0.124928,-0.0915 -0.0269,0 -0.251901,-0.11947 -0.500011,-0.26543 -0.248109,-0.14599 -0.492633,-0.28472 -0.543388,-0.30828 -0.05075,-0.0236 -0.175334,-0.0976 -0.276843,-0.16449 -0.10151,-0.067 -0.226782,-0.14274 -0.278386,-0.16851 -0.05161,-0.0258 -0.352208,-0.19913 -0.668011,-0.38522 -0.885205,-0.52163 -1.156911,-0.68782 -1.537952,-0.94065 -0.344745,-0.22877 -1.719927,-0.92183 -1.97589,-0.99582 -0.01693,-0.005 -0.141498,-0.0571 -0.276843,-0.11612 -0.662821,-0.28882 -1.982873,-0.55721 -2.471935,-0.50257 -0.129233,0.0144 -0.581021,0.0423 -1.003975,0.0618 -0.422954,0.0196 -0.935113,0.0491 -1.13813,0.0658 -0.203018,0.0166 -1.033545,0.072 -1.845617,0.12284 -0.81207,0.051 -1.573387,0.10488 -1.691814,0.11997 -0.118424,0.0149 -0.533691,0.0551 -0.922808,0.0892 -0.389118,0.034 -0.92896,0.0835 -1.19965,0.10974 -1.222379,0.11897 -2.274429,-0.0137 -3.153478,-0.39773 -0.126583,-0.0553 -0.243993,-0.10264 -0.260914,-0.10526 -0.01693,-0.002 -0.06536,-0.0267 -0.107661,-0.0536 -0.0423,-0.0268 -0.0769,-0.0345 -0.0769,-0.0172 0,0.0551 -0.936583,-0.45772 -1.377537,-0.75429 -0.233183,-0.15683 -0.4685,-0.31285 -0.522925,-0.34669 -0.05442,-0.0338 -0.348829,-0.25811 -0.654228,-0.49839 -0.305402,-0.24029 -0.621443,-0.47563 -0.702318,-0.52294 -0.205649,-0.12034 -3.940122,-3.14342 -4.883917,-3.95359 -1.286626,-1.10446 -1.932978,-2.00293 -1.997099,-2.77617 -0.03851,-0.46439 0.0097,-0.60158 0.342274,-0.97343 0.159954,-0.17885 0.360038,-0.4102 0.444628,-0.51413 0.0846,-0.10387 0.361434,-0.41751 0.615207,-0.69691 0.536265,-0.59042 0.536962,-0.59123 1.345333,-1.59954 0.339092,-0.42295 0.755877,-0.9377 0.926191,-1.14389 0.385359,-0.46654 0.496036,-0.6757 0.49652,-0.93833 4.93e-4,-0.25364 -0.158802,-0.8204 -0.320509,-1.14052 -0.09787,-0.19374 -0.653791,-0.96022 -0.785996,-1.08369 -0.156152,-0.14583 -0.644578,-0.79076 -0.905004,-1.19499 -0.17604,-0.27325 -0.343064,-0.52451 -0.371163,-0.55834 -0.135549,-0.16322 -1.544557,-2.45707 -2.078413,-3.38364 -0.331423,-0.57521 -0.670952,-1.15467 -0.754509,-1.28768 -0.170548,-0.2715 -1.234993,-2.38601 -1.581576,-3.14179 -0.25539,-0.55693 -0.946849,-2.19651 -1.180496,-2.79918 -0.784248,-2.02294 -1.657519,-5.12149 -1.95169,-6.92503 -0.08794,-0.53921 -0.200511,-1.20184 -0.250142,-1.47254 -0.406445,-2.21679 -0.408886,-7.11416 -0.0046,-9.16292 0.04714,-0.23886 0.145048,-0.76649 0.217583,-1.17252 0.397323,-2.22416 1.426383,-5.22983 2.506487,-7.32095 0.545061,-1.05524 1.878185,-3.27741 2.048377,-3.4144 0.02102,-0.017 0.09055,-0.12071 0.154508,-0.23069 0.06396,-0.11 0.138008,-0.19994 0.164549,-0.19994 0.02654,0 0.04825,-0.0393 0.04825,-0.0871 0,-0.0479 0.02076,-0.0964 0.04615,-0.10764 0.02538,-0.0113 0.142579,-0.15893 0.260447,-0.32811 0.191837,-0.27534 0.336179,-0.4598 0.523941,-0.66952 0.03383,-0.0378 0.143996,-0.17945 0.244798,-0.3148 0.100804,-0.13534 0.244182,-0.31528 0.318618,-0.39988 0.138868,-0.15782 0.283231,-0.33119 0.527725,-0.63377 0.729554,-0.90288 2.570564,-2.71152 3.826042,-3.75876 0.239307,-0.19962 0.444332,-0.38649 0.455611,-0.41527 0.01122,-0.0288 0.05677,-0.0524 0.10108,-0.0524 0.04432,0 0.09601,-0.0401 0.114882,-0.0894 0.01887,-0.0491 0.153329,-0.16682 0.298804,-0.26146 0.145474,-0.0946 0.333426,-0.23436 0.417671,-0.31048 0.08425,-0.0761 0.17724,-0.13842 0.206651,-0.13842 0.02942,0 0.11275,-0.0537 0.185191,-0.11923 0.466881,-0.42273 0.630305,-0.55692 0.678615,-0.55717 0.0301,-1.8e-4 0.08548,-0.0377 0.123039,-0.0834 0.06775,-0.0824 1.682786,-1.15845 2.03696,-1.35715 0.10151,-0.057 0.378351,-0.22566 0.615204,-0.37491 0.919998,-0.57969 1.742551,-1.04963 2.929299,-1.67356 0.393006,-0.20661 0.766743,-0.4044 0.830527,-0.43953 1.054597,-0.5808 4.630393,-2.1055 6.298786,-2.68578 0.355282,-0.12358 0.825914,-0.28868 1.04585,-0.36692 0.219936,-0.0782 0.538305,-0.18744 0.707486,-0.24267 1.01206,-0.33036 1.70252,-0.54735 1.999418,-0.62835 0.186099,-0.0508 0.462941,-0.12894 0.615205,-0.17371 0.716307,-0.21063 1.593297,-0.44779 1.937897,-0.52407 0.135345,-0.0299 0.536766,-0.12797 0.892048,-0.2178 0.355281,-0.0898 0.812071,-0.20086 1.015089,-0.24672 0.203017,-0.0459 0.493701,-0.11497 0.645966,-0.15375 0.38126,-0.0969 0.332867,-0.087 2.122458,-0.4313 0.879744,-0.16923 1.710271,-0.32294 1.845616,-0.34158 0.270981,-0.0373 0.414451,-0.0617 0.645966,-0.11 0.08459,-0.0176 0.458328,-0.076 0.830528,-0.12965 0.372198,-0.0537 0.718251,-0.1095 0.769007,-0.12409 0.05076,-0.0146 0.244542,-0.0439 0.430643,-0.0652 0.186099,-0.0213 0.393731,-0.0467 0.461403,-0.0565 0.105542,-0.0152 1.209124,-0.1465 2.12246,-0.25249 0.152263,-0.0177 0.484474,-0.0571 0.738245,-0.0877 0.253773,-0.0305 0.655195,-0.0717 0.892049,-0.0914 0.236855,-0.0197 0.555223,-0.0477 0.707486,-0.0623 0.387432,-0.0372 0.93985,-0.0827 1.445733,-0.11897 0.236853,-0.0171 0.665959,-0.0493 0.953568,-0.0715 0.287608,-0.0223 0.702872,-0.0484 0.922807,-0.0582 0.219937,-0.0102 0.649043,-0.0318 0.953569,-0.0493 0.772009,-0.0441 3.963553,-0.12072 4.890884,-0.11735 2.101991,0.007 2.669646,0.0231 2.583862,0.0714 -0.05075,0.0285 -0.410651,0.071 -0.799767,0.0945 -0.389118,0.0236 -0.80438,0.054 -0.922808,0.0676 -0.118425,0.0136 -0.367586,0.0393 -0.553685,0.0571 -0.359378,0.0343 -0.833825,0.0874 -1.13813,0.12747 -0.101511,0.0133 -0.378351,0.041 -0.615205,0.0613 -0.236855,0.0204 -0.638277,0.0641 -0.892048,0.0971 -0.253773,0.0331 -0.599826,0.0741 -0.769007,0.0913 -0.169181,0.0172 -0.459865,0.0572 -0.645966,0.0889 -0.186099,0.0316 -0.462942,0.0726 -0.615205,0.0908 -0.634929,0.0762 -1.614502,0.25264 -3.41439,0.61494 -0.307406,0.0618 -0.708858,0.15349 -1.076609,0.24568 -0.219936,0.0551 -0.745937,0.18057 -1.168891,0.27872 -0.422953,0.0982 -0.92127,0.22143 -1.10737,0.27391 -0.186099,0.0525 -0.656731,0.18023 -1.045848,0.2839 -0.389118,0.10364 -0.79054,0.21274 -0.892048,0.24235 -0.10151,0.0296 -0.322983,0.0932 -0.492166,0.1413 -0.169181,0.0481 -0.414801,0.13228 -0.545814,0.18708 -0.131022,0.0548 -0.280511,0.0996 -0.332199,0.0996 -0.09233,0 -0.701963,0.21528 -1.613568,0.56979 -0.253773,0.0986 -0.724404,0.27165 -1.045849,0.38435 -0.697449,0.24453 -2.379061,0.95933 -2.768425,1.17676 -0.152263,0.0851 -0.498315,0.24662 -0.769006,0.35912 -0.45108,0.18745 -1.533026,0.70185 -1.753335,0.8336 -0.05076,0.0303 -0.324279,0.18777 -0.607833,0.34982 -0.283554,0.16205 -0.615764,0.35502 -0.738247,0.42883 -0.122478,0.0738 -0.307503,0.17405 -0.411158,0.22277 -0.216718,0.10187 -1.247931,0.77 -1.369324,0.88723 -0.0447,0.0431 -0.102761,0.0784 -0.129008,0.0784 -0.02624,0 -0.106527,0.0484 -0.178401,0.10763 -0.180219,0.14846 -0.705422,0.52624 -1.160074,0.83447 -0.601755,0.40792 -1.417592,1.05065 -2.00582,1.5802 -0.169132,0.15228 -0.36596,0.32656 -0.437396,0.38731 -0.247939,0.21085 -2.038199,2.01346 -2.25234,2.26788 -0.204463,0.24292 -0.584966,0.68742 -0.895778,1.04646 -0.193738,0.22378 -0.899216,1.20442 -1.043663,1.45071 -0.0645,0.10999 -0.138982,0.19993 -0.165523,0.19993 -0.02654,0 -0.04825,0.0288 -0.04825,0.0641 0,0.0353 -0.174683,0.31901 -0.388183,0.63059 -0.610587,0.89107 -1.77899,3.10107 -2.010937,3.80362 -0.07129,0.21592 -0.166728,0.47565 -0.212094,0.57715 -0.15069,0.33717 -0.660025,1.90276 -0.710518,2.18398 -0.02734,0.15226 -0.122253,0.55263 -0.21091,0.8897 -0.468996,1.78304 -0.681263,4.1635 -0.581223,6.51811 0.04873,1.14692 0.192386,2.73826 0.269905,2.98984 0.01575,0.0511 0.08406,0.38333 0.151805,0.73824 0.302136,1.58302 0.39529,1.98573 0.712737,3.08131 0.356343,1.22982 0.515551,1.68136 1.25602,3.56223 0.352984,0.89663 1.576274,3.46794 1.902422,3.99885 0.09354,0.15225 0.281621,0.47062 0.417953,0.70748 0.37023,0.64321 1.282915,2.1591 1.575783,2.61725 0.910109,1.42371 3.694382,5.06099 4.683733,6.11867 0.126602,0.13534 0.330215,0.37065 0.452475,0.52293 0.246978,0.30758 1.043123,1.22661 1.145852,1.32268 0.03617,0.0338 0.20249,0.22763 0.369587,0.43064 0.309767,0.37637 0.46254,0.54233 1.972698,2.14313 0.850151,0.90119 2.422969,2.46769 3.260338,3.24725 0.964399,0.89783 3.167742,2.8882 3.60655,3.25795 0.257952,0.21736 0.880848,0.74252 1.384212,1.16703 1.072161,0.9042 2.249474,1.85806 2.881899,2.33496 1.380995,1.04133 2.280455,1.70956 2.484235,1.84561 0.126721,0.0846 0.339841,0.23961 0.473598,0.34452 0.263327,0.20649 0.59707,0.44225 1.504375,1.06266 0.321444,0.21982 0.695181,0.48452 0.830527,0.58823 0.135345,0.10375 0.290978,0.21626 0.345863,0.25009 0.05487,0.0338 0.396277,0.26223 0.758664,0.50754 0.362386,0.24531 0.673397,0.44602 0.691135,0.44602 0.01773,0 0.133124,0.0793 0.256423,0.17635 0.123288,0.0971 0.38513,0.27 0.581848,0.38449 0.196726,0.11449 0.404793,0.23586 0.462371,0.26969 0.05757,0.0338 0.201153,0.13357 0.319051,0.22162 0.117901,0.0881 0.255883,0.17832 0.306637,0.2006 0.05076,0.0223 0.175334,0.0948 0.276842,0.16117 0.10151,0.0663 0.292132,0.1837 0.423606,0.26078 0.131476,0.0771 0.28374,0.16814 0.338364,0.20235 0.05463,0.0342 0.253199,0.15876 0.441274,0.27684 0.18808,0.1181 0.395712,0.24832 0.461404,0.28948 0.06569,0.0412 0.361144,0.21594 0.65656,0.38844 0.295408,0.17248 0.551248,0.3365 0.568535,0.36449 0.01729,0.028 0.177013,0.12783 0.354943,0.22191 0.465188,0.24596 0.60789,0.3265 0.815671,0.46032 0.10151,0.0653 0.226088,0.13995 0.276842,0.16574 0.05075,0.0258 0.281315,0.15758 0.512355,0.29293 0.400247,0.23447 0.813357,0.47255 1.148699,0.66199 0.263566,0.14889 1.38273,0.75429 2.21474,1.19803 0.219936,0.11736 0.538305,0.2926 0.707486,0.38954 0.169182,0.0969 0.376814,0.20488 0.461404,0.23987 0.08459,0.035 0.195328,0.0897 0.246082,0.12146 0.122428,0.0767 3.575685,1.79447 4.55252,2.26458 0.81551,0.39247 1.235364,0.58881 1.784096,0.83433 0.1861,0.0833 0.504468,0.22935 0.707487,0.32465 0.203017,0.0953 0.382964,0.17697 0.399882,0.18152 0.09028,0.0243 0.712668,0.29273 1.13813,0.4909 0.169182,0.0788 0.515236,0.23058 0.769007,0.33732 0.253773,0.10675 0.578762,0.24726 0.722197,0.31231 0.143433,0.0651 0.281855,0.11923 0.307601,0.12034 0.02575,0.001 0.157549,0.0556 0.292894,0.12098 0.135345,0.0653 0.264378,0.11985 0.286741,0.12096 0.02236,0.001 0.243831,0.0961 0.492164,0.21117 0.248328,0.11499 0.645296,0.2786 0.88215,0.36353 0.236853,0.0849 0.513696,0.18924 0.615205,0.23178 0.10151,0.0425 0.198404,0.0819 0.215322,0.0876 0.01693,0.006 0.11381,0.0451 0.215321,0.0875 0.191894,0.0803 0.518745,0.20699 1.507255,0.58438 0.321439,0.12271 0.671675,0.26397 0.778301,0.3139 0.106627,0.0499 0.233506,0.0908 0.281968,0.0908 0.04851,0 0.108872,0.0207 0.134251,0.0462 0.02531,0.0254 0.0646,0.0479 0.08718,0.0499 0.02258,0.002 0.148517,0.0506 0.279912,0.108 0.131381,0.0573 0.30198,0.11561 0.3791,0.12964 0.0771,0.0139 0.19981,0.0573 0.27266,0.0962 0.0728,0.039 0.18495,0.0809 0.24918,0.0934 0.0642,0.0125 0.20914,0.0663 0.32204,0.11984 0.11286,0.0537 0.25927,0.109 0.32527,0.12322 0.066,0.0142 0.64599,0.21044 1.28888,0.43607 1.16638,0.40934 2.00933,0.69291 2.18398,0.7347 0.0508,0.0125 0.0993,0.0277 0.10763,0.0344 0.009,0.006 0.0361,0.017 0.0614,0.0226 0.0255,0.005 0.2261,0.0714 0.44603,0.14601 0.21993,0.0747 0.42757,0.14019 0.46141,0.1455 0.0338,0.005 0.14457,0.0444 0.24608,0.0868 0.10147,0.0424 0.21224,0.0831 0.24608,0.0905 0.0812,0.0177 0.12421,0.0307 0.52293,0.15684 0.1861,0.0589 0.33836,0.0993 0.33836,0.0898 0,-0.0102 0.0969,0.0231 0.21533,0.0727 0.11848,0.0494 0.23608,0.0943 0.26145,0.0995 0.0253,0.005 0.053,0.0113 0.0614,0.0143 0.009,0.002 0.0568,0.015 0.10762,0.0279 0.0508,0.0127 0.56292,0.16586 1.13814,0.34024 1.53813,0.46632 2.62473,0.78483 2.79919,0.82054 0.0846,0.0173 0.23491,0.048 0.33404,0.0682 0.0991,0.0202 0.20285,0.0508 0.23048,0.0678 0.0275,0.0171 0.11149,0.0428 0.18636,0.0572 0.0748,0.0143 0.48331,0.12221 0.90765,0.23959 0.42434,0.11735 0.84073,0.22645 0.92533,0.24242 0.0846,0.016 0.65211,0.15821 1.26117,0.31604 0.60905,0.15785 1.22442,0.31128 1.36749,0.34096 0.14307,0.0297 0.40607,0.0956 0.58444,0.14648 0.17838,0.0509 0.42122,0.10813 0.53966,0.12736 0.11847,0.0192 0.25683,0.0468 0.3076,0.0612 0.0508,0.0144 0.18916,0.0422 0.3076,0.0614 0.11848,0.0193 0.25684,0.0469 0.3076,0.0613 0.0508,0.0143 0.16149,0.0383 0.24609,0.053 0.42172,0.0738 0.67685,0.13055 0.79976,0.17793 0.0508,0.0196 0.18918,0.05 0.3076,0.0677 0.11847,0.0177 0.67212,0.12802 1.23041,0.24524 0.55829,0.11723 1.1208,0.22985 1.25001,0.25029 0.1292,0.0205 0.43373,0.0766 0.67672,0.12477 0.243,0.0481 0.56639,0.10861 0.71865,0.13445 0.15227,0.0258 0.29069,0.0498 0.3076,0.0532 0.0458,0.0102 0.43912,0.0892 0.61521,0.12446 0.0846,0.017 0.31992,0.0583 0.52293,0.0916 0.20302,0.0334 0.42791,0.0726 0.49975,0.0869 0.0719,0.0143 0.2241,0.0412 0.33837,0.0597 0.11422,0.0184 0.52609,0.0876 0.91521,0.1538 0.38912,0.066 0.98434,0.15178 1.3227,0.1904 0.33836,0.0387 0.73979,0.0951 0.89204,0.12565 0.15226,0.0304 0.40142,0.0704 0.55369,0.0887 0.15226,0.0183 0.33493,0.0446 0.40592,0.0586 0.071,0.0139 0.27862,0.0428 0.46141,0.0641 0.4394,0.0512 0.78947,0.0966 0.97828,0.12623 0.20084,0.0316 2.81404,0.32581 3.29136,0.37051 0.20301,0.0189 0.49369,0.046 0.64596,0.0599 0.15226,0.014 0.41527,0.0401 0.58445,0.0584 0.16918,0.0182 0.50139,0.0476 0.73824,0.0656 0.23686,0.0179 0.54138,0.044 0.67672,0.0578 0.13535,0.0139 0.5783,0.0434 0.98433,0.0653 0.40603,0.0221 0.86283,0.0503 1.01509,0.0628 0.15227,0.0125 0.6229,0.0396 1.04585,0.0603 0.42296,0.0207 0.92127,0.0476 1.10738,0.0597 2.4356,0.15844 8.66008,0.15868 11.44281,6.1e-4 0.82314,-0.0468 1.59916,-0.0961 1.96866,-0.12528 0.56857,-0.0447 1.83161,-0.15367 2.12246,-0.183 0.13534,-0.0136 0.39834,-0.0378 0.58445,-0.0537 0.96506,-0.0822 1.66382,-0.15643 1.78409,-0.18963 0.0508,-0.0139 0.27224,-0.042 0.49217,-0.0624 0.44863,-0.0414 0.59901,-0.0593 0.95357,-0.11311 0.13534,-0.0206 0.41218,-0.0542 0.6152,-0.0745 0.20302,-0.0205 0.47986,-0.0612 0.6152,-0.0906 0.13534,-0.0295 0.41219,-0.0722 0.61522,-0.0951 0.20301,-0.0228 0.38421,-0.0505 0.40267,-0.0613 0.0184,-0.0113 0.18457,-0.036 0.36913,-0.0559 0.18456,-0.0199 0.47398,-0.0626 0.64316,-0.095 0.16918,-0.0324 0.37681,-0.0719 0.4614,-0.0876 0.0846,-0.0159 0.37138,-0.072 0.63728,-0.12471 0.2659,-0.0527 0.57043,-0.107 0.67673,-0.1206 0.10625,-0.0136 0.52308,-0.0989 0.9262,-0.18967 0.40313,-0.0908 0.98451,-0.21643 1.29193,-0.27923 0.5328,-0.10886 1.41901,-0.31101 1.88167,-0.42929 0.11847,-0.0303 0.56137,-0.14107 0.98433,-0.24622 0.42295,-0.10512 1.08738,-0.2738 1.47649,-0.37479 0.38912,-0.10106 0.76286,-0.19564 0.83052,-0.21033 0.0677,-0.0147 0.55215,-0.16786 1.07663,-0.34037 0.52444,-0.17253 1.0366,-0.33743 1.13812,-0.36645 0.16497,-0.0471 0.53912,-0.17797 2.27626,-0.79572 0.2707,-0.0962 0.62606,-0.23335 0.78972,-0.30463 0.16364,-0.0714 0.5097,-0.20174 0.76899,-0.2899 0.63197,-0.21485 2.61748,-1.0455 2.84001,-1.18813 0.0508,-0.0326 0.57677,-0.29666 1.16889,-0.58695 0.59214,-0.29028 1.35345,-0.67816 1.69181,-0.8619 0.33837,-0.18376 0.72595,-0.39172 0.86129,-0.46212 0.13535,-0.0704 0.32432,-0.17115 0.41993,-0.2239 0.31254,-0.17241 0.26154,-0.0223 -0.1085,0.31935 -0.38149,0.35221 -0.46847,0.42494 -1.35727,1.13468 -0.30453,0.24316 -0.60906,0.48815 -0.67673,0.5444 -0.0677,0.0562 -0.30299,0.23953 -0.52293,0.40724 -0.21993,0.16773 -0.43353,0.33351 -0.47464,0.3684 -0.22019,0.18683 -0.26155,0.21724 -0.29539,0.21724 -0.0696,0 -1.0446,0.76272 -1.21506,0.95055 -0.0937,0.10313 -0.25273,0.35368 -0.35354,0.5567 -0.29825,0.60063 -0.25132,1.1134 0.15458,1.68846 0.10875,0.1541 0.35663,0.5432 0.55078,0.86464 0.19416,0.32145 0.46068,0.75056 0.5923,0.95358 0.1316,0.20301 0.36662,0.57675 0.52226,0.83053 0.27742,0.45233 0.59091,0.92695 1.055,1.5973 1.04207,1.50521 1.17896,1.73148 1.24774,2.06278 0.11273,0.54301 -0.10663,1.07302 -0.67265,1.6251 -0.47393,0.46227 -0.3682,0.39933 -1.78811,1.06431 -1.56309,0.73203 -1.58346,0.74101 -2.8607,1.26138 -2.20757,0.89937 -2.36444,0.9549 -3.53743,1.25214 -0.75531,0.19139 -1.90975,0.17547 -2.98374,-0.0412 -0.13535,-0.0273 -0.25992,-0.0522 -0.27685,-0.0555 -0.21003,-0.0395 -0.54648,-0.19522 -2.87394,-1.32945 -1.73577,-0.84587 -2.31671,-1.12501 -2.35531,-1.13171 -0.0285,-0.005 -0.19398,-0.0813 -1.10736,-0.51102 -0.1861,-0.0875 -0.35221,-0.16091 -0.36912,-0.16302 -0.017,-0.002 -0.30762,-0.13789 -0.64598,-0.30175 -0.33835,-0.16386 -0.67057,-0.32072 -0.73824,-0.34858 -0.0677,-0.0279 -0.303,-0.13275 -0.52292,-0.23311 -0.77198,-0.35228 -1.0151,-0.45829 -1.0151,-0.44264 0,0.009 -0.10375,-0.0275 -0.2307,-0.0806 -0.12688,-0.053 -0.23069,-0.0847 -0.23069,-0.0703 0,0.0143 -0.0742,-0.002 -0.1648,-0.0366 -0.55506,-0.21103 -2.55137,-0.1948 -3.47407,0.0281 -0.62087,0.1501 -1.2061,0.26927 -2.88232,0.58695 -1.97999,0.37525 -3.18206,0.58666 -3.66048,0.64379 -0.10147,0.0125 -0.33685,0.0526 -0.52293,0.09 -0.18609,0.0374 -0.43524,0.0807 -0.55367,0.096 -0.2861,0.0372 -0.6107,0.0878 -0.79976,0.12474 -0.0846,0.0166 -0.27838,0.0462 -0.43065,0.0658 -0.15225,0.0197 -0.53984,0.0777 -0.86128,0.12901 -0.32145,0.0514 -0.69518,0.104 -0.83053,0.11723 -0.13535,0.0131 -0.34298,0.0372 -0.4614,0.0534 -0.11848,0.0162 -0.40912,0.0465 -0.64597,0.0673 -0.58884,0.0515 -1.54719,0.14802 -1.84561,0.18579 -0.13535,0.0171 -0.37067,0.0447 -0.52292,0.0612 -0.23717,0.0258 -0.72614,0.0812 -1.04586,0.11848 -0.0508,0.006 -0.29869,0.0745 -0.55097,0.15255 -1.09315,0.33798 -1.51296,0.64716 -1.68183,1.23862 -0.17134,0.60013 -0.61909,3.26903 -0.78097,4.65516 -0.064,0.54828 -0.14994,1.06044 -0.19091,1.13813 -0.2547,0.48293 -1.16904,0.92809 -2.33216,1.13546 -0.23421,0.0418 -3.89994,0.0974 -3.94222,0.0599 z m 11.44675,-15.68418 c -0.0164,-0.0149 -1.06797,-0.0456 -2.33683,-0.0677 -1.26886,-0.0222 -2.40391,-0.0511 -2.52233,-0.0641 -0.11848,-0.0131 -0.63058,-0.0419 -1.13813,-0.0641 -0.90694,-0.0398 -1.29622,-0.063 -2.03019,-0.12135 -0.20302,-0.0161 -0.59059,-0.0451 -0.86127,-0.0641 -0.55649,-0.0393 -1.69612,-0.14099 -2.14381,-0.1912 -0.16399,-0.0184 -0.41314,-0.0438 -0.55368,-0.0562 -0.29485,-0.0263 -0.48179,-0.0474 -2.19341,-0.24633 -0.69364,-0.0807 -1.33038,-0.15916 -1.41496,-0.17446 -0.26292,-0.0475 -0.69182,-0.10065 -1.07662,-0.13313 -0.20302,-0.0172 -0.41065,-0.0429 -0.4614,-0.0571 -0.0508,-0.0142 -0.24183,-0.0438 -0.42461,-0.0656 -0.18276,-0.0218 -0.38929,-0.0506 -0.45893,-0.064 -0.0696,-0.0134 -0.23846,-0.04 -0.37517,-0.0592 -0.13669,-0.0192 -0.29007,-0.0463 -0.34082,-0.0604 -0.0508,-0.0139 -0.3276,-0.0543 -0.61521,-0.0894 -0.28761,-0.0351 -0.57829,-0.0742 -0.64596,-0.0866 -0.0677,-0.0125 -0.25705,-0.0422 -0.42084,-0.0659 -0.16377,-0.0239 -0.35757,-0.0553 -0.43064,-0.0698 -0.0731,-0.0146 -0.29895,-0.0539 -0.50197,-0.0873 -0.37686,-0.062 -0.55818,-0.0956 -0.83053,-0.15379 -0.27013,-0.0576 -0.45249,-0.0915 -0.83053,-0.15417 -0.50952,-0.0844 -0.6606,-0.11223 -1.19965,-0.22075 -0.0846,-0.0171 -0.84591,-0.16922 -1.69181,-0.33821 -0.84592,-0.16899 -1.69028,-0.34626 -1.87638,-0.39393 -0.1861,-0.0476 -0.43526,-0.10326 -0.55369,-0.12359 -0.11848,-0.0204 -0.61674,-0.13513 -1.10737,-0.25516 -0.49062,-0.12011 -0.93418,-0.22654 -0.98567,-0.23666 -0.0949,-0.0185 -1.10789,-0.27498 -2.6748,-0.67686 -0.47371,-0.12147 -0.99279,-0.25969 -1.15351,-0.30706 -0.16071,-0.0474 -0.29223,-0.0728 -0.29223,-0.0565 0,0.0162 -0.0511,0.002 -0.11347,-0.0311 -0.0625,-0.0334 -0.1801,-0.0747 -0.26148,-0.0916 -0.0813,-0.017 -0.22834,-0.0473 -0.32663,-0.0674 -0.0983,-0.0201 -0.22978,-0.0639 -0.29223,-0.0973 -0.0625,-0.0334 -0.11348,-0.0466 -0.11348,-0.0293 0,0.0172 -0.0761,0.002 -0.16918,-0.0341 -0.0931,-0.036 -0.22455,-0.0766 -0.29222,-0.09 -0.11523,-0.023 -0.60565,-0.16254 -0.95356,-0.27128 -0.0846,-0.0264 -0.26454,-0.0787 -0.39989,-0.11623 -0.56458,-0.15634 -2.54272,-0.76429 -3.38363,-1.03992 -0.16918,-0.0555 -0.32145,-0.10438 -0.33836,-0.10862 -0.017,-0.004 -0.0724,-0.0241 -0.1231,-0.0439 -0.0865,-0.0338 -0.91717,-0.30829 -0.98433,-0.32533 -0.017,-0.004 -0.0723,-0.0231 -0.12308,-0.042 -0.27601,-0.10229 -0.87833,-0.30445 -0.97028,-0.32565 -0.16257,-0.0376 -3.19,-1.10113 -3.64377,-1.28014 -0.0508,-0.0201 -0.3968,-0.14838 -0.769013,-0.28527 -0.372196,-0.13689 -0.732083,-0.27592 -0.799763,-0.30898 -0.06772,-0.0331 -0.386038,-0.15818 -0.707478,-0.27806 -0.321451,-0.11983 -0.625979,-0.23559 -0.676736,-0.25716 -0.05076,-0.0216 -0.106128,-0.0439 -0.123089,-0.0498 -0.01696,-0.006 -0.11386,-0.0453 -0.215311,-0.0878 -0.10151,-0.0425 -0.378356,-0.14725 -0.615211,-0.23268 -0.236854,-0.0854 -0.458328,-0.17503 -0.492164,-0.19912 -0.03383,-0.0241 -0.199942,-0.0937 -0.369123,-0.15446 -0.169181,-0.0608 -0.390656,-0.14658 -0.492164,-0.19047 -0.10151,-0.0439 -0.392193,-0.16708 -0.645966,-0.27374 -0.253772,-0.10663 -0.558299,-0.23664 -0.676726,-0.28882 -0.118424,-0.0522 -0.298375,-0.13107 -0.399884,-0.17528 -0.10151,-0.0442 -0.344564,-0.15167 -0.540126,-0.2388 -0.195561,-0.0871 -0.366656,-0.1584 -0.380215,-0.1584 -0.01356,0 -0.213445,-0.0853 -0.444197,-0.18952 -0.230758,-0.10427 -0.516452,-0.23181 -0.634879,-0.28347 -0.118424,-0.0516 -0.353744,-0.15778 -0.522925,-0.23587 -0.169181,-0.078 -0.529077,-0.24409 -0.799767,-0.36892 -0.867526,-0.40007 -3.748096,-1.78733 -4.429479,-2.1332 -1.408851,-0.71512 -2.31687,-1.19164 -3.106787,-1.63037 -0.186101,-0.1034 -0.670574,-0.36207 -1.076609,-0.5749 -0.406036,-0.21283 -0.835142,-0.44671 -0.953569,-0.51973 -0.118424,-0.073 -0.256848,-0.1526 -0.307603,-0.17683 -0.05076,-0.0242 -0.148891,-0.0776 -0.218085,-0.1186 -0.06919,-0.041 -0.616331,-0.36516 -1.215866,-0.72045 -0.599536,-0.35528 -1.138135,-0.67367 -1.196889,-0.70753 -0.331565,-0.19105 -1.276754,-0.75365 -1.417963,-0.84399 -0.09095,-0.0583 -0.248407,-0.1521 -0.349915,-0.20872 -0.10151,-0.0566 -0.378352,-0.22784 -0.615206,-0.38055 -0.236853,-0.15269 -0.582907,-0.37449 -0.769007,-0.49291 -0.977758,-0.62209 -3.814574,-2.50084 -4.429479,-2.93353 -0.730643,-0.51415 -0.971827,-0.68829 -1.447257,-1.04497 -0.271535,-0.20371 -0.669929,-0.49495 -0.885318,-0.64722 -0.504304,-0.35649 -1.543219,-1.16828 -1.543219,-1.20584 0,-0.0457 0.228611,0.0881 0.732876,0.42897 0.256726,0.1735 0.51465,0.34314 0.573169,0.37699 0.05852,0.0338 0.418407,0.25101 0.799767,0.48264 2.608717,1.58438 3.383832,2.02679 5.645777,3.22243 1.271186,0.67194 5.564649,2.7851 5.721409,2.81598 0.01693,0.004 0.183024,0.0774 0.369125,0.16456 0.186099,0.0871 0.462941,0.21488 0.615204,0.28376 0.152263,0.0688 0.48669,0.22128 0.743175,0.33862 0.256479,0.11735 0.533321,0.23385 0.615206,0.25889 0.08187,0.0251 0.273451,0.10055 0.425715,0.16776 0.556995,0.24588 0.65442,0.28795 1.10737,0.47835 0.253772,0.10663 0.54864,0.23336 0.655261,0.28153 0.106627,0.0481 0.209619,0.0875 0.228881,0.0875 0.01927,0 0.181185,0.0654 0.359827,0.14564 0.178645,0.0801 0.463225,0.19667 0.632406,0.25907 0.169183,0.0623 0.376814,0.14896 0.461405,0.19236 0.0846,0.0434 0.184157,0.079 0.221253,0.0793 0.0371,0 0.147833,0.0391 0.246081,0.0865 0.183104,0.0883 4.226407,1.56984 4.392789,1.60963 0.05075,0.0125 0.715176,0.23333 1.476494,0.49155 0.761316,0.2582 1.425738,0.47939 1.476492,0.49153 0.05076,0.0125 0.452177,0.135 0.892049,0.27301 0.43987,0.13803 0.841292,0.26149 0.892046,0.27438 0.05075,0.0128 0.168413,0.0528 0.261463,0.0889 0.09304,0.036 0.169182,0.055 0.169182,0.0423 0,-0.0127 0.1315,0.0176 0.292222,0.0674 0.160722,0.0499 0.347591,0.10219 0.415263,0.11623 0.06768,0.0141 0.510616,0.13817 0.984326,0.27576 0.84048,0.24413 1.06931,0.30691 2.337785,0.64128 0.33836,0.0892 0.69826,0.18757 0.79976,0.21863 0.10151,0.031 0.27415,0.0715 0.38363,0.0899 0.1095,0.0184 0.54591,0.11585 0.96982,0.21661 0.42393,0.10075 0.86035,0.19818 0.96983,0.21659 0.1095,0.0184 0.28212,0.0597 0.38363,0.0917 0.10147,0.0321 0.46829,0.11374 0.81504,0.18165 0.34677,0.0679 0.74818,0.15101 0.89205,0.18477 0.40532,0.0951 3.00031,0.59441 3.86053,0.74278 0.18609,0.0322 0.39372,0.0693 0.4614,0.0829 1.05161,0.20938 2.87566,0.49125 3.6297,0.56089 0.44166,0.0408 0.62325,0.0642 0.89205,0.11511 0.0846,0.016 0.3098,0.046 0.50048,0.0666 0.19067,0.0206 0.3983,0.0474 0.4614,0.0595 0.0631,0.0125 0.32236,0.0408 0.57613,0.0637 0.25378,0.0229 0.53062,0.0523 0.6152,0.0653 0.1642,0.0252 1.91635,0.21158 2.27627,0.24214 0.20346,0.0173 0.9726,0.0738 1.72258,0.12671 0.18609,0.0131 0.96125,0.0537 1.72257,0.0899 0.76131,0.0365 1.63337,0.0785 1.9379,0.0938 0.75121,0.0376 5.62257,0.0398 6.12128,0.002 0.21995,-0.0163 0.91633,-0.0459 1.54751,-0.0657 0.6312,-0.0199 1.21257,-0.0469 1.29194,-0.0601 0.22421,-0.0373 0.68625,-0.082 1.59004,-0.15398 0.45679,-0.0365 1.16275,-0.1055 1.56878,-0.1535 0.40603,-0.048 0.86282,-0.10065 1.01508,-0.11686 0.64952,-0.0692 1.00463,-0.11311 1.87638,-0.23186 0.50755,-0.0691 0.99717,-0.13526 1.08805,-0.14694 0.0909,-0.0113 0.3262,-0.0504 0.52293,-0.0858 0.19672,-0.0355 0.44073,-0.0766 0.54223,-0.091 0.21711,-0.0311 2.33232,-0.45559 3.3653,-0.67533 0.76978,-0.16374 1.59272,-0.3712 2.63297,-0.66375 0.82902,-0.23315 1.63952,-0.45688 2.18397,-0.60289 1.21782,-0.32658 4.81685,-1.75131 6.92106,-2.73982 0.45679,-0.2146 0.89975,-0.4195 0.98433,-0.45535 0.0846,-0.0359 0.3368,-0.16926 0.56044,-0.29647 0.66291,-0.377 1.77396,-1.02398 1.92902,-1.1233 0.0791,-0.0508 0.3336,-0.20092 0.56526,-0.33372 0.23165,-0.1328 0.63511,-0.3958 0.89659,-0.58444 0.26146,-0.18865 0.61649,-0.4399 0.78897,-0.55833 0.35311,-0.24247 1.65282,-1.21917 1.75538,-1.31914 0.0367,-0.0358 0.18075,-0.15757 0.32002,-0.2706 0.57858,-0.46959 1.26873,-1.09746 2.00562,-1.82465 0.34287,-0.33838 0.80306,-0.78476 1.02264,-0.99199 0.70914,-0.66925 2.02793,-2.092 2.63307,-2.84065 0.9031,-1.11724 1.56989,-2.00104 1.79635,-2.38094 0.0807,-0.13535 0.16437,-0.25992 0.18596,-0.27684 0.0216,-0.017 0.13378,-0.1877 0.24933,-0.3795 0.1156,-0.19182 0.34575,-0.56557 0.51156,-0.83053 0.74328,-1.18779 1.60614,-2.84142 1.9046,-3.6501 0.0812,-0.21993 0.27754,-0.71825 0.43638,-1.10736 0.75147,-1.84098 1.17161,-3.42122 1.70106,-6.39814 0.29547,-1.66132 0.40215,-4.33007 0.26682,-6.67498 -0.19862,-3.4413 -1.2025,-7.86632 -2.54715,-11.22749 -1.06006,-2.64981 -2.83141,-6.27733 -3.78496,-7.75107 -0.14247,-0.22023 -0.36561,-0.58036 -0.4958,-0.80029 -1.20085,-2.02828 -4.3038,-6.30395 -5.62629,-7.75271 -0.0508,-0.0556 -0.35529,-0.41567 -0.67674,-0.80013 -0.32144,-0.38448 -0.62597,-0.74362 -0.67673,-0.79809 -0.0508,-0.0545 -0.34031,-0.37441 -0.64347,-0.71097 -0.88803,-0.98584 -3.07383,-3.24955 -3.96961,-4.11108 -0.32092,-0.30866 -0.66698,-0.64489 -0.76901,-0.74718 -0.10198,-0.10229 -0.3793,-0.36239 -0.61615,-0.57799 -0.23686,-0.21563 -0.58547,-0.53336 -0.7747,-0.70609 -0.18923,-0.17271 -0.63002,-0.56319 -0.97953,-0.86772 -0.34951,-0.30453 -0.78989,-0.69394 -0.97863,-0.86538 -0.58028,-0.52707 -4.51473,-3.70167 -5.11464,-4.12685 -0.33264,-0.23577 -1.07536,-0.79309 -1.53515,-1.15197 -0.18649,-0.14559 -0.40796,-0.30093 -0.49215,-0.34521 -0.0842,-0.0442 -0.27762,-0.18125 -0.42989,-0.30438 -0.28062,-0.22691 -0.66693,-0.49644 -1.00505,-0.70122 -0.10229,-0.0618 -0.3014,-0.20725 -0.44264,-0.32298 -0.14124,-0.11573 -0.27984,-0.21042 -0.30802,-0.21042 -0.0282,0 -0.10837,-0.0527 -0.17822,-0.11723 -0.0698,-0.0645 -0.21304,-0.16827 -0.3182,-0.23072 -0.10512,-0.0625 -0.35429,-0.22613 -0.55368,-0.36378 -0.55091,-0.38036 -1.06424,-0.72328 -1.43911,-0.96141 -0.18611,-0.11822 -0.54599,-0.3481 -0.79977,-0.5109 -0.99908,-0.64085 -1.6717,-1.06684 -1.99855,-1.26575 -0.43606,-0.26535 -0.49098,-0.2968 -0.62547,-0.3581 -0.0728,-0.0332 -0.15167,-0.0914 -0.17517,-0.12947 -0.0234,-0.0381 -0.10229,-0.0953 -0.17515,-0.12722 -0.14676,-0.0643 -0.53883,-0.28699 -1.40124,-0.7956 -0.31555,-0.1861 -0.61596,-0.35945 -0.66756,-0.38522 -0.0516,-0.0258 -0.17687,-0.10168 -0.27838,-0.16851 -0.10157,-0.067 -0.22609,-0.14093 -0.27685,-0.16448 -0.0508,-0.0236 -0.28608,-0.15633 -0.52292,-0.29502 -0.23685,-0.1387 -0.52753,-0.30091 -0.64597,-0.36047 -0.11847,-0.0596 -0.29837,-0.16112 -0.39988,-0.22571 -0.10147,-0.0646 -0.35066,-0.20178 -0.55369,-0.30485 -0.20301,-0.10314 -0.50754,-0.26585 -0.67672,-0.36171 -0.94257,-0.5341 -5.62913,-2.91267 -5.62913,-2.85694 0,0.0197 -0.0484,-0.007 -0.10763,-0.0616 -0.0593,-0.0537 -0.12841,-0.0994 -0.15377,-0.10187 -0.0253,-0.002 -0.38529,-0.16752 -0.79979,-0.36688 -0.84785,-0.40779 -1.70753,-0.80638 -1.73915,-0.80638 -0.0222,0 -0.70286,-0.30508 -1.73282,-0.77671 -0.17548,-0.0803 -0.3322,-0.14609 -0.34827,-0.14609 -0.0161,0 -0.23611,-0.0969 -0.489,-0.21533 -0.25288,-0.11848 -0.47601,-0.21533 -0.49582,-0.21533 -0.0319,0 -0.33121,-0.12862 -0.94102,-0.40446 -0.10663,-0.0482 -0.20963,-0.0876 -0.22889,-0.0876 -0.0194,0 -0.18633,-0.0692 -0.37126,-0.1538 -0.18493,-0.0846 -0.35104,-0.15379 -0.36913,-0.15379 -0.0288,0 -0.51043,-0.20643 -0.86705,-0.37163 -0.0677,-0.0313 -0.38604,-0.15505 -0.70748,-0.27491 -0.32145,-0.11985 -0.62598,-0.2356 -0.67673,-0.25717 -0.0508,-0.0216 -0.10613,-0.0439 -0.12308,-0.0498 -0.033,-0.0113 -0.3032,-0.12421 -0.55369,-0.23155 -0.0846,-0.0362 -0.17455,-0.0717 -0.19994,-0.0787 -0.0253,-0.007 -0.06,-0.0199 -0.0769,-0.0282 -0.017,-0.009 -0.0561,-0.0188 -0.0871,-0.023 -0.031,-0.004 -0.0772,-0.0285 -0.10251,-0.0539 -0.0255,-0.0253 -0.0899,-0.0463 -0.14355,-0.0465 -0.0537,-1.9e-4 -0.17671,-0.0418 -0.27362,-0.0923 -0.0969,-0.0505 -0.19893,-0.0919 -0.22669,-0.0919 -0.0279,0 -0.12843,-0.0323 -0.22367,-0.0717 -0.0952,-0.0394 -0.18704,-0.0757 -0.20395,-0.0807 -0.017,-0.005 -0.13574,-0.0548 -0.26404,-0.11075 -0.1283,-0.056 -0.56098,-0.21259 -0.96151,-0.34794 -0.40051,-0.13533 -1.15375,-0.40215 -1.67385,-0.59291 -0.5201,-0.19076 -0.97333,-0.35362 -1.00716,-0.36191 -0.0338,-0.009 -0.103,-0.0313 -0.1538,-0.0513 -0.12709,-0.0499 -1.98476,-0.66961 -2.06094,-0.68753 -0.0338,-0.007 -0.10301,-0.0303 -0.15381,-0.0497 -0.10188,-0.0388 -1.1814,-0.37711 -1.2304,-0.38564 -0.0378,-0.006 -1.26391,-0.38467 -1.47649,-0.45529 -0.0846,-0.028 -0.27838,-0.0857 -0.43065,-0.12808 -0.42609,-0.11847 -0.67564,-0.20497 -0.65391,-0.22669 0.0113,-0.0113 0.44617,0.066 0.9674,0.17099 0.52122,0.10489 1.01689,0.20324 1.10148,0.21851 0.0846,0.0153 0.19534,0.0395 0.24609,0.0539 0.0508,0.0143 0.17917,0.0408 0.28537,0.0588 0.10625,0.0179 0.47995,0.10024 0.83053,0.18302 0.35059,0.0827 0.70664,0.16448 0.79124,0.18172 0.49822,0.10167 1.2425,0.27613 1.90713,0.44719 1.1962,0.30788 2.87182,0.68632 3.20738,0.72438 0.19067,0.0216 0.41214,0.0521 0.49217,0.0677 0.38354,0.0747 1.36832,0.0933 1.8373,0.0345 0.5834,-0.073 0.88173,-0.20403 1.7881,-0.78535 1.12387,-0.72081 3.54811,-2.3398 4.08711,-2.7295 0.78921,-0.5706 1.07581,-0.67674 1.93791,-0.7177 0.66506,-0.0315 1.51259,0.0508 2.03017,0.19739 0.0508,0.0143 0.18541,0.0419 0.29924,0.0612 0.34577,0.0586 1.07428,0.27031 1.61703,0.46991 0.28259,0.10388 0.55532,0.19779 0.60607,0.2086 0.0508,0.0113 0.0922,0.0239 0.0922,0.0291 0,0.005 0.0416,0.0199 0.0923,0.0327 0.41208,0.10364 6.19966,2.20105 6.63211,2.40349 0.11174,0.0524 0.35253,0.14649 0.53504,0.20928 0.34778,0.11959 0.55909,0.21062 1.16889,0.50324 0.40972,0.1966 0.463,0.2273 0.96824,0.55776 0.19419,0.12701 0.37748,0.23093 0.40731,0.23093 0.0298,0 0.30088,0.23216 0.60231,0.5159 0.65864,0.62003 0.86258,0.96321 0.94226,1.58559 0.14521,1.13467 0.46324,2.93428 0.80823,4.57348 0.23602,1.12148 0.26422,1.21797 0.44747,1.53065 0.14916,0.25453 1.22176,1.33006 1.32641,1.33006 0.0282,0 0.21369,0.10801 0.4121,0.23993 0.19843,0.13195 0.48014,0.30497 0.62605,0.38449 0.1459,0.0796 0.39505,0.21921 0.55369,0.31041 0.35239,0.20261 0.75902,0.40423 0.84207,0.41754 0.0338,0.005 0.11,0.0538 0.16919,0.10725 0.0593,0.0537 0.10762,0.0794 0.10762,0.0571 0,-0.0516 3.57295,1.76629 4.39872,2.2381 0.16918,0.0967 0.41834,0.23437 0.55369,0.30604 0.13534,0.0717 0.30167,0.16314 0.36961,0.20329 0.068,0.0401 0.3448,0.19512 0.6152,0.34434 0.27043,0.14923 0.58857,0.326 0.707,0.39281 0.11847,0.0669 0.31222,0.17502 0.43064,0.24043 0.11848,0.0655 0.29837,0.17052 0.39988,0.23357 0.10147,0.0631 0.29531,0.17499 0.43066,0.24876 0.13534,0.0738 0.39834,0.21921 0.58443,0.32322 0.18611,0.104 0.40758,0.22705 0.49217,0.27343 0.0846,0.0464 0.23686,0.13781 0.33836,0.20321 0.10147,0.0653 0.22609,0.13799 0.27685,0.1613 0.0747,0.0343 1.37025,0.80001 1.87637,1.10899 0.0677,0.0413 0.17841,0.10451 0.24608,0.14051 0.0677,0.0359 0.24762,0.14733 0.39989,0.24749 0.15226,0.10014 0.33334,0.20744 0.4024,0.23843 0.0691,0.0309 0.16244,0.10075 0.20749,0.15504 0.0451,0.0543 0.10887,0.0986 0.14177,0.0986 0.033,0 0.14685,0.0624 0.25313,0.13843 0.10626,0.0761 0.30435,0.1984 0.44014,0.27172 0.35221,0.19017 1.04104,0.53808 1.07742,0.54419 0.017,0.002 0.183,0.076 0.36911,0.16248 0.28683,0.13336 0.47409,0.20174 0.89204,0.32576 0.0338,0.0102 0.0754,0.0171 0.0923,0.0158 0.017,-10e-4 0.0893,0.0287 0.16072,0.067 0.25561,0.13682 1.03949,0.2456 1.61211,0.22374 0.64119,-0.0245 1.80473,-0.0915 2.0537,-0.11823 0.11174,-0.0125 0.4799,-0.0389 0.81827,-0.0599 0.33836,-0.021 0.75363,-0.0505 0.92281,-0.0658 0.16919,-0.0154 0.65366,-0.056 1.07661,-0.0904 1.13899,-0.0927 1.48377,-0.12346 1.72257,-0.15399 0.11848,-0.015 0.36759,-0.0412 0.55369,-0.0578 0.1861,-0.0167 0.62905,-0.0594 0.98432,-0.0948 0.35529,-0.0354 0.81207,-0.0476 1.0151,-0.0271 1.11179,0.11224 2.81501,0.81854 4.09832,1.69957 0.6626,0.4549 3.61906,2.78863 4.39072,3.46589 0.27112,0.23795 0.81132,0.70061 1.20044,1.0281 1.51297,1.2734 1.72603,1.48576 2.14531,2.13821 0.45359,0.70579 0.59014,1.25685 0.4284,1.72877 -0.0394,0.11498 -0.3455,0.51365 -0.68019,0.88584 -0.33467,0.3722 -0.64156,0.71731 -0.68194,0.7669 -0.0404,0.0497 -0.1565,0.19084 -0.25801,0.31388 -0.10147,0.12309 -0.2583,0.31778 -0.34843,0.43275 -0.0902,0.11498 -0.2147,0.26901 -0.27684,0.34229 -0.15789,0.18621 -0.25317,0.30434 -0.60514,0.75026 -0.16918,0.21433 -0.39066,0.49229 -0.49217,0.61768 -0.10147,0.12539 -0.29529,0.38916 -0.43064,0.58615 -0.23507,0.34215 -0.24599,0.37918 -0.24394,0.82725 0.001,0.39338 0.0305,0.52363 0.17786,0.80742 0.19977,0.38468 0.7135,1.16083 0.95196,1.43825 0.2066,0.24035 1.17785,1.32972 1.2981,1.45596 0.0508,0.0532 0.21998,0.24748 0.37605,0.43157 0.15608,0.18407 0.47444,0.55793 0.70749,0.83078 0.23304,0.27285 0.58981,0.69907 0.79283,0.94714 0.20302,0.24807 0.47671,0.57764 0.6082,0.73235 1.12506,1.32381 2.85923,3.61709 4.05762,5.36588 1.1805,1.72264 2.06815,2.57237 3.27034,3.13065 0.24932,0.11573 2.69318,0.83306 3.24182,0.95148 0.0779,0.0168 0.25254,0.0607 0.38789,0.0977 0.13535,0.0368 0.35682,0.0945 0.49216,0.12827 0.13534,0.0337 0.74632,0.19679 1.35772,0.3624 0.6114,0.16562 1.17893,0.31334 1.26118,0.32828 0.0822,0.0149 0.42636,0.0999 0.76473,0.18889 0.33836,0.0889 0.67057,0.17235 0.73824,0.18531 0.0677,0.013 0.28915,0.0663 0.49217,0.11872 0.20302,0.0524 0.43835,0.10875 0.52293,0.12519 1.65366,0.32237 2.93173,1.1233 3.85336,2.41484 0.43252,0.60615 1.59572,3.1521 2.17891,4.76907 0.13005,0.3606 0.3076,0.8247 0.39456,1.0313 0.21884,0.51996 0.40102,1.31773 0.40148,1.75822 0,0.28067 -0.0421,0.45758 -0.17666,0.73825 -0.33215,0.69254 -0.6463,0.87492 -2.06837,1.20079 -1.07886,0.24722 -3.79726,0.91892 -4.61405,1.14009 -0.33836,0.0916 -0.90589,0.24326 -1.26115,0.33697 -1.00416,0.26485 -1.31102,0.3999 -1.5855,0.69766 -0.25767,0.27954 -0.49173,0.81036 -0.55906,1.26784 -0.051,0.34612 0.062,1.66114 0.20646,2.40074 0.0671,0.34372 0.1529,2.58654 0.15424,4.02959 0.001,1.62043 -0.0731,2.94185 -0.21969,3.8952 -0.1125,0.73098 -0.11087,0.96209 0.0102,1.50648 0.23037,1.03285 0.68936,1.62515 1.8691,2.41186 0.35484,0.23663 0.66696,0.43968 0.69357,0.45123 0.0267,0.0113 0.35541,0.2261 0.73061,0.47677 0.3752,0.25069 0.69264,0.45579 0.70541,0.45579 0.0128,0 0.2052,0.12459 0.4276,0.27685 0.2224,0.15226 0.41671,0.27684 0.43179,0.27684 0.0151,0 0.25559,0.14777 0.53442,0.32837 0.27885,0.1806 0.74231,0.47543 1.02992,0.65517 0.2876,0.17974 0.61982,0.38923 0.73824,0.46556 0.58761,0.37866 1.73712,1.07324 1.7762,1.07324 0.11723,0 0.89366,0.81061 1.08086,1.1285 0.27499,0.46691 0.42541,1.11907 0.37118,1.60917 -0.0372,0.33581 -0.4671,1.53524 -0.86001,2.39931 -0.077,0.16918 -0.23297,0.51522 -0.34675,0.76899 -0.11374,0.25377 -0.46651,0.94589 -0.78386,1.53802 -0.75938,1.41691 -1.11689,1.76776 -2.17714,2.13663 -0.48969,0.17035 -1.4145,0.24101 -1.85966,0.14209 -0.13535,-0.0301 -0.39835,-0.0733 -0.58445,-0.0961 -0.18609,-0.0228 -0.35221,-0.0496 -0.36912,-0.0594 -0.017,-0.0102 -0.18677,-0.0358 -0.37743,-0.0577 -0.19067,-0.0218 -0.41103,-0.0521 -0.4897,-0.0674 -0.0787,-0.0153 -0.24104,-0.0408 -0.36083,-0.0568 -0.11971,-0.0161 -0.6192,-0.0841 -1.10982,-0.15079 -1.56477,-0.21301 -2.29883,-0.31023 -2.61462,-0.34631 -0.36074,-0.0413 -0.66581,-0.0815 -0.92281,-0.12221 -0.10147,-0.0161 -0.32298,-0.0434 -0.49216,-0.0607 -0.16918,-0.0173 -0.39065,-0.0444 -0.49217,-0.0601 -0.18208,-0.0282 -0.47977,-0.0607 -1.38421,-0.15125 -0.58468,-0.0585 -0.97051,-0.0264 -1.48433,0.12372 -0.6236,0.18208 -1.22438,0.51071 -1.65922,0.9076 -0.60429,0.55151 -2.58368,1.95428 -3.34687,2.3719 -0.10147,0.0555 -0.22609,0.12645 -0.27684,0.15758 -0.17692,0.10851 -1.24343,0.71478 -1.72258,0.97921 -0.7871,0.43439 -1.1431,0.61892 -2.61463,1.35536 -2.32964,1.16587 -3.51528,1.64949 -7.47473,3.04891 -0.21994,0.0777 -0.6352,0.21174 -0.92281,0.29776 -0.28761,0.086 -0.8413,0.25686 -1.23042,0.3796 -0.3891,0.12271 -1.15044,0.33359 -1.69181,0.46854 -0.54138,0.13495 -1.17812,0.2981 -1.41496,0.36257 -0.46711,0.12717 -0.81847,0.20706 -2.18399,0.49661 -0.49063,0.10401 -1.05816,0.22764 -1.26117,0.27469 -0.64812,0.15019 -3.52463,0.66612 -4.09111,0.73379 -0.46046,0.055 -0.90938,0.11972 -1.3227,0.19053 -0.27069,0.0464 -0.67211,0.10106 -0.89205,0.12135 -0.21993,0.0203 -0.71825,0.0762 -1.10737,0.12408 -0.38912,0.0479 -0.87359,0.10351 -1.0766,0.12347 -0.20302,0.02 -0.43833,0.0464 -0.52293,0.0589 -0.0846,0.0125 -0.38911,0.0399 -0.67673,0.0611 -0.2876,0.0212 -0.79976,0.0635 -1.13812,0.094 -0.84136,0.076 -2.10731,0.1576 -3.29136,0.21227 -1.8479,0.0853 -5.86181,0.17867 -5.90693,0.13737 z M 126.29968,265.6701 c -0.009,-0.007 -0.86069,-0.0319 -1.89269,-0.0539 -2.24888,-0.0479 -2.59832,-0.063 -4.46024,-0.19258 -0.88157,-0.0613 -1.93421,-0.1476 -2.2455,-0.18398 -0.20933,-0.0245 -0.79393,-0.0824 -1.23041,-0.12209 -0.23552,-0.0214 -0.76852,-0.0802 -1.10737,-0.12209 -0.45103,-0.0559 -2.25242,-0.28618 -2.3993,-0.3068 -0.0846,-0.0125 -0.29222,-0.039 -0.4614,-0.0603 -0.16918,-0.0213 -0.37683,-0.0517 -0.46141,-0.0677 -0.0846,-0.0159 -0.20917,-0.0393 -0.27685,-0.0519 -0.0677,-0.0126 -0.24761,-0.0399 -0.39988,-0.0606 -0.15226,-0.0207 -0.34604,-0.0518 -0.43064,-0.0688 -0.0846,-0.0172 -0.26454,-0.0451 -0.39988,-0.062 -0.13534,-0.0168 -0.30837,-0.0442 -0.38451,-0.061 -0.0761,-0.0167 -0.20071,-0.044 -0.27685,-0.0608 -0.0761,-0.0169 -0.263,-0.0465 -0.41525,-0.0659 -0.32053,-0.0409 -1.18131,-0.20228 -2.49159,-0.46701 -0.50754,-0.10251 -0.97817,-0.19752 -1.04584,-0.21104 -0.13042,-0.0261 -0.53261,-0.10738 -0.58445,-0.11823 -0.017,-0.004 -0.15535,-0.0308 -0.3076,-0.0606 -0.15227,-0.0298 -0.29069,-0.0582 -0.30761,-0.0629 -0.017,-0.005 -0.11386,-0.0287 -0.21532,-0.0532 -0.10147,-0.0245 -0.33681,-0.0833 -0.52292,-0.1308 -0.1861,-0.0474 -0.40757,-0.0995 -0.49217,-0.11586 -0.0845,-0.0162 -0.40296,-0.0884 -0.70749,-0.1604 -0.30452,-0.072 -0.67826,-0.15937 -0.83052,-0.19422 -0.15227,-0.0349 -0.51217,-0.12838 -0.79977,-0.20782 -0.28761,-0.0795 -0.61749,-0.16106 -0.73307,-0.18138 -0.11561,-0.0204 -0.23313,-0.0511 -0.26123,-0.0685 -0.0281,-0.0173 -0.11349,-0.0455 -0.189733,-0.0625 -0.237997,-0.053 -0.323223,-0.0755 -0.323223,-0.0852 0,-0.005 -0.04839,-0.0212 -0.107625,-0.0354 -0.05923,-0.0143 -0.156111,-0.0378 -0.215323,-0.0521 -0.05923,-0.0143 -0.107625,-0.0303 -0.107625,-0.0354 0,-0.0113 -0.116728,-0.041 -0.346206,-0.0889 -0.126817,-0.0265 -0.855184,-0.2384 -1.253319,-0.36455 -0.0338,-0.0113 -0.144576,-0.0399 -0.24609,-0.0648 -0.10151,-0.025 -0.253771,-0.0676 -0.338362,-0.0948 -0.08455,-0.0271 -0.278375,-0.0848 -0.430638,-0.12823 -0.152263,-0.0434 -0.553685,-0.16748 -0.892049,-0.27582 -0.79228,-0.25364 -1.898284,-0.60498 -1.937895,-0.61557 -0.01693,-0.005 -0.07228,-0.0245 -0.123039,-0.0442 -0.05075,-0.0199 -0.244545,-0.0818 -0.430645,-0.13787 -0.1861,-0.056 -0.379889,-0.1181 -0.430643,-0.13788 -0.05075,-0.0199 -0.110743,-0.0384 -0.133297,-0.0414 -0.02255,-0.002 -0.06177,-0.026 -0.08714,-0.0515 -0.02537,-0.0255 -0.08125,-0.0462 -0.124173,-0.0462 -0.04291,0 -0.155955,-0.0319 -0.251207,-0.071 -0.09525,-0.039 -0.20087,-0.0777 -0.234706,-0.0859 -0.03383,-0.009 -0.282995,-0.0965 -0.553685,-0.19596 -0.27069,-0.0996 -0.512639,-0.18627 -0.537658,-0.19265 -0.02501,-0.006 -0.08866,-0.0282 -0.141406,-0.0484 -0.05275,-0.0202 -0.669018,-0.25181 -1.369478,-0.5146 -0.70046,-0.26279 -1.4812,-0.56115 -1.734972,-0.66304 -0.253772,-0.10188 -0.613666,-0.24578 -0.799766,-0.31977 -0.186101,-0.0739 -0.4491,-0.18411 -0.584445,-0.2447 -0.135345,-0.0606 -0.312882,-0.13062 -0.394525,-0.1556 -0.08165,-0.025 -0.24775,-0.0889 -0.369124,-0.14201 -0.12138,-0.0531 -0.234522,-0.0996 -0.25144,-0.10338 -0.01693,-0.004 -0.169181,-0.0708 -0.338363,-0.14866 -0.451118,-0.20799 -0.635207,-0.28859 -1.04585,-0.45794 -0.203018,-0.0837 -0.562912,-0.24346 -0.799767,-0.35499 -0.236853,-0.11149 -0.444485,-0.2051 -0.461403,-0.20796 -0.01693,-0.002 -0.217629,-0.094 -0.446024,-0.20252 -0.765679,-0.36388 -1.212749,-0.57053 -1.260212,-0.5825 -0.129064,-0.0326 -4.162732,-2.09459 -4.937982,-2.52432 -0.186102,-0.10313 -0.490628,-0.268 -0.676728,-0.36631 -0.186099,-0.0983 -0.421415,-0.23171 -0.522923,-0.29642 -0.10151,-0.0647 -0.226088,-0.13736 -0.276843,-0.16143 -0.05076,-0.0241 -0.286071,-0.15764 -0.522925,-0.29687 -0.236854,-0.13922 -0.47217,-0.27241 -0.522924,-0.29597 -0.05075,-0.0236 -0.175334,-0.0977 -0.276842,-0.16453 -0.10151,-0.067 -0.226089,-0.14053 -0.276843,-0.16357 -0.05075,-0.023 -0.230703,-0.12885 -0.399884,-0.23513 -0.169182,-0.10625 -0.349129,-0.2134 -0.399883,-0.23804 -0.113374,-0.0551 -0.238829,-0.13268 -0.689153,-0.42639 -0.192929,-0.12584 -0.363999,-0.2288 -0.380148,-0.2288 -0.01616,0 -0.196084,-0.11074 -0.399853,-0.24609 -0.203768,-0.13535 -0.39522,-0.24608 -0.425457,-0.24608 -0.03025,0 -0.10508,-0.0554 -0.166326,-0.12308 -0.06125,-0.0677 -0.136596,-0.12309 -0.167442,-0.12309 -0.03085,0 -0.146831,-0.0692 -0.257733,-0.15379 -0.110905,-0.0846 -0.224932,-0.15381 -0.253391,-0.15381 -0.02845,0 -0.108897,-0.0527 -0.178755,-0.11722 -0.06985,-0.0645 -0.212554,-0.16826 -0.317102,-0.23071 -0.26786,-0.15995 -1.378655,-0.91605 -1.563242,-1.06405 -0.08459,-0.0679 -0.176829,-0.12397 -0.204968,-0.12471 -0.02814,-7.4e-4 -0.169415,-0.0983 -0.31394,-0.2167 -0.144524,-0.11848 -0.279217,-0.21531 -0.299316,-0.21531 -0.03824,0 -0.655212,-0.44493 -1.181193,-0.85182 -0.169182,-0.13088 -0.390657,-0.28973 -0.492165,-0.35301 -0.10151,-0.0633 -0.585984,-0.43469 -1.07661,-0.82536 -0.490627,-0.39066 -0.975099,-0.76309 -1.076609,-0.8276 -0.217962,-0.13857 -0.896047,-0.68898 -0.984328,-0.79901 -0.03383,-0.0422 -0.462943,-0.40779 -0.953569,-0.8125 -0.910133,-0.75073 -0.988799,-0.81992 -2.333834,-2.05303 -1.223175,-1.12138 -2.859433,-2.72066 -3.295296,-3.22081 -0.06641,-0.0762 -1.170721,-1.29111 -1.322691,-1.45515 -0.173448,-0.18723 -0.46132,-0.5229 -0.922681,-1.07589 -0.253702,-0.30406 -0.476116,-0.5667 -0.49425,-0.58362 -0.01813,-0.017 -0.142773,-0.16914 -0.27697,-0.33829 -0.134197,-0.16913 -0.277629,-0.34315 -0.318736,-0.38672 -0.177741,-0.1884 -1.86678,-2.48488 -2.13637,-2.9047 -0.16296,-0.25377 -0.314613,-0.47524 -0.337003,-0.49217 -0.07249,-0.0548 -1.307811,-2.0444 -1.623363,-2.61463 -0.867622,-1.56783 -1.765257,-3.32598 -1.765257,-3.45749 0,-0.0153 0.19379,-0.0113 0.430645,0.007 0.470806,0.0388 1.040589,0.0822 1.661054,0.12669 0.219936,0.0159 0.579831,0.0428 0.799768,0.0601 0.219935,0.0172 0.635199,0.0474 0.922807,0.0669 0.287609,0.0195 0.633662,0.0468 0.769007,0.0605 0.135345,0.0137 0.5489,0.041 0.919009,0.0604 0.70427,0.037 0.988522,0.1211 1.264969,0.37414 0.409358,0.37477 1.061951,0.90748 5.844453,4.77079 5.490424,4.43517 14.606237,11.8026 25.22342,20.38567 3.603567,2.91316 6.906082,5.57905 7.338922,5.92419 l 0.786989,0.62752 0.720264,0.004 c 0.396149,0.002 0.817165,0.0136 0.935592,0.0253 0.118424,0.0113 0.935112,0.0378 1.814856,0.0577 0.879743,0.02 1.793325,0.05 2.030173,0.0669 0.236861,0.0167 1.053547,0.0454 1.814862,0.0637 0.761315,0.0183 1.591844,0.0446 1.845614,0.0585 0.25377,0.0138 1.12583,0.0414 1.9379,0.0612 0.81207,0.0197 1.65643,0.0481 1.87637,0.063 0.21993,0.0148 1.07815,0.0451 1.90713,0.067 0.829,0.0219 1.63184,0.0469 1.7841,0.0553 0.32538,0.0179 0.39877,-0.0102 0.2927,-0.11311 -0.0425,-0.0413 -1.82149,-1.48431 -3.95317,-3.20682 l -3.87579,-3.13183 -0.70748,-0.17804 c -0.389121,-0.0979 -0.79747,-0.2034 -0.90744,-0.23441 -0.109993,-0.031 -0.289912,-0.0812 -0.399881,-0.11149 -0.276294,-0.0761 -2.088526,-0.63559 -2.260876,-0.69803 -0.298595,-0.10812 -0.890953,-0.30867 -0.948008,-0.32095 -0.03689,-0.007 -0.150134,-0.0491 -0.251642,-0.0915 -0.10151,-0.0424 -0.212246,-0.082 -0.246083,-0.0881 -0.03383,-0.006 -0.0892,-0.0273 -0.123038,-0.0474 -0.05354,-0.0316 -0.499221,-0.18977 -0.584445,-0.2074 -0.01693,-0.004 -0.127655,-0.0487 -0.246082,-0.10055 -0.118424,-0.0519 -0.32606,-0.12988 -0.461405,-0.17347 -0.135344,-0.0435 -0.273766,-0.0995 -0.307602,-0.12421 -0.03383,-0.0248 -0.139,-0.0636 -0.233692,-0.0862 -0.09469,-0.0227 -0.338412,-0.12173 -0.541608,-0.22013 -0.203191,-0.0984 -0.471764,-0.21272 -0.596835,-0.25397 -0.125072,-0.0413 -0.435032,-0.16993 -0.688803,-0.28595 -0.253773,-0.11598 -0.558299,-0.2536 -0.676727,-0.30575 -0.253618,-0.11174 -2.865398,-1.4101 -3.04646,-1.51451 -0.06833,-0.0394 -0.483594,-0.27416 -0.922808,-0.5217 -0.439219,-0.24753 -0.881626,-0.50283 -0.983135,-0.56733 -0.10151,-0.0645 -0.281456,-0.17398 -0.399883,-0.2433 -0.380732,-0.22284 -1.049263,-0.66123 -1.156944,-0.75868 -0.05746,-0.052 -0.173653,-0.13111 -0.258164,-0.17576 -0.449722,-0.2376 -2.780735,-2.08978 -3.462518,-2.75125 -0.297236,-0.28836 -0.561134,-0.53921 -0.586444,-0.55739 -0.02532,-0.0182 -0.28903,-0.30993 -0.586038,-0.64829 -0.702744,-0.8006 -0.840193,-0.96346 -0.840193,-0.99559 0,-0.0147 -0.12365,-0.20346 -0.274781,-0.41967 -0.434188,-0.6212 -0.804763,-1.35866 -1.050729,-2.09102 -0.19852,-0.5911 -0.22784,-0.75392 -0.232639,-1.29194 -0.003,-0.33857 0.03079,-0.76784 0.07514,-0.95395 0.09346,-0.3922 0.430872,-1.16889 0.507779,-1.16889 0.02883,0 0.05241,-0.0405 0.05241,-0.09 0,-0.10339 0.710716,-0.84137 1.076609,-1.11792 0.384781,-0.29082 0.863368,-0.54233 1.624199,-0.85352 0.385763,-0.15779 0.745659,-0.29719 0.799766,-0.30977 0.05411,-0.0126 0.250641,-0.066 0.43674,-0.11885 0.374107,-0.106 1.3979,-0.30764 1.876378,-0.36952 0.169181,-0.0218 0.376813,-0.0509 0.461404,-0.0643 0.769043,-0.12296 4.239521,-0.16793 5.290767,-0.0686 0.287608,0.0272 0.647503,0.0599 0.799766,0.0727 0.152263,0.0129 0.373737,0.0358 0.492164,0.0513 0.118424,0.0153 0.492164,0.06 0.830527,0.099 0.57761,0.0668 1.531234,0.20816 1.876377,0.27827 0.08459,0.0172 0.333749,0.06 0.553685,0.0951 0.219936,0.0352 0.496779,0.0891 0.615206,0.11972 0.118424,0.0308 0.284532,0.0698 0.369122,0.0868 0.08459,0.017 0.236854,0.0474 0.338364,0.0677 0.239714,0.0479 1.080503,0.22109 1.19965,0.24713 0.104084,0.0227 2.206856,0.56549 2.491581,0.64311 0.10151,0.0276 0.502929,0.15097 0.892047,0.27398 0.389112,0.12296 0.774052,0.23788 0.855422,0.25525 0.0813,0.0173 0.20595,0.0626 0.27684,0.10055 0.0708,0.0379 0.1289,0.0625 0.1289,0.0546 0,-0.0184 0.0957,0.0113 0.5789,0.1784 0.21687,0.0751 0.42451,0.14304 0.4614,0.15097 0.0369,0.007 0.15014,0.0491 0.25164,0.0915 0.10151,0.0424 0.21225,0.082 0.24609,0.0881 0.0338,0.006 0.0892,0.0273 0.12308,0.0473 0.0503,0.0297 0.46687,0.17865 0.58445,0.20898 0.017,0.005 0.0723,0.0265 0.12308,0.0493 0.0508,0.0227 0.41065,0.16247 0.79977,0.31054 0.66109,0.25156 1.78193,0.70564 2.06094,0.83494 0.0677,0.0313 0.26146,0.11648 0.43064,0.18923 0.56327,0.24212 3.19743,1.5546 3.30673,1.64759 0.0593,0.0504 0.10762,0.0701 0.10762,0.0438 0,-0.0263 0.0409,-0.0138 0.0909,0.0275 0.05,0.0416 0.23685,0.15167 0.41526,0.24485 0.444,0.23192 0.74761,0.40507 1.37255,0.78283 0.43886,0.26528 0.93981,0.58597 1.46355,0.9369 0.33252,0.22282 0.64979,0.4328 0.70504,0.46663 0.11535,0.0705 1.02333,0.74401 1.6126,1.19592 0.21993,0.16867 0.49678,0.39691 0.6152,0.5072 0.11848,0.11025 0.33991,0.30839 0.49216,0.44023 0.4829,0.41811 0.9641,0.89161 1.49843,1.47441 0.67065,0.73146 0.74013,0.8185 1.23357,1.54518 1.11531,1.64255 1.5333,3.12675 1.23584,4.38835 -0.0834,0.35407 -0.3635,0.97176 -0.62732,1.38382 -0.10588,0.16544 -0.10501,0.17212 0.0444,0.31577 0.084,0.0807 2.47429,2.02179 5.31193,4.3135 3.17188,2.56165 5.23367,4.18599 5.35228,4.2167 0.10613,0.0274 0.85736,0.0701 1.66943,0.0946 0.81207,0.0246 1.61491,0.0504 1.78409,0.0573 0.16918,0.007 0.86128,0.0333 1.53801,0.0585 0.67673,0.0252 1.43805,0.0554 1.69182,0.0673 0.25378,0.0113 0.95972,0.0371 1.56878,0.0562 0.60905,0.019 1.41196,0.0489 1.78424,0.0662 0.37227,0.0172 1.10591,0.0468 1.63029,0.0654 0.52439,0.0187 1.14721,0.0437 1.38407,0.0555 0.23685,0.0113 0.61558,0.0234 0.84162,0.0259 l 0.41096,0.005 2.29593,1.8526 c 1.26277,1.01893 2.30517,1.87713 2.31644,1.90714 0.0113,0.0301 -0.0179,0.0545 -0.065,0.0545 -0.047,0 -0.33294,0.0997 -0.63541,0.22176 -0.30247,0.12196 -0.5916,0.23026 -0.64254,0.24068 -0.0509,0.0102 -0.28638,0.0865 -0.52323,0.16912 -0.23686,0.0825 -0.59675,0.19973 -0.79977,0.26024 -0.20302,0.0605 -0.50755,0.15831 -0.67673,0.21733 -0.28665,0.10004 -0.84335,0.2624 -0.87552,0.25537 -0.007,-10e-4 -0.10476,0.0248 -0.21533,0.0591 -0.48092,0.14867 -2.20506,0.58652 -3.00026,0.76194 -0.0508,0.0113 -0.29991,0.0662 -0.55369,0.12222 -0.25377,0.056 -0.54445,0.11448 -0.64597,0.12991 -0.10147,0.0155 -0.39219,0.0703 -0.64596,0.12209 -0.25377,0.0517 -0.53061,0.10377 -0.61521,0.11573 -0.0846,0.0125 -0.38911,0.0648 -0.67672,0.11749 -0.28761,0.0526 -0.60597,0.10799 -0.70748,0.12296 -0.24802,0.0365 -0.70287,0.10326 -0.89205,0.1308 -0.2235,0.0326 -1.17345,0.16062 -1.35345,0.18248 -0.0846,0.0102 -0.33375,0.0399 -0.55369,0.0659 -0.21993,0.0261 -0.4414,0.0528 -0.49217,0.0599 -0.0905,0.0125 -0.65151,0.0713 -1.13813,0.11973 -0.13534,0.0134 -0.46755,0.0411 -0.73825,0.0611 -0.27068,0.0202 -0.61674,0.0488 -0.769,0.0637 -0.82163,0.0805 -2.06713,0.13674 -4.09112,0.1848 -0.87973,0.021 -1.70293,0.0458 -1.8293,0.0554 -0.12637,0.0102 -0.23711,0.0113 -0.24608,0.004 z m 25.42911,-5.69209 c -0.41927,-0.33932 -0.82068,-0.64809 -0.89204,-0.68614 -0.0714,-0.038 -0.74596,-0.56799 -1.49915,-1.17761 -1.16275,-0.94114 -1.36338,-1.12745 -1.32937,-1.23458 0.038,-0.11998 0.27446,-0.64835 0.6216,-1.38944 0.25503,-0.54448 0.69931,-1.5507 0.7877,-1.7841 0.0448,-0.11847 0.18324,-0.42276 0.30752,-0.67632 0.12433,-0.25355 0.32297,-0.6965 0.44153,-0.98433 0.1186,-0.28782 0.23792,-0.55107 0.26525,-0.58499 0.0273,-0.0339 0.10924,-0.21387 0.18199,-0.39989 0.0728,-0.18601 0.24118,-0.56932 0.37423,-0.85178 0.13304,-0.28247 0.2419,-0.52865 0.2419,-0.54706 0,-0.0184 0.12458,-0.29302 0.27684,-0.61023 0.15225,-0.31722 0.27684,-0.61227 0.27684,-0.65567 0,-0.0434 0.0245,-0.10525 0.0544,-0.13737 0.0299,-0.0322 0.19953,-0.39065 0.37694,-0.79669 0.17742,-0.40603 0.40276,-0.91151 0.50078,-1.12329 0.098,-0.21178 0.28543,-0.62704 0.4165,-0.92281 0.13107,-0.29577 0.33804,-0.74911 0.45995,-1.00746 0.12184,-0.25832 0.22164,-0.48978 0.22164,-0.51433 0,-0.0246 0.0936,-0.2423 0.2079,-0.48388 0.11436,-0.24157 0.38206,-0.82681 0.59495,-1.30051 0.21288,-0.47371 0.46318,-1.02739 0.55623,-1.23042 0.0931,-0.20301 0.22522,-0.51167 0.29374,-0.6859 0.0685,-0.17423 0.22076,-0.52027 0.33829,-0.769 0.37046,-0.78395 0.96188,-2.0841 0.96188,-2.11451 0,-0.0161 0.083,-0.20499 0.18456,-0.41983 0.10157,-0.21485 0.18457,-0.40798 0.18457,-0.42918 0,-0.0212 0.0989,-0.24 0.21985,-0.48621 0.12097,-0.24621 0.3254,-0.69681 0.45438,-1.00133 0.12899,-0.30452 0.37314,-0.85821 0.54258,-1.23041 0.16941,-0.37221 0.425,-0.93973 0.56796,-1.26118 0.63475,-1.42726 0.73763,-1.65633 0.93948,-2.0917 0.31317,-0.67547 0.59162,-1.2928 0.59034,-1.30875 -0.005,-0.0539 0.32768,-0.79681 0.7486,-1.67499 0.35434,-0.73927 0.38085,-0.83551 0.26533,-0.96315 -0.0565,-0.0624 -0.12742,-0.11349 -0.15764,-0.11349 -0.0856,0 -3.16413,-2.50244 -3.51761,-2.85929 -0.1732,-0.17487 -1.6299,-1.38267 -3.23714,-2.68401 -1.60723,-1.30133 -3.73188,-3.02267 -4.72149,-3.82519 -0.98956,-0.80251 -1.83764,-1.45912 -1.88457,-1.45912 -0.0469,0 -0.10075,0.0484 -0.11972,0.10763 -0.0511,0.16012 -0.29559,0.7101 -0.60857,1.36882 -0.15272,0.32146 -0.39423,0.84745 -0.53668,1.1689 -0.14245,0.32143 -0.33046,0.73671 -0.4178,0.92281 -0.0873,0.18609 -0.27942,0.60136 -0.42683,0.9228 -0.14741,0.32145 -0.29534,0.63252 -0.32872,0.69127 -0.0334,0.0588 -0.0607,0.13319 -0.0607,0.1654 0,0.0936 1.17201,1.81013 1.44172,2.11169 0.053,0.0593 0.0962,0.12518 0.0962,0.14659 0,0.0214 0.25963,0.42976 0.57693,0.90743 1.12062,1.68692 1.5493,2.62892 2.08896,4.59049 0.52272,1.90003 0.475,4.19167 -0.1221,5.86289 -0.16098,0.45058 -0.66672,1.51911 -0.74733,1.57898 -0.0244,0.0181 -0.11836,0.14361 -0.2088,0.27896 -0.0904,0.13535 -0.27016,0.36112 -0.3993,0.5017 -0.12914,0.1406 -0.29298,0.32054 -0.36409,0.39988 -0.0711,0.0794 -0.24271,0.23566 -0.38132,0.34733 -0.13863,0.11174 -0.33366,0.27778 -0.43341,0.36911 -0.22308,0.20428 -0.36371,0.30064 -0.56297,0.38577 -0.0844,0.036 -0.23669,0.12736 -0.33836,0.20286 -0.2925,0.21727 -1.63934,0.78661 -2.06119,0.87135 -0.11848,0.0239 -0.24252,0.0595 -0.27576,0.0791 -0.0333,0.0199 -0.10239,0.0408 -0.15381,0.0465 -0.0514,0.006 -0.35637,0.0563 -0.67781,0.11237 -0.32145,0.056 -0.81977,0.12666 -1.10737,0.15708 -0.52306,0.0554 -2.45835,0.0354 -2.92222,-0.0299 -1.04457,-0.1474 -1.48068,-0.22432 -1.96866,-0.34727 -0.61329,-0.15451 -0.70086,-0.1761 -0.89205,-0.21993 -0.0846,-0.0194 -0.54138,-0.17072 -1.01509,-0.33631 -0.47371,-0.16559 -0.88897,-0.3082 -0.92281,-0.3169 -0.0338,-0.009 -0.1915,-0.0765 -0.35037,-0.1504 -0.15887,-0.0739 -0.30605,-0.13455 -0.32709,-0.13455 -0.0211,0 -0.30633,-0.12954 -0.63397,-0.28784 -0.32764,-0.15831 -0.59837,-0.27598 -0.60163,-0.26147 -0.004,0.0144 -0.0502,-0.0102 -0.10426,-0.0553 -0.0542,-0.045 -0.34211,-0.20698 -0.64003,-0.36017 -0.29793,-0.15319 -0.55801,-0.30471 -0.57797,-0.3367 -0.02,-0.0321 -0.0961,-0.0628 -0.16918,-0.0682 -0.0731,-0.005 -0.1329,-0.0323 -0.1329,-0.0595 0,-0.0272 -0.0969,-0.0956 -0.21531,-0.1521 -0.11848,-0.0565 -0.21532,-0.12185 -0.21532,-0.14535 0,-0.0234 -0.09,-0.079 -0.19994,-0.12359 -0.11,-0.0445 -0.21379,-0.0985 -0.23071,-0.12009 -0.0548,-0.0697 -1.01341,-0.70344 -1.06619,-0.70475 -0.0281,-6.8e-4 -0.0834,-0.0442 -0.12308,-0.0969 -0.0395,-0.0526 -0.19652,-0.18155 -0.3488,-0.28666 -0.22496,-0.15528 -1.06478,-0.83333 -1.96488,-1.58643 -0.53626,-0.44868 -1.75139,-1.64149 -1.89527,-1.86047 -0.0499,-0.0758 -0.11523,-0.12258 -0.14541,-0.10401 -0.0302,0.0185 -0.0548,-0.004 -0.0548,-0.051 0,-0.0466 -0.0623,-0.13997 -0.13842,-0.20737 -0.0761,-0.0674 -0.27684,-0.28557 -0.44602,-0.48482 -0.16918,-0.19926 -0.36863,-0.42595 -0.44323,-0.50376 -0.0745,-0.0778 -0.11761,-0.14147 -0.0956,-0.14147 0.0221,0 -0.0441,-0.0899 -0.14707,-0.19994 -0.10288,-0.10999 -0.3753,-0.45521 -0.60531,-0.7672 -0.23001,-0.31199 -0.44623,-0.54996 -0.48045,-0.5288 -0.0354,0.0219 -0.0433,0.007 -0.0182,-0.0327 0.0242,-0.0391 -0.038,-0.18876 -0.13838,-0.33248 -0.47255,-0.67713 -1.00456,-1.59165 -1.54781,-2.66063 -0.89019,-1.75172 -1.49029,-3.58338 -1.70316,-5.19848 -0.11123,-0.8441 -0.0781,-2.59847 0.063,-3.33404 0.2314,-1.20615 0.79259,-2.45676 1.50748,-3.35939 0.10687,-0.13493 0.19432,-0.2741 0.19432,-0.30924 0,-0.0351 0.0554,-0.0814 0.12309,-0.10301 0.0677,-0.0214 0.12308,-0.0787 0.12308,-0.12719 0,-0.0485 0.0243,-0.0882 0.054,-0.0882 0.0956,0 0.74577,-0.63049 0.74577,-0.72327 0,-0.0521 0.0366,-0.0757 0.0873,-0.0561 0.048,0.0184 0.14819,-0.0194 0.22263,-0.084 0.0744,-0.0646 0.18941,-0.13453 0.2555,-0.15552 0.0733,-0.0233 0.10675,-0.0732 0.0857,-0.12807 -0.0189,-0.0494 -0.009,-0.0737 0.0236,-0.054 0.0658,0.0406 0.47194,-0.11611 0.61496,-0.23748 0.10812,-0.0916 0.90973,-0.40998 1.42983,-0.56765 0.19303,-0.0585 0.34101,-0.12247 0.32886,-0.14218 -0.0125,-0.0197 0.0514,-0.0383 0.1412,-0.0414 0.1966,-0.007 0.72364,-0.0966 1.05535,-0.17964 0.017,-0.004 0.29375,-0.0291 0.6152,-0.0552 0.98952,-0.0805 1.72774,-0.0801 2.33778,0.001 0.32145,0.0428 0.70903,0.0941 0.86129,0.11398 0.15226,0.02 0.31836,0.045 0.36913,0.0554 0.0508,0.0102 0.2307,0.0399 0.39988,0.0654 0.16918,0.0255 0.3768,0.0571 0.4614,0.0703 0.24368,0.0382 0.80051,0.10065 1.04102,0.11697 0.26214,0.0177 0.23606,0.0505 0.7589,-0.95169 0.22066,-0.42295 0.52884,-0.98981 0.68485,-1.25968 0.15601,-0.26987 0.28366,-0.52364 0.28366,-0.56394 0,-0.0402 0.0239,-0.0824 0.0528,-0.0938 0.0634,-0.0246 0.50079,-0.82659 0.50079,-0.9182 0,-0.0353 0.0692,-0.15482 0.15379,-0.26571 0.0846,-0.11087 0.1538,-0.22036 0.1538,-0.24321 0,-0.0228 0.0648,-0.14481 0.144,-0.27104 0.32565,-0.51894 0.84667,-1.57003 0.79912,-1.61212 -0.028,-0.0248 -2.87486,-2.32471 -6.32616,-5.1108 -3.4513,-2.7861 -6.39126,-5.16174 -6.53324,-5.27921 -0.22843,-0.18901 -0.24991,-0.22836 -0.18674,-0.34176 0.0393,-0.0704 0.0736,-0.14201 0.0763,-0.15894 0.005,-0.0316 0.19137,-0.4002 0.94529,-1.86947 0.24111,-0.46992 0.43928,-0.88518 0.44036,-0.92281 0.001,-0.0377 0.0406,-0.11959 0.088,-0.18208 0.0834,-0.11011 0.0972,-0.10962 0.44407,0.017 0.19689,0.0719 0.41333,0.15476 0.48101,0.18428 0.33737,0.14715 0.5814,0.24515 0.86128,0.34585 0.16918,0.0608 0.33528,0.1302 0.36913,0.15407 0.0338,0.0239 0.13072,0.0642 0.2153,0.0897 0.0846,0.0255 0.26455,0.0948 0.3999,0.1539 0.13534,0.0591 0.39834,0.16795 0.58445,0.24173 0.33751,0.13379 0.51543,0.20914 0.9228,0.39082 0.11848,0.0527 0.31221,0.13734 0.43064,0.18785 0.11847,0.0505 0.40912,0.17996 0.64597,0.28767 0.46395,0.21098 0.72005,0.3223 0.76901,0.33427 0.0471,0.0113 1.00091,0.46006 1.12192,0.5276 0.0588,0.0328 0.13752,0.0596 0.17507,0.0596 0.0376,0 0.14864,0.0572 0.2469,0.12723 0.0983,0.0699 0.17869,0.10725 0.17869,0.0826 0,-0.0245 0.0554,0.006 0.12309,0.0669 0.0677,0.0612 0.12308,0.0914 0.12308,0.0671 0,-0.0243 0.10389,0.0113 0.23071,0.0789 0.12689,0.0677 0.71424,0.36181 1.30525,0.65343 0.59102,0.29162 1.1101,0.5597 1.15352,0.59574 0.0434,0.036 0.079,0.044 0.079,0.0177 0,-0.0263 0.0484,-0.009 0.10763,0.0387 0.171,0.13729 0.37494,0.24022 0.47594,0.24022 0.0512,0 0.0932,0.0276 0.0932,0.0615 0,0.0338 0.053,0.0614 0.11785,0.0614 0.0648,0 0.12714,0.0222 0.13842,0.0493 0.0113,0.027 0.26967,0.18293 0.5742,0.34637 1.18734,0.63724 1.3554,0.73027 1.41188,0.78166 0.0322,0.0292 0.10601,0.0531 0.16405,0.0531 0.0582,0 0.11486,0.0207 0.12613,0.0462 0.0113,0.0255 0.15201,0.11474 0.31273,0.19867 0.16072,0.084 0.29222,0.17165 0.29222,0.19505 0,0.0234 0.083,0.0607 0.18456,0.083 0.10147,0.0223 0.18457,0.0622 0.18457,0.0887 0,0.0264 0.13078,0.11423 0.29063,0.19506 0.15986,0.0808 0.32794,0.18157 0.37352,0.22386 0.0457,0.0423 0.109,0.0769 0.14095,0.0769 0.0319,0 0.20299,0.0909 0.38011,0.20202 0.37059,0.23246 0.48569,0.30237 0.78344,0.47581 0.11848,0.069 0.29837,0.1797 0.39988,0.24604 0.10157,0.0663 0.22609,0.13965 0.27684,0.16291 0.0508,0.0231 0.17534,0.0997 0.27685,0.17002 0.29399,0.20346 0.41817,0.27792 0.61645,0.36965 0.10229,0.0473 0.23887,0.1446 0.30372,0.21626 0.0648,0.0717 0.15426,0.11635 0.1987,0.0993 0.0444,-0.0171 0.0808,-0.006 0.0808,0.0248 0,0.0487 1.15934,0.85361 1.32268,0.91817 0.0338,0.0133 0.16241,0.10338 0.2857,0.19994 0.12334,0.0966 0.24322,0.17563 0.26649,0.17563 0.0233,0 0.15771,0.0936 0.29875,0.20781 0.14104,0.11436 0.31479,0.22565 0.38611,0.24745 0.0714,0.0218 0.24894,0.14975 0.39473,0.28434 0.14579,0.1346 0.31584,0.24472 0.37788,0.24472 0.0619,0 0.11274,0.0268 0.11274,0.0595 0,0.0618 0.70869,0.55567 0.79754,0.55567 0.0279,0 0.0651,0.0378 0.0828,0.084 0.0349,0.0911 0.81285,0.65432 0.90375,0.65432 0.0305,0 0.14692,0.0923 0.25851,0.20496 0.11162,0.11275 0.36599,0.3273 0.56531,0.4768 0.19933,0.14949 0.43464,0.32593 0.52292,0.3921 0.37388,0.2802 2.10196,1.687 2.4983,2.03382 0.23686,0.20724 0.52011,0.43871 0.62946,0.51433 0.10937,0.0756 0.35327,0.29943 0.54202,0.49732 0.18877,0.1979 0.42367,0.39313 0.522,0.43388 0.0984,0.0408 0.1941,0.12221 0.2128,0.18114 0.0187,0.0589 0.15111,0.19998 0.29426,0.31354 0.14315,0.11361 0.36644,0.32539 0.49622,0.47076 0.12976,0.14534 0.27191,0.26427 0.3159,0.26427 0.044,0 0.12296,0.0656 0.17551,0.14579 0.13453,0.20534 0.84613,0.87247 0.91082,0.85392 0.0296,-0.009 0.0537,0.0201 0.0537,0.0634 0,0.0433 0.3322,0.40586 0.73824,0.80568 0.40603,0.39981 0.73825,0.75008 0.73825,0.77839 0,0.0283 0.0554,0.0691 0.12308,0.0905 0.0677,0.0214 0.12372,0.0719 0.12447,0.11186 8e-4,0.04 0.20151,0.28291 0.44602,0.53977 0.57305,0.60202 0.81512,0.87414 1.12771,1.26774 0.24986,0.31464 0.4128,0.49943 0.80872,0.9172 0.10999,0.11598 0.19994,0.22548 0.19994,0.24321 0,0.081 0.4083,0.5762 0.47678,0.57835 0.0423,0.001 0.0769,0.0349 0.0769,0.0745 0,0.12494 0.87301,1.21969 0.93976,1.17844 0.0356,-0.022 0.0452,-0.0102 0.0216,0.0287 -0.0373,0.0604 0.0813,0.24089 0.69537,1.05837 0.0889,0.11848 0.28386,0.40219 0.43312,0.63058 0.14926,0.2284 0.2938,0.41527 0.3212,0.41527 0.0274,0 0.0499,0.0325 0.0499,0.0722 0,0.0396 0.23216,0.4342 0.51591,0.87667 1.70768,2.66288 2.88489,5.0485 4.03992,8.18695 0.11361,0.30887 0.51434,1.68326 0.70845,2.43007 0.20453,0.78692 0.54738,2.52074 0.60882,3.07886 0.0203,0.18454 0.0688,0.58468 0.10787,0.88921 0.0967,0.75447 0.0973,4.02665 9.8e-4,4.76785 -0.0418,0.32144 -0.0915,0.72287 -0.11049,0.89205 -0.0881,0.78457 -0.58544,2.93974 -0.85178,3.69123 -0.64464,1.81868 -1.27584,3.19142 -2.13577,4.6448 -0.51988,0.87865 -1.72252,2.5385 -2.31787,3.19906 -0.16773,0.1861 -0.30143,0.35859 -0.29708,0.38332 0.004,0.0247 -0.0613,0.0933 -0.14592,0.15228 -0.20229,0.14116 -0.72756,0.71117 -0.71631,0.77731 0.005,0.0285 -0.0674,0.0916 -0.16037,0.14039 -0.0931,0.0487 -0.16918,0.12929 -0.16918,0.17896 0,0.0497 -0.0351,0.0903 -0.0782,0.0903 -0.043,0 -0.23439,0.15919 -0.42528,0.35376 -0.19088,0.19454 -0.4256,0.41536 -0.52159,0.4907 -0.34505,0.27077 -0.57442,0.49569 -0.57442,0.56323 0,0.0378 -0.0224,0.0619 -0.0499,0.0534 -0.0481,-0.0149 -0.26803,0.13965 -0.61483,0.43197 -0.0911,0.0768 -0.25556,0.20144 -0.3653,0.27685 -0.10975,0.0755 -0.19972,0.1717 -0.19994,0.21399 0,0.0423 -0.0212,0.0736 -0.0465,0.0696 -0.12618,-0.02 -0.19992,0.0161 -0.19992,0.0977 0,0.0548 -0.0361,0.0765 -0.0917,0.0551 -0.0524,-0.0201 -0.10799,0.007 -0.12961,0.0635 -0.0208,0.0543 -0.0748,0.0986 -0.12011,0.0986 -0.0452,0 -0.12582,0.0623 -0.17915,0.13841 -0.0533,0.0761 -0.11723,0.13507 -0.1419,0.13096 -0.0769,-0.0128 -1.06005,0.65066 -1.06005,0.71532 0,0.0337 -0.0207,0.0579 -0.0462,0.0539 -0.11087,-0.0175 -0.18596,0.0159 -0.32333,0.14386 -0.0807,0.075 -0.18517,0.14222 -0.23231,0.14914 -0.0471,0.007 -0.13395,0.0562 -0.19286,0.1095 -0.0589,0.0532 -0.13614,0.0969 -0.17162,0.0969 -0.0355,0 -0.10076,0.0436 -0.14509,0.0972 -0.0442,0.0533 -0.20689,0.16438 -0.36129,0.24662 -0.15437,0.0823 -0.32222,0.17378 -0.37297,0.20338 -0.0508,0.0296 -0.16843,0.0894 -0.26147,0.1329 -0.0931,0.0435 -0.16919,0.10987 -0.16919,0.14752 0,0.0377 -0.0622,0.0738 -0.13841,0.0803 -0.19755,0.0169 -0.63047,0.24948 -0.63127,0.33925 -6e-4,0.0417 -0.058,0.0679 -0.12804,0.0583 -0.0701,-0.0102 -0.35058,0.108 -0.62339,0.26145 -0.27282,0.15343 -0.53357,0.27907 -0.57944,0.27919 -0.0459,0 -0.17408,0.0555 -0.28485,0.12308 -0.11075,0.0676 -0.23537,0.12247 -0.27685,0.12209 -0.0416,-6.1e-4 -0.41846,-0.27837 -0.83774,-0.61769 z m 21.28093,-16.91711 c 8.6e-4,-0.11723 0.0269,-0.32386 0.0582,-0.45921 0.0312,-0.13533 0.11523,-0.6475 0.18681,-1.13813 0.10925,-0.74867 0.1303,-1.18372 0.13092,-2.70691 8e-4,-1.98746 -0.0605,-2.94994 -0.28586,-4.49099 -0.20717,-1.41616 -0.90427,-4.14044 -1.4168,-5.53685 -0.67419,-1.8368 -1.69702,-4.16917 -2.23193,-5.08945 -0.13319,-0.22915 -0.34547,-0.62273 -0.47173,-0.87463 -0.47829,-0.95429 -1.81405,-3.0693 -2.99612,-4.74401 -1.34275,-1.90238 -2.58235,-3.43394 -4.47366,-5.52729 -1.26847,-1.404 -3.61074,-3.73595 -4.71257,-4.69183 -0.338,-0.29323 -0.87768,-0.76386 -1.19929,-1.04585 -1.4412,-1.26364 -3.41929,-2.89676 -3.93701,-3.25041 -0.11847,-0.0809 -0.41672,-0.3101 -0.66287,-0.50935 -0.24615,-0.19925 -0.5938,-0.46376 -0.77257,-0.58778 -0.17876,-0.12408 -0.49384,-0.3501 -0.70016,-0.50235 -0.20633,-0.15227 -0.50925,-0.36925 -0.67317,-0.48215 -0.36647,-0.25247 -1.70686,-1.18688 -1.95908,-1.36572 -0.10147,-0.072 -0.41987,-0.27944 -0.70749,-0.46105 -0.2876,-0.18162 -0.60597,-0.38776 -0.70747,-0.45808 -0.2994,-0.20743 -0.60853,-0.40415 -0.70749,-0.45025 -0.0508,-0.0237 -0.29991,-0.18079 -0.55369,-0.34922 -0.25377,-0.16844 -0.63709,-0.41074 -0.85183,-0.53849 -0.21473,-0.12774 -0.46389,-0.27913 -0.55369,-0.33645 -0.0898,-0.0573 -0.23938,-0.1473 -0.33244,-0.19995 -0.0931,-0.0526 -0.2453,-0.1388 -0.33836,-0.19145 -0.0931,-0.0526 -0.25224,-0.14925 -0.35374,-0.21465 -0.10147,-0.0653 -0.2261,-0.13829 -0.27684,-0.16199 -0.0508,-0.0237 -0.2363,-0.13474 -0.41231,-0.24677 -0.17602,-0.11198 -0.33575,-0.20368 -0.35496,-0.20368 -0.0192,0 -0.15204,-0.0739 -0.29519,-0.16428 -0.14312,-0.0904 -0.2629,-0.15264 -0.26616,-0.13842 -0.004,0.0142 -0.052,-0.0125 -0.10825,-0.0591 -0.11386,-0.0944 -0.27812,-0.1874 -1.39304,-0.78803 -1.35693,-0.73099 -1.72029,-0.91832 -3.53743,-1.82375 -1.68408,-0.83913 -2.72219,-1.34308 -3.35288,-1.62761 -0.15225,-0.0687 -0.49386,-0.22426 -0.7591,-0.34572 -0.26524,-0.12147 -0.49683,-0.22081 -0.51465,-0.22081 -0.0178,0 -0.23927,-0.0969 -0.49216,-0.21532 -0.25288,-0.11848 -0.47267,-0.21533 -0.48843,-0.21533 -0.0263,0 -0.32661,-0.12849 -0.79184,-0.33883 -0.17758,-0.0803 -0.51889,-0.22394 -0.58352,-0.24561 -0.017,-0.006 -0.10688,-0.0427 -0.19994,-0.082 -0.0931,-0.0394 -0.24532,-0.10401 -0.33836,-0.14349 -0.0931,-0.0394 -0.18995,-0.0776 -0.21533,-0.0846 -0.0254,-0.007 -0.06,-0.0199 -0.077,-0.0282 -0.017,-0.009 -0.0515,-0.0206 -0.0769,-0.0268 -0.0254,-0.006 -0.15334,-0.0583 -0.28435,-0.11535 -0.13102,-0.0571 -0.25045,-0.10389 -0.26541,-0.10389 -0.0149,0 -0.17074,-0.0653 -0.34623,-0.14532 -0.17547,-0.08 -0.38826,-0.16627 -0.47285,-0.19189 -0.0846,-0.0256 -0.26453,-0.0961 -0.39988,-0.15675 -0.33017,-0.14783 -4.28098,-1.59772 -4.35362,-1.59772 -0.0314,0 -0.14449,-0.0394 -0.25112,-0.0876 -0.10663,-0.0482 -0.49838,-0.18877 -0.87058,-0.31227 -0.3722,-0.12346 -0.71825,-0.24048 -0.76901,-0.25993 -0.0508,-0.0195 -0.11997,-0.0439 -0.1538,-0.0544 -0.0338,-0.0102 -0.42141,-0.13196 -0.86129,-0.26996 -0.43986,-0.13803 -0.82745,-0.25887 -0.86128,-0.26853 -0.0338,-0.0102 -0.25245,-0.0782 -0.48581,-0.15218 -0.5584,-0.17709 -4.75661,-1.3473 -4.97313,-1.38619 -0.0926,-0.0166 -0.19133,-0.0445 -0.21963,-0.0619 -0.0283,-0.0175 -0.13258,-0.0485 -0.23172,-0.069 -0.2903,-0.0599 -0.29969,-0.0628 -0.38019,-0.11299 -0.0423,-0.0264 -0.0769,-0.0343 -0.0769,-0.0176 0,0.0167 -0.18713,-0.0214 -0.41583,-0.0848 -0.22871,-0.0634 -0.48479,-0.12941 -0.56907,-0.14673 -0.0843,-0.0173 -0.20861,-0.0464 -0.27628,-0.0647 -0.0677,-0.0182 -0.44141,-0.10219 -0.83053,-0.18632 -0.38911,-0.0842 -0.90127,-0.19682 -1.13812,-0.25024 -0.66143,-0.14914 -2.12842,-0.45752 -2.36095,-0.4963 -0.11424,-0.019 -0.25962,-0.0463 -0.323,-0.0603 -0.0634,-0.0141 -0.16711,-0.0373 -0.2305,-0.0515 -0.0634,-0.0142 -0.22256,-0.0425 -0.35373,-0.063 -0.13117,-0.0205 -0.28002,-0.0494 -0.33078,-0.0641 -0.10326,-0.03 -0.0762,-0.0251 -1.47649,-0.27746 -0.5583,-0.10065 -1.0843,-0.19709 -1.16889,-0.21431 -0.0845,-0.0172 -0.4168,-0.0761 -0.73825,-0.13077 -0.65546,-0.11149 -0.76489,-0.13134 -0.984329,-0.1782 -0.31781,-0.0679 -0.468298,-0.0943 -0.70749,-0.12408 -0.135347,-0.0168 -0.315292,-0.0442 -0.399882,-0.0607 -0.192951,-0.0377 -0.452097,-0.0797 -0.769009,-0.12458 -0.414224,-0.0588 -2.57599,-0.3948 -2.706899,-0.4208 -0.06767,-0.0135 -0.30299,-0.0447 -0.522925,-0.0696 -0.219935,-0.0248 -0.44141,-0.0525 -0.492164,-0.0614 -0.05076,-0.009 -0.272229,-0.0367 -0.492164,-0.0614 -0.219937,-0.0248 -0.455252,-0.056 -0.522925,-0.0692 -0.06767,-0.0132 -0.24762,-0.038 -0.399883,-0.0549 -0.361422,-0.0401 -0.605308,-0.0687 -1.568774,-0.18351 -0.439872,-0.0524 -0.896662,-0.10688 -1.015089,-0.12097 -0.185927,-0.0222 -0.783125,-0.0814 -1.291932,-0.12831 -0.228407,-0.0211 -0.95988,-0.0835 -1.414971,-0.12072 -0.219937,-0.0181 -0.538306,-0.0453 -0.707488,-0.0607 -0.169181,-0.0154 -0.570602,-0.0441 -0.892047,-0.064 -0.321444,-0.0199 -0.722865,-0.0476 -0.892049,-0.0618 -0.169181,-0.0142 -0.653655,-0.0413 -1.076609,-0.0601 -0.422953,-0.0188 -0.879742,-0.0451 -1.015088,-0.0584 -0.72147,-0.0705 -3.221167,-0.12481 -5.752171,-0.12481 -4.259091,0 -7.727811,0.12968 -9.904807,0.37027 -0.118424,0.0131 -0.409111,0.0399 -0.645966,0.0595 -0.823667,0.0683 -1.110082,0.0963 -1.568773,0.15319 -0.253772,0.0314 -0.641352,0.0745 -0.861288,0.0959 -0.459952,0.0445 -1.555005,0.18177 -2.183979,0.27378 -0.236854,0.0347 -0.527538,0.0766 -0.645966,0.0932 -0.397223,0.0555 -1.071452,0.16613 -1.722574,0.28254 -0.355281,0.0635 -0.770546,0.13049 -0.922809,0.14882 -0.388599,0.0468 -1.531941,0.26098 -2.153219,0.4033 -0.287608,0.0658 -0.702872,0.16001 -0.922807,0.20914 -0.219937,0.0491 -0.649043,0.14697 -0.953569,0.21745 -0.304527,0.0705 -0.747474,0.17228 -0.984329,0.22628 -0.236854,0.054 -0.582907,0.13859 -0.769006,0.18797 -0.186101,0.0494 -0.435258,0.11212 -0.553686,0.13939 -0.297135,0.0685 -1.386316,0.35723 -1.722574,0.45672 -0.152265,0.0451 -0.401422,0.11622 -0.553686,0.15817 -0.885848,0.24409 -3.297875,1.03393 -3.937314,1.28935 -0.321445,0.12839 -0.662215,0.25172 -0.757265,0.27407 -0.190443,0.0447 -2.107719,0.81852 -2.595604,1.04748 -0.169182,0.0795 -0.61213,0.26925 -0.984329,0.42188 -0.3722,0.15265 -1.133516,0.50631 -1.691815,0.78592 -1.001805,0.50174 -3.016273,1.58391 -3.076027,1.65245 -0.01693,0.0195 -0.10584,0.0768 -0.19759,0.12757 -0.588421,0.32547 -2.034603,1.20949 -2.429978,1.48537 -0.128225,0.0894 -0.343874,0.23327 -0.479219,0.31954 -0.972664,0.62001 -2.684828,1.95117 -4.120559,3.20362 -0.846221,0.73817 -3.033178,2.97507 -3.493817,3.57357 -0.02604,0.0338 -0.118574,0.14458 -0.205631,0.2461 -0.08706,0.10147 -0.307785,0.37834 -0.490513,0.6152 -0.182728,0.23685 -0.444272,0.56906 -0.581212,0.73824 -0.205577,0.25399 -1.454183,2.09852 -1.870609,2.76341 -0.116029,0.18526 -0.245954,0.42544 -0.966541,1.78677 -0.387784,0.73259 -1.525238,3.44639 -1.625473,3.87813 -0.02357,0.10157 -0.148269,0.51678 -0.277115,0.92282 -0.348442,1.09805 -0.560413,2.04417 -0.798041,3.56204 -0.06832,0.43649 -0.136579,0.81357 -0.151654,0.83797 -0.01507,0.0245 -0.07169,0.53931 -0.125833,1.14427 -0.179216,2.00283 -0.11699,5.62078 0.121554,7.06744 0.05022,0.30452 0.136321,0.84436 0.191344,1.19963 0.308799,1.99389 0.775692,3.87985 1.538245,6.21359 0.546075,1.67122 1.574269,4.13968 2.46762,5.92421 0.485148,0.9691 1.226173,2.34699 1.384896,2.57511 0.143621,0.20642 0.155582,0.348 0.01989,0.2354 -0.138905,-0.11525 -1.161124,-1.39526 -1.820801,-2.27993 -0.650479,-0.87232 -0.80418,-1.08767 -1.489386,-2.08684 -1.27153,-1.85413 -2.345234,-2.81384 -3.701707,-3.30868 -0.414658,-0.15127 -3.761303,-1.09406 -4.084209,-1.15058 -0.114633,-0.0201 -0.259971,-0.0641 -0.322983,-0.0978 -0.06301,-0.0338 -0.11457,-0.0456 -0.11457,-0.0262 0,0.0194 -0.05155,0.007 -0.114571,-0.0262 -0.06302,-0.0338 -0.208354,-0.0778 -0.322982,-0.0979 -0.114632,-0.0201 -0.443731,-0.10263 -0.731339,-0.18322 -0.287609,-0.0807 -0.592136,-0.16187 -0.676727,-0.18049 -0.0846,-0.0185 -0.958663,-0.23897 -1.9423826,-0.48963 -1.233648,-0.3146 -1.9209215,-0.52158 -2.2148347,-0.66729 -1.0126185,-0.50198 -1.7766183,-1.15939 -2.3791354,-2.04719 -0.2946152,-0.43411 -1.1447134,-2.20236 -1.5229565,-3.16781 -0.1126751,-0.28761 -0.3221598,-0.80157 -0.4655161,-1.14213 -0.1433549,-0.34058 -0.2876814,-0.71432 -0.3207244,-0.83054 -0.033048,-0.11623 -0.1709894,-0.50199 -0.3065451,-0.85727 -0.2789916,-0.73121 -0.343121,-1.03495 -0.3340933,-1.58229 0.011473,-0.69434 0.4599041,-1.35752 1.0637095,-1.57304 0.1490019,-0.0531 0.575439,-0.1667 0.9476373,-0.25224 0.7098222,-0.16315 1.5109183,-0.34773 2.1839798,-0.50324 0.7379306,-0.17049 1.690156,-0.40074 1.8763761,-0.45368 0.1015141,-0.0288 0.5306145,-0.14083 0.9535685,-0.24881 0.4229539,-0.108 0.8935859,-0.232 1.0458499,-0.27556 0.152263,-0.0435 0.401422,-0.11236 0.553685,-0.15298 0.354841,-0.0945 0.778657,-0.30109 1.000675,-0.48765 0.473772,-0.39812 0.735536,-1.5866 0.537899,-2.44224 -0.06104,-0.26421 -0.188979,-1.52499 -0.311678,-3.07121 -0.09801,-1.23513 -0.04198,-4.91013 0.08912,-5.84446 0.177988,-1.2685 0.0999,-1.95811 -0.30997,-2.73766 -0.241061,-0.45847 -0.364939,-0.60853 -0.791868,-0.95922 -0.253088,-0.20789 -1.6801161,-1.1861 -2.0559261,-1.40931 -0.09009,-0.0535 -0.5465337,-0.35256 -1.1347566,-0.74346 -0.097523,-0.0648 -0.2221041,-0.14587 -0.2768429,-0.18012 -0.054735,-0.0343 -0.3071548,-0.19794 -0.5609277,-0.36372 -0.2537716,-0.16578 -0.6136674,-0.39823 -0.7997666,-0.51656 -0.1860991,-0.11834 -0.4574087,-0.29378 -0.6029098,-0.3899 -0.1455001,-0.0961 -0.2788471,-0.1748 -0.2963277,-0.1748 -0.017484,0 -0.1199083,-0.0624 -0.2276174,-0.13857 -0.1077118,-0.0762 -0.2512051,-0.17169 -0.3188775,-0.21215 -0.067668,-0.0405 -0.3112092,-0.19268 -0.5411924,-0.33822 -0.2299833,-0.14554 -0.4656908,-0.29231 -0.5237942,-0.32615 -0.6633979,-0.38632 -0.875161,-0.55544 -1.1889517,-0.94955 -0.4569286,-0.57386 -0.6684124,-1.32822 -0.5541834,-1.97671 0.092385,-0.52444 1.0582073,-2.60192 1.7284979,-3.71793 0.1219286,-0.20303 0.253804,-0.44275 0.2930465,-0.53271 0.1342224,-0.30774 0.7490633,-1.25932 0.9525021,-1.4742 0.4225275,-0.44628 0.910172,-0.7508 1.5825715,-0.98827 0.4922675,-0.17386 1.5576731,-0.21646 2.2942955,-0.0918 0.3141859,0.0533 0.70967,0.11648 0.8788512,0.14075 0.169181,0.0242 0.3491283,0.052 0.3998839,0.0616 0.050757,0.0102 0.2168584,0.0334 0.3691234,0.0526 0.152263,0.0191 0.401421,0.0508 0.553684,0.07 0.152263,0.0194 0.346053,0.0465 0.430644,0.0605 0.160452,0.0265 0.493132,0.0662 1.015088,0.12071 0.169182,0.0177 0.376815,0.0447 0.461405,0.0601 0.0846,0.0154 0.306338,0.0404 0.492771,0.0556 0.322765,0.0263 1.271288,0.1161 2.053925,0.19467 1.909974,0.1916 2.009055,0.19643 2.634505,0.12822 0.754319,-0.0823 1.822759,-0.63985 2.591906,-1.35265 0.10659,-0.0988 0.443383,-0.41874 0.748426,-0.71104 0.642111,-0.61529 1.145544,-1.05394 2.046186,-1.78284 0.139674,-0.11298 0.308076,-0.25146 0.374227,-0.3076 0.06614,-0.0561 0.180803,-0.1436 0.254783,-0.19435 0.07398,-0.0508 0.20806,-0.15566 0.297959,-0.23312 0.0899,-0.0774 0.260349,-0.20058 0.378776,-0.27359 0.118424,-0.0729 0.229164,-0.14995 0.246082,-0.17095 0.03737,-0.0464 1.47107,-1.1122 1.612492,-1.19872 0.05531,-0.0338 0.385695,-0.25531 0.734184,-0.49216 0.34849,-0.23686 0.65769,-0.44072 0.687113,-0.45303 0.07111,-0.0298 0.852438,-0.54362 0.94707,-0.62287 0.04086,-0.0343 0.102073,-0.0623 0.136027,-0.0623 0.07369,0 0.666719,-0.46867 1.041826,-0.82336 0.531559,-0.50263 0.7628,-1.0574 0.623019,-1.49469 -0.08943,-0.27976 -0.640499,-1.39115 -1.031683,-2.08067 -0.421554,-0.74305 -1.334136,-2.10832 -2.076111,-3.106 -0.80709,-1.08521 -0.886716,-1.24849 -0.88849,-1.82186 -0.0016,-0.53225 0.165088,-0.8921 0.615378,-1.32812 0.284482,-0.27547 0.435497,-0.35913 1.844092,-1.02151 0.91005,-0.42795 3.392572,-1.46875 3.845034,-1.61204 0.135346,-0.0429 0.509083,-0.18737 0.830527,-0.32115 0.321445,-0.13377 0.653656,-0.25591 0.738247,-0.27142 0.0846,-0.0155 0.250696,-0.0565 0.369124,-0.091 0.359851,-0.105 1.776835,-0.14044 2.344227,-0.0588 0.974785,0.14048 1.555701,0.34702 2.823497,1.00389 1.228511,0.63649 2.913491,1.47889 3.352871,1.67624 0.135344,0.0608 0.503521,0.23098 0.818168,0.37817 0.314647,0.14721 0.586122,0.26765 0.603276,0.26765 0.0275,0 1.029157,0.42542 1.531541,0.65047 0.50408,0.22581 1.731561,0.64599 2.018706,0.69102 0.346823,0.0544 1.318037,0.049 1.924935,-0.0102 0.497942,-0.049 1.170678,-0.18688 1.839291,-0.3771 0.304526,-0.0867 0.609053,-0.16947 0.676725,-0.18406 0.06767,-0.0146 0.240699,-0.0554 0.384503,-0.0905 0.143805,-0.0351 0.365278,-0.0893 0.492164,-0.12022 0.126886,-0.0309 0.28607,-0.0698 0.353744,-0.0863 0.279402,-0.0683 1.381713,-0.32634 1.630294,-0.38167 0.05075,-0.0113 0.299913,-0.0675 0.553684,-0.12475 0.253773,-0.0573 0.641353,-0.14288 0.861288,-0.19015 0.219937,-0.0473 0.455253,-0.0986 0.522925,-0.1141 0.06767,-0.0155 0.469094,-0.0997 0.892048,-0.1874 0.983133,-0.20359 0.975332,-0.20189 1.096905,-0.23928 0.05651,-0.0173 0.227324,-0.0481 0.379588,-0.0684 0.152263,-0.0202 0.33221,-0.0469 0.399882,-0.0595 0.06768,-0.0125 0.206094,-0.036 0.307604,-0.0524 0.10151,-0.0164 0.419921,-0.0738 0.707572,-0.12773 0.287658,-0.0539 0.63371,-0.11211 0.769006,-0.12928 0.236639,-0.0301 1.40724,-0.2057 1.660969,-0.24914 0.190838,-0.0327 0.525504,-0.0783 0.842309,-0.11473 0.688494,-0.0794 1.699758,-0.2553 2.018397,-0.35124 0.118425,-0.0356 0.475855,-0.1649 0.794292,-0.28718 0.70412,-0.27042 1.128206,-0.63359 1.200395,-1.02794 0.02453,-0.13406 0.151783,-0.60365 0.282772,-1.04351 0.351781,-1.18135 0.530074,-1.99226 0.64249,-2.92224 0.166179,-1.3747 0.193347,-1.47051 0.50135,-1.76767 0.4247,-0.40975 1.144164,-0.72922 1.961748,-0.87109 0.203017,-0.0353 0.452177,-0.0799 0.553685,-0.099 0.233827,-0.0442 5.643715,-0.0444 7.197903,-1.2e-4 2.210545,0.063 2.817653,0.1095 3.721993,0.28556 0.355281,0.0692 0.713237,0.13851 0.795454,0.15412 0.08222,0.0156 0.172651,0.0426 0.200957,0.0601 0.02831,0.0175 0.116541,0.0436 0.196066,0.058 0.07953,0.0144 0.252099,0.0731 0.383488,0.13043 0.131389,0.0573 0.252733,0.10687 0.269651,0.11011 0.01693,0.004 0.210709,0.0938 0.430644,0.20111 0.465446,0.22717 0.898336,0.57431 1.361739,1.09198 1.126121,1.25802 4.949936,5.15981 5.467041,5.57854 0.222864,0.18045 1.338785,0.81247 1.399887,0.79285 0.0086,-0.002 0.11936,0.0383 0.246083,0.0913 0.126719,0.053 0.465722,0.16237 0.75333,0.24309 0.491273,0.13788 0.606649,0.16574 1.03047,0.24885 0.09304,0.0182 0.210708,0.0453 0.261462,0.0601 0.05075,0.0148 0.199604,0.0436 0.330777,0.0641 0.131175,0.0205 0.290358,0.0488 0.353748,0.063 0.06335,0.0141 0.177537,0.0392 0.25366,0.0556 0.0762,0.0165 0.316563,0.0743 0.53428,0.12876 0.217731,0.0544 0.453046,0.10975 0.522934,0.12309 0.345145,0.0654 1.143262,0.26443 1.665073,0.41495 0.29544,0.0852 0.59404,0.15997 0.69183,0.17316 0.0256,0.004 0.1156,0.0332 0.20022,0.0661 0.0846,0.033 0.22301,0.0727 0.3076,0.0886 0.17928,0.0335 2.50891,0.68636 2.64538,0.74145 0.0508,0.0205 0.15665,0.048 0.23535,0.0612 0.0786,0.0132 0.27938,0.0778 0.44602,0.14346 0.16662,0.0657 0.30295,0.105 0.30295,0.0874 0,-0.0176 0.0511,-0.005 0.11349,0.0287 0.0625,0.0334 0.1801,0.075 0.26146,0.0923 0.15763,0.0337 1.47221,0.4326 2.63952,0.80101 0.38911,0.12284 0.73517,0.23201 0.769,0.24267 0.0338,0.0102 0.10302,0.0353 0.15381,0.0546 0.11485,0.0439 0.75246,0.25144 0.81515,0.26533 0.0253,0.006 0.06,0.0171 0.0769,0.0256 0.017,0.009 0.0515,0.02 0.0769,0.0256 0.0254,0.006 0.23993,0.0772 0.47679,0.15902 0.23685,0.0818 0.45141,0.1534 0.47678,0.159 0.0253,0.006 0.06,0.0171 0.0769,0.0256 0.017,0.009 0.0515,0.0212 0.077,0.0285 0.0253,0.007 0.0946,0.0314 0.1538,0.0539 0.24676,0.0936 0.32617,0.12172 0.38451,0.13632 0.0338,0.009 0.52681,0.18423 1.09549,0.39059 0.56867,0.20637 1.05925,0.3752 1.09016,0.3752 0.0309,0 0.20236,0.0652 0.38101,0.14486 0.17865,0.0797 0.657,0.26288 1.06304,0.40712 0.40603,0.14425 0.77978,0.27737 0.83054,0.29586 0.0508,0.0184 0.10612,0.0383 0.12309,0.044 0.017,0.006 0.10874,0.0428 0.20394,0.0822 0.0953,0.0394 0.18185,0.0717 0.19243,0.0717 0.0102,0 0.12645,0.0468 0.25747,0.10388 0.131,0.0571 0.25205,0.10725 0.26897,0.11136 0.017,0.004 0.13796,0.0543 0.26898,0.11137 0.13101,0.0571 0.24687,0.10389 0.25745,0.10389 0.0102,0 0.0972,0.0323 0.19242,0.0717 0.0952,0.0394 0.18704,0.0757 0.20395,0.0807 0.017,0.005 0.13796,0.0556 0.26897,0.11286 0.13102,0.0571 0.25046,0.10389 0.26541,0.10389 0.0149,0 0.1785,0.0692 0.36343,0.1538 0.18494,0.0846 0.34747,0.15379 0.36119,0.15379 0.0137,0 0.10288,0.0322 0.19811,0.0717 0.0952,0.0394 0.18703,0.0765 0.20394,0.082 0.0635,0.0213 0.40477,0.16478 0.58353,0.24536 0.10198,0.046 0.39312,0.17041 0.64689,0.27649 0.58123,0.24296 0.60732,0.25435 1.18975,0.51964 0.26525,0.12084 0.49608,0.21968 0.51298,0.21968 0.0168,0 0.20821,0.083 0.42516,0.18456 0.46816,0.21906 1.15143,0.53145 1.40953,0.64446 0.10147,0.0444 0.32299,0.14294 0.49217,0.21888 0.16918,0.076 0.32145,0.13621 0.33836,0.13392 0.017,-0.002 0.082,0.0423 0.14489,0.0991 0.0628,0.0568 0.12536,0.0956 0.1391,0.0864 0.0313,-0.0212 0.43695,0.16408 1.53216,0.69985 0.47301,0.23138 0.87384,0.42392 0.89076,0.42785 0.10825,0.0252 0.29265,0.12109 0.38451,0.19999 0.0593,0.0509 0.10762,0.07 0.10762,0.0427 0,-0.0274 0.0554,3.2e-4 0.12309,0.0614 0.0677,0.0612 0.12309,0.0898 0.12309,0.0635 0,-0.0263 0.0389,-0.0156 0.0864,0.024 0.0475,0.0394 0.62199,0.34413 1.27655,0.67708 1.60309,0.81539 1.75429,0.89542 1.86426,0.98668 0.0521,0.0433 0.0949,0.0572 0.0949,0.0309 0,-0.0263 0.0484,-0.006 0.10762,0.0434 0.0593,0.0502 0.25994,0.16736 0.44602,0.26035 0.18611,0.0931 0.4768,0.24821 0.64598,0.34494 0.16917,0.0968 0.40449,0.22513 0.52291,0.28532 0.11848,0.0602 0.38144,0.20383 0.58446,0.31916 0.20301,0.11536 0.4937,0.28008 0.64596,0.36611 0.15227,0.086 0.35989,0.20695 0.46141,0.26873 0.10147,0.0617 0.22608,0.13109 0.27685,0.15405 0.0508,0.0229 0.23069,0.12869 0.39987,0.23496 0.16918,0.10626 0.34913,0.21263 0.39989,0.23632 0.0508,0.0237 0.17532,0.0979 0.27683,0.16476 0.10158,0.067 0.22609,0.14108 0.27685,0.16477 0.0508,0.0237 0.23631,0.13474 0.41231,0.24676 0.17601,0.11199 0.34566,0.20368 0.37697,0.20368 0.0313,0 0.0898,0.0395 0.12986,0.0878 0.0401,0.0482 0.2165,0.16215 0.39203,0.25296 0.17552,0.0908 0.36283,0.20354 0.41625,0.25051 0.0534,0.047 0.11374,0.0854 0.13407,0.0854 0.0204,0 0.20367,0.11075 0.40743,0.24609 0.20377,0.13535 0.38427,0.24609 0.40115,0.24609 0.0169,0 0.14971,0.0789 0.29521,0.17542 0.14551,0.0966 0.47219,0.30855 0.72595,0.47122 1.32735,0.85095 3.57228,2.3815 5.22925,3.56523 1.30126,0.92961 1.556,1.11508 1.90445,1.3865 0.19546,0.15226 0.47091,0.35989 0.61209,0.4614 1.04297,0.74992 4.42303,3.54172 5.87657,4.85384 1.7088,1.54254 2.17503,1.98551 3.7586,3.57103 4.63179,4.63748 7.83301,8.64783 10.81084,13.54334 2.5821,4.24492 4.77609,9.55953 5.62323,13.62142 0.32433,1.55515 0.60226,3.29708 0.72637,4.55251 0.11199,1.1333 0.12965,4.33403 0.029,5.26002 -0.15039,1.38296 -0.25536,2.14066 -0.42621,3.07603 -0.20131,1.10226 -0.88081,3.83101 -1.02195,4.10391 -0.0504,0.0974 -0.20098,0.48637 -0.33465,0.86431 -0.13367,0.37791 -0.28458,0.72869 -0.33539,0.77948 -0.082,0.0822 -0.0922,0.0687 -0.0908,-0.12072 z M 50.395086,221.63265 c -0.01544,-0.0143 -0.415651,-0.0446 -0.889358,-0.0671 -0.473708,-0.0226 -0.972026,-0.0519 -1.107371,-0.0653 -0.135345,-0.0133 -0.578293,-0.0402 -0.984328,-0.0597 -0.406036,-0.0195 -0.932036,-0.0501 -1.168891,-0.068 -0.236853,-0.0179 -0.615569,-0.0422 -0.84159,-0.0539 -0.226022,-0.0113 -0.439688,-0.039 -0.474814,-0.0607 -0.0787,-0.0486 -0.743896,-2.07362 -0.953615,-2.90295 -0.960854,-3.79975 -1.137648,-7.16794 -0.553398,-10.54317 0.505814,-2.92211 1.566817,-5.60894 3.231072,-8.18223 0.229775,-0.35528 0.440194,-0.67365 0.4676,-0.7075 0.0274,-0.0338 0.199198,-0.26914 0.381764,-0.52292 0.182564,-0.25376 0.348157,-0.47524 0.367985,-0.49216 0.01983,-0.017 0.146745,-0.16918 0.282039,-0.33837 0.365295,-0.45678 0.45963,-0.56791 0.830622,-0.97843 0.725831,-0.80315 1.974567,-2.00897 2.737664,-2.64356 0.976763,-0.81228 1.001433,-0.83218 1.26477,-1.02006 0.116441,-0.083 0.239406,-0.17384 0.273242,-0.20169 0.135572,-0.11161 1.079818,-0.78539 1.100615,-0.78539 0.01223,0 0.398344,-0.24915 0.857975,-0.55368 0.459632,-0.30452 0.853285,-0.55368 0.874788,-0.55368 0.0215,0 0.115144,-0.0542 0.208097,-0.12035 0.451503,-0.3215 2.097077,-1.16371 4.033387,-2.06432 0.630001,-0.29302 2.725699,-1.13679 3.045268,-1.22609 0.08458,-0.0237 0.361433,-0.12147 0.615204,-0.2173 0.643592,-0.24316 3.009954,-0.97621 3.445151,-1.06725 0.0846,-0.0177 0.319906,-0.0767 0.522925,-0.13106 2.580276,-0.69128 6.221099,-1.35913 9.074279,-1.66455 0.490626,-0.0525 1.002785,-0.10738 1.13813,-0.12171 0.135345,-0.0144 0.439872,-0.0431 0.676727,-0.0639 0.236853,-0.0207 0.541381,-0.0476 0.676725,-0.0599 0.135346,-0.0125 0.578293,-0.0399 0.984329,-0.0613 0.406036,-0.0214 0.772004,-0.0499 0.813265,-0.0631 0.111952,-0.0358 3.396298,-0.10663 5.154228,-0.11111 1.433078,-0.004 3.51382,0.0503 4.367958,0.11311 0.203018,0.0149 0.645966,0.0423 0.984328,0.0608 0.338364,0.0185 0.781311,0.0474 0.98433,0.0642 0.203017,0.0168 0.521386,0.0433 0.707486,0.0588 0.186099,0.0156 0.559836,0.0445 0.830526,0.0644 0.451974,0.0331 2.4159,0.23716 2.922229,0.30364 0.118474,0.0156 0.353739,0.043 0.52292,0.0612 0.169181,0.0181 0.36298,0.0434 0.430647,0.0562 0.06772,0.0128 0.302995,0.0436 0.52292,0.0685 0.219938,0.0248 0.455252,0.0555 0.522932,0.0684 0.143429,0.027 1.288212,0.18984 1.691812,0.24062 0.15226,0.0192 0.40142,0.06 0.55369,0.0908 0.15225,0.0308 0.56753,0.10075 0.9228,0.15554 0.35528,0.0548 0.83976,0.13775 1.07662,0.18435 0.23685,0.0466 0.52754,0.10116 0.64596,0.12122 0.57638,0.0975 3.74463,0.74838 3.88483,0.79804 0.0458,0.0162 0.15937,0.0441 0.25242,0.0619 0.4096,0.0788 0.55474,0.11199 1.36884,0.31323 0.47371,0.1171 0.91665,0.22427 0.98433,0.23816 0.37032,0.0761 2.23326,0.58213 3.62971,0.98609 0.87974,0.25448 1.66681,0.47821 1.74902,0.49718 0.0822,0.0189 0.1721,0.0484 0.19972,0.0654 0.0275,0.0171 0.10513,0.0417 0.17216,0.0545 0.0671,0.013 0.28173,0.0781 0.47702,0.14479 0.19528,0.0668 1.05676,0.34993 1.91438,0.62939 0.85761,0.27944 1.57178,0.5406 1.58704,0.58035 0.0153,0.0397 -0.3439,0.80331 -0.79813,1.6968 l -0.82587,1.62453 -0.6689,-0.005 c -0.75068,-0.006 -3.16092,-0.0778 -3.96024,-0.11847 -0.75953,-0.0387 -1.98023,-0.0866 -3.10679,-0.12209 -0.54138,-0.017 -1.34422,-0.0457 -1.7841,-0.0637 -0.43986,-0.0181 -1.13198,-0.0446 -1.53801,-0.0591 -0.40604,-0.0144 -1.15351,-0.0416 -1.66105,-0.06 -0.50755,-0.0184 -1.33807,-0.048 -1.84562,-0.0656 -0.50754,-0.0176 -1.18581,-0.0441 -1.50725,-0.059 -0.32145,-0.0148 -1.11045,-0.0433 -1.75335,-0.0633 -0.64289,-0.02 -1.390359,-0.0475 -1.661042,-0.0613 -0.270694,-0.0138 -1.004324,-0.0406 -1.630304,-0.0597 -0.625967,-0.0189 -1.42881,-0.0479 -1.78409,-0.0643 -0.355281,-0.0165 -1.088914,-0.0431 -1.630294,-0.0594 -0.541382,-0.0162 -1.275013,-0.0435 -1.630294,-0.0606 -0.355282,-0.0172 -1.116598,-0.0467 -1.691816,-0.0654 -0.575216,-0.0188 -1.295006,-0.0444 -1.599533,-0.0567 -0.304526,-0.0125 -1.052001,-0.04 -1.661055,-0.0616 -0.609053,-0.0214 -1.411897,-0.0507 -1.784095,-0.0648 -0.3722,-0.0142 -1.119674,-0.0405 -1.661055,-0.0584 -0.541381,-0.0179 -1.302698,-0.0462 -1.691814,-0.0628 -1.035126,-0.0441 -2.242892,-0.0897 -3.291349,-0.12409 -0.507545,-0.0167 -1.268863,-0.0447 -1.691817,-0.0624 -0.422952,-0.0177 -1.170427,-0.0445 -1.661053,-0.0594 -0.490627,-0.0149 -1.210417,-0.0417 -1.599534,-0.0595 -0.389118,-0.0177 -1.136593,-0.0474 -1.661055,-0.0659 -0.524464,-0.0184 -1.271937,-0.0458 -1.661054,-0.0605 -0.389118,-0.0148 -1.150436,-0.042 -1.691816,-0.0606 -0.541381,-0.0185 -1.344223,-0.0469 -1.784096,-0.0629 -0.439871,-0.016 -1.205408,-0.0438 -1.701203,-0.0617 l -0.901429,-0.0327 -0.25208,0.51361 c -0.138637,0.2825 -0.252074,0.53168 -0.252074,0.55374 0,0.0221 -0.249159,0.55658 -0.553686,1.1878 -0.304526,0.63123 -0.553684,1.15584 -0.553684,1.1658 0,0.0281 -0.403446,0.89588 -0.837252,1.80085 -0.216238,0.4511 -0.393158,0.83088 -0.393158,0.84395 0,0.0131 -0.169176,0.37763 -0.37594,0.81013 -0.51542,1.07809 -0.903233,1.90203 -1.050581,2.23206 -0.06798,0.15227 -0.206612,0.4518 -0.308074,0.66564 -0.101458,0.21383 -0.169535,0.40373 -0.151276,0.42198 0.01826,0.0182 0.193971,0.0431 0.39047,0.0553 1.642668,0.10136 2.93861,0.18553 3.71014,0.24094 0.253772,0.0182 0.724403,0.0484 1.045848,0.0671 0.321446,0.0187 0.722868,0.0435 0.892049,0.0554 0.169181,0.0113 0.659505,0.0418 1.089603,0.0666 l 0.782005,0.0452 0.448423,-0.33223 c 0.24663,-0.18272 0.600674,-0.43088 0.786769,-0.55146 0.186093,-0.1206 0.573667,-0.37287 0.861274,-0.56064 2.03863,-1.33096 4.531818,-2.38922 7.290185,-3.09439 1.389224,-0.35516 2.659735,-0.58666 3.752753,-0.68379 0.203018,-0.0181 0.405346,-0.0446 0.449621,-0.0593 0.320437,-0.10526 3.46165,-0.15473 4.779624,-0.0754 2.896141,0.17442 6.012187,0.89579 8.520595,1.97251 0.566561,0.24319 1.948639,0.93662 2.257932,1.13285 0.176002,0.11174 0.335306,0.20305 0.354012,0.20305 0.07396,0 1.265916,0.84385 1.815736,1.28541 0.711784,0.57163 1.242814,1.09757 1.722614,1.70608 1.73888,2.20531 2.09924,4.9073 0.97668,7.32286 -0.15265,0.32845 -0.7546,1.3443 -0.8707,1.46935 -0.0404,0.0435 -0.1421,0.1715 -0.22599,0.28439 -0.2794,0.37595 -1.071192,1.16645 -1.631562,1.62888 -0.637254,0.52587 -0.567329,0.47324 -1.045853,0.78732 -0.831302,0.54562 -1.602973,0.98803 -2.134363,1.22363 -0.179553,0.0796 -0.478721,0.21547 -0.664822,0.30191 -0.567748,0.2637 -2.03716,0.84258 -2.238338,0.88182 -0.06374,0.0125 -0.229841,0.0616 -0.369122,0.10912 -1.602537,0.54773 -3.981419,1.06789 -5.943894,1.29966 -0.45679,0.054 -0.927423,0.11012 -1.04585,0.12471 -1.003454,0.12409 -4.628275,0.1688 -5.936732,0.0733 -0.597967,-0.0436 -2.250514,-0.24133 -2.583863,-0.30907 -0.06767,-0.0137 -0.257044,-0.0445 -0.42083,-0.0682 -0.311159,-0.0452 -0.460482,-0.0715 -0.717299,-0.12635 -0.570727,-0.12184 -0.605996,-0.13002 -0.892287,-0.20701 -0.135216,-0.0365 -0.301212,-0.0762 -0.368884,-0.0886 -0.396488,-0.0723 -2.262425,-0.6733 -2.690908,-0.86666 -0.177979,-0.0803 -0.390458,-0.16644 -0.472177,-0.19138 -0.186776,-0.057 -1.49103,-0.71821 -1.820078,-0.9227 -0.135346,-0.0841 -0.286551,-0.17216 -0.336014,-0.19568 -0.143655,-0.0683 -0.869094,-0.5718 -1.17124,-0.81291 -0.653835,-0.52173 -1.726266,-1.43526 -2.153219,-1.83414 -0.253772,-0.23709 -0.516773,-0.44735 -0.584445,-0.46724 -0.06767,-0.0199 -0.56599,-0.0515 -1.107371,-0.0704 -0.54138,-0.0188 -1.191959,-0.0479 -1.445731,-0.0645 -0.253772,-0.0167 -0.890511,-0.0446 -1.414974,-0.0623 -0.524462,-0.0176 -1.202726,-0.0445 -1.507253,-0.0599 -0.304526,-0.0154 -0.899737,-0.042 -1.322691,-0.0594 -0.422954,-0.0173 -1.198114,-0.0504 -1.722576,-0.0736 -0.524463,-0.023 -1.19908,-0.0444 -1.499151,-0.0474 l -0.545582,-0.005 -0.485957,1.19964 c -0.267277,0.65982 -0.667512,1.65645 -0.889411,2.21474 -0.221897,0.55831 -0.536183,1.33347 -0.698413,1.72258 -0.16223,0.38913 -0.452811,1.10891 -0.645737,1.59953 -0.192925,0.49063 -0.377112,0.94742 -0.409306,1.0151 -0.0322,0.0677 -0.221663,0.52445 -0.421041,1.01509 l -0.362507,0.89204 -0.423146,0.0178 c -0.232728,0.0102 -0.435776,0.006 -0.451217,-0.009 z"
       id="path3724"
       inkscape:connector-curvature="0" />
  </g>
</svg>
